<?xml version="1.0" encoding="UTF-8"?><svg id="Layer_2" xmlns="http://www.w3.org/2000/svg" width="178" height="178" viewBox="0 0 178 178"><defs><style>.cls-1{fill:#1b542e;}.cls-1,.cls-2{stroke-width:0px;}.cls-2{fill:#e4f1c8;}</style></defs><circle class="cls-2" cx="89" cy="89" r="89"/><path class="cls-1" d="m83.92,84.67c-5.43-3.56-9.36-9.4-11.23-15.69-.49-1.66-.87-3.35-1.11-5.07.05.38-.07-.56-.09-.76-.04-.42-.08-.84-.11-1.25-.06-.94-.09-1.89-.08-2.83.02-1.76.18-3.55.4-4.82.3-1.74.74-3.46,1.32-5.13.92-2.67,2.76-5.98,4.58-8.11,1.31-1.54,2.76-2.99,4.54-3.97.79-.44,1.63-.74,2.54-.89-.34.06.55-.04.76-.04s.4.01.61.01c.81,0-.39-.13.38.04.38.09.76.17,1.14.3.18.06.37.13.55.2-.13-.05-.43-.21.09.06.88.46,1.38.8,1.86,1.23,1.39,1.24,2.09,2.19,3,3.8,1.78,3.15,2.58,6.65,2.65,10.2.2,10.01-3.49,19.97-10.21,27.4-1,1.1-1.19,2.74-.23,3.94.85,1.07,2.65,1.67,3.87.77,9.86-7.24,21.02-12.5,32.89-15.48,5.79-1.45,11.69-2.36,17.64-2.66,3.08-.16,6.18-.18,9.27-.01,2.65.15,5.41.47,7.87,1.53,2.25.96,3.93,2.49,4.99,4.45s1.42,4.11,1.34,6.42c-.07,2.02-.67,4.37-1.62,6.18-1.28,2.44-3.06,4.48-5.14,6.28-4.07,3.51-9.22,5.84-14.29,7.5-5.38,1.76-10.94,2.73-16.59,2.92-12.73.42-25.39-3.03-36-10.14-2.87-1.93-5.99,2.34-3.64,4.71,6.48,6.53,10.32,15.31,14.05,23.59,1.91,4.24,3.79,8.83,4.22,13.5.38,4.17-.14,7.84-2.49,11.04-1.69,2.3-4.4,4.21-7.28,4.88-.2.05-1.15.19-.67.14-.39.04-.78.06-1.18.06-.17,0-.97-.05-.77-.03.35.04-.24-.04-.32-.06-.24-.05-.48-.11-.71-.17-.1-.03-1.1-.43-.67-.22-.37-.17-.72-.38-1.06-.6-.5-.32-1.25-1.02-1.76-1.67-2.3-2.94-2.91-7.4-3.48-11.15-.74-4.87-1.09-9.8-1.14-14.72-.12-11.23,1.51-22.38,4.79-33.13l-4.41,1.79c.85.57-.21-.16.24.18.11.08.5.56.19.14.14.19.47.99.31.49.06.17.1.35.15.52.24.78,0-.32.03.17.01.24.02.48,0,.72,0,.12-.12.93-.03.39-.34,2-1.08,3.4-2.19,5.12-1.22,1.89-2.82,3.43-4.5,5.17-2.11,2.19-4.21,4.38-6.32,6.57-4.09,4.25-8.14,8.56-12.29,12.75-3.29,3.33-6.96,6.83-11.49,8.35-2.06.69-3.63.88-5.81.71-1.64-.13-3.41-.71-4.94-1.7-3.01-1.95-3.68-5.89-2.66-9.43,1.23-4.3,4.2-7.96,7.5-10.96,3.53-3.2,7.52-5.84,11.78-7.97,9.4-4.69,20.39-6.62,30.76-5.14v-5.79c-10.18,2.58-20.95,2.47-31.11-.16-5.03-1.3-9.88-3.17-14.45-5.64s-9.04-5.38-12.5-9.21c-2.98-3.3-5.51-8.11-2.2-11.81s7.82-5.42,12.43-6.15c4.39-.7,9.23-.12,13.64,1.3s8.65,3.94,12.16,7.2c8.72,8.12,13.3,19.59,15.75,31.03.34,1.58,2.19,2.51,3.69,2.1,1.64-.45,2.44-2.1,2.1-3.69-2.47-11.56-7.13-23.05-15.34-31.74-7.72-8.18-18.91-13.22-30.27-12.39-5.58.41-11.06,2.17-15.55,5.58-2.63,2-4.95,4.48-5.8,7.76-.81,3.11-.2,6.28,1.12,9.15,2.55,5.58,7.66,9.62,12.64,12.96s10.27,5.87,15.84,7.79c12.62,4.35,26.51,4.99,39.45,1.71,1.27-.32,2.2-1.6,2.2-2.89,0-1.2-.92-2.71-2.2-2.89-11.35-1.62-22.77.04-33.24,4.73-5.05,2.26-9.74,5.28-13.95,8.88-4.32,3.69-7.99,8.18-9.89,13.59-1.83,5.19-1.25,11.08,2.6,15.22,3.46,3.72,8.97,5.07,13.89,4.48,6-.72,11.04-4.09,15.4-8.1,4.66-4.28,8.9-9.05,13.28-13.61,2.62-2.72,5.24-5.45,7.86-8.17,2.17-2.26,4.35-4.47,5.98-7.16,2.98-4.93,4.29-11.69-1.23-15.35-1.67-1.11-3.87.04-4.41,1.79-3.24,10.63-4.94,21.75-5.01,32.86-.03,5.62.38,11.22,1.16,16.79.65,4.65,1.39,9.73,4.1,13.7,2.53,3.71,6.52,6.14,11.09,5.99,4.18-.14,8.1-2.11,11.14-4.9,7.92-7.27,6.94-18.57,3.47-27.82-2.12-5.66-4.79-11.2-7.57-16.57-2.66-5.12-5.8-10.04-9.88-14.15l-3.64,4.71c10.48,7.03,23.05,10.75,35.64,10.99,6.35.12,12.78-.67,18.9-2.36s11.85-4.07,16.85-7.68,9.29-8.49,10.71-14.61c1.35-5.82.31-12.29-3.81-16.78-4.51-4.91-11.58-5.79-17.87-5.95-6.78-.17-13.57.41-20.23,1.63-14.58,2.66-28.6,8.66-40.54,17.43l3.64,4.71c7.15-7.9,11.4-18.13,11.93-28.78.24-4.78-.4-9.41-2.31-13.82-1.67-3.84-4.43-7.61-8.27-9.51-9.34-4.62-18.04,3.73-22,11.62s-4.63,16.1-3,24.28c1.81,9.07,7,17.38,14.78,22.48,1.36.89,3.32.27,4.1-1.08.86-1.46.28-3.21-1.08-4.1h0Z"/></svg>