<?xml version="1.0" encoding="UTF-8"?><svg id="Layer_3" xmlns="http://www.w3.org/2000/svg" width="497.28" height="658.36" viewBox="0 0 497.28 658.36"><defs><style>.cls-1{fill:#1b542e;stroke-width:0px;}</style></defs><path class="cls-1" d="m359.03,658.04c18.12-24.26,24.75-54.6,23.61-84.48-1.21-31.56-10.42-62.12-23.46-90.69-14.68-32.16-33.35-62.26-49.4-93.72-8.11-15.89-15.55-32.16-21.36-49.04s-10.08-34.77-12.56-52.68c-4.99-35.97-3.05-72.94,5.84-108.16,1.09-4.31,2.29-8.59,3.58-12.85.28-.93-1.17-1.32-1.45-.4-10.34,34.13-14.11,70.16-11.2,105.7,2.88,35.18,12.61,68.96,27.43,100.92,14.87,32.06,33.56,62.13,49.47,93.65,14.77,29.26,26.7,59.94,30.48,92.7,3.5,30.34.02,62.32-15.95,88.91-1.94,3.24-4.06,6.36-6.32,9.38-.58.77.72,1.52,1.3.76h0Z"/><path class="cls-1" d="m285.92,334.81c-13.31-21.12-30.24-39.61-47.95-57.09-8.62-8.51-17.34-16.98-26.34-25.1-8.43-7.61-17.3-14.88-27.15-20.6-10.62-6.17-22.41-10.32-34.78-10.46-.97-.01-.97,1.49,0,1.5,22.82.26,42.31,14.16,58.72,28.7,8.79,7.78,17.22,15.99,25.61,24.2,8.74,8.54,17.31,17.27,25.41,26.44,9.2,10.42,17.77,21.41,25.19,33.18.51.81,1.81.06,1.3-.76h0Z"/><path class="cls-1" d="m340.02,446.64c-14.79-18.04-33.72-32.34-54.39-43-22.55-11.63-47.1-18.88-72.03-23.29-14.77-2.61-29.69-4.25-44.64-5.3-.96-.07-.96,1.43,0,1.5,26.37,1.85,52.74,5.56,78.1,13.23,22.69,6.86,44.5,16.99,63.6,31.13,10.47,7.75,20.04,16.71,28.3,26.79.61.75,1.67-.32,1.06-1.06h0Z"/><path class="cls-1" d="m285.07,166.5c17.83-10.29,34.24-25.48,41.93-44.96,4.08-10.33,5.03-21.38,3.06-32.3-2.32-12.87-7.72-25.15-12.67-37.18-5.72-13.91-11.85-27.64-18.37-41.19-.42-.87-1.71-.11-1.3.76,5.7,11.84,11.1,23.81,16.18,35.93,2.55,6.07,5.02,12.18,7.41,18.32s4.49,11.9,6.06,18.06c2.81,11.04,3.07,22.32-.4,33.24-3.1,9.77-8.7,18.62-15.49,26.25-7.75,8.71-17.07,15.96-27.16,21.78-.84.48-.08,1.78.76,1.3h0Z"/><path class="cls-1" d="m284.79,164.24c-22.83-4.05-40.1-26.12-38.56-49.22.92-13.84,7.51-26.56,14.64-38.17,7.84-12.76,16.27-25.17,24.44-37.71,4.18-6.41,8.77-12.72,11.56-19.9,2.38-6.15,3.22-13.22-.76-18.91-.55-.79-1.85-.04-1.3.76,3.85,5.51,2.82,12.24.46,18.13-2.6,6.51-6.77,12.28-10.58,18.13-8.32,12.77-16.89,25.41-24.89,38.37-7.09,11.49-13.57,23.96-14.94,37.6-1.16,11.59,2.08,23.08,8.87,32.52,7.29,10.14,18.27,17.65,30.65,19.85.94.17,1.35-1.28.4-1.45h0Z"/><path class="cls-1" d="m149.07,222.5c.04-21.46-10.51-42.16-26.73-55.97-8-6.8-17.39-11.99-27.54-14.76-12.77-3.48-26.2-2.84-39.26-2.02-15.25.97-30.9,2.31-45.76-2.18-.93-.28-1.32,1.17-.4,1.45,26.07,7.89,53.34-1.88,79.74,3,20.89,3.86,38.99,18.04,49.31,36.41,5.84,10.39,9.16,22.14,9.14,34.08,0,.97,1.5.97,1.5,0h0Z"/><path class="cls-1" d="m148.47,222.13c-5.79,11.07-15.98,20.47-29.1,20.47s-25.87-8.41-36-16.65c-19.51-15.89-34.67-36.19-51.46-54.74-9.41-10.39-19.42-20.29-30.82-28.5-.78-.56-1.53.74-.76,1.3,21.05,15.16,36.98,35.92,53.98,55.21,8.53,9.67,17.41,19.09,27.38,27.29s21.8,16.45,35.16,17.5c7.07.56,14.01-1.4,19.78-5.52s9.95-9.54,13.13-15.6c.45-.85-.85-1.61-1.3-.76h0Z"/><path class="cls-1" d="m168.23,375.41c-9.11-16.58-24.32-29.49-41.98-36.19-9.51-3.6-19.52-5.1-29.67-5.09-11.42.02-22.75,1.63-34.12,2.58-12.68,1.06-25.62,1.24-37.83-2.81-.92-.3-1.31,1.14-.4,1.45,21.47,7.11,44.16,1.46,66.08.43,10.46-.49,20.88.19,30.92,3.29,9.09,2.81,17.67,7.31,25.18,13.15,8.37,6.5,15.42,14.64,20.52,23.94.46.85,1.76.09,1.3-.76h0Z"/><path class="cls-1" d="m165.21,374.21c-3.83,11.36-8.08,23.4-16.64,32.15-4.46,4.55-10,7.82-16.2,9.32s-13.05,1.26-19.39-.21c-13.54-3.13-24.71-11.64-34.42-21.23-4.99-4.93-9.67-10.16-14.41-15.33-5.07-5.52-10.23-10.94-15.51-16.26-12.05-12.14-24.65-23.73-37.74-34.74-.73-.62-1.8.44-1.06,1.06,12.01,10.1,23.61,20.69,34.75,31.75,5.57,5.53,11.02,11.17,16.36,16.93,4.9,5.29,9.68,10.69,14.74,15.83,9.71,9.87,20.79,18.93,34.34,22.78,12.48,3.55,26.25,2.4,36.55-6.03,9.57-7.83,14.57-19.83,18.57-31.19.52-1.47,1.02-2.94,1.52-4.42.31-.92-1.14-1.31-1.45-.4h0Z"/><path class="cls-1" d="m284.33,167.23c7.59-19.46,13.08-39.73,16.36-60.36s4.38-41.28,3.3-61.98c-.61-11.67-1.93-23.3-3.93-34.82-.16-.95-1.61-.55-1.45.4,3.55,20.44,4.88,41.25,4.03,61.98-.85,20.65-3.89,41.21-9.05,61.22-2.9,11.25-6.48,22.33-10.7,33.15-.35.9,1.1,1.29,1.45.4h0Z"/><path class="cls-1" d="m293.66,141.94c11.1-10.7,22.39-21.65,30.27-35.04,2.17-3.69,4.04-7.56,5.57-11.56.34-.9-1.11-1.29-1.45-.4-5.45,14.29-15.52,26.09-26.15,36.82-3.06,3.09-6.18,6.11-9.3,9.12-.7.67.37,1.73,1.06,1.06h0Z"/><path class="cls-1" d="m299.76,112.5c8.91-9.92,18.2-20.5,22.31-33.44,1.13-3.55,1.79-7.23,1.95-10.95.04-.97-1.46-.96-1.5,0-.74,17.24-12.86,31.13-23.81,43.33-.64.72.41,1.78,1.06,1.06h0Z"/><path class="cls-1" d="m302.46,75.85c6.64-8,11.38-17.44,13.78-27.56.22-.94-1.22-1.34-1.45-.4-2.34,9.86-6.92,19.09-13.39,26.9-.61.74.44,1.8,1.06,1.06h0Z"/><path class="cls-1" d="m302.67,72.93c-10.64-8.45-17.03-21.65-17-35.24,0-.97-1.5-.97-1.5,0-.03,13.95,6.51,27.62,17.44,36.3.75.59,1.82-.46,1.06-1.06h0Z"/><path class="cls-1" d="m297.87,111.51c-12.49-8.25-21.47-21.35-24.99-35.87-1-4.13-1.54-8.36-1.61-12.61-.02-.96-1.52-.97-1.5,0,.26,15.35,6.63,30.35,17.26,41.4,3.04,3.16,6.43,5.96,10.08,8.38.81.53,1.56-.76.76-1.3h0Z"/><path class="cls-1" d="m293.3,139.17c-15.53-9.72-27.29-25.19-32.49-42.77-1.6-5.42-3.17-11.52-1.17-17.04.33-.91-1.12-1.3-1.45-.4-1.82,5-.8,10.42.5,15.42,1.18,4.54,2.79,8.96,4.78,13.2,4.03,8.6,9.67,16.46,16.5,23.06,3.83,3.7,8.06,6.99,12.57,9.82.82.51,1.57-.78.76-1.3h0Z"/><path class="cls-1" d="m300.42,368.96c4.3-12.98,10.62-25.25,18.71-36.28,8.44-11.51,18.84-21.55,30.33-29.98,6.41-4.7,13.17-8.9,20.22-12.57.86-.45.1-1.74-.76-1.3-25.24,13.16-47.12,33.15-60.71,58.31-3.7,6.85-6.79,14.03-9.24,21.42-.3.92,1.14,1.31,1.45.4h0Z"/><path class="cls-1" d="m369.9,288.05c1.02-12.49,4.99-24.7,11.57-35.36,5.88-9.52,13.93-17.43,24.27-21.91,9.13-3.96,19.14-5.37,28.97-6.27s19.92-1.26,29.77-2.82c10.64-1.68,21.06-5.02,29.49-11.93.75-.61-.32-1.67-1.06-1.06-15.94,13.08-38.04,12.53-57.48,14.25-9.88.87-19.91,2.2-29.15,5.99-10.15,4.16-18.3,11.36-24.42,20.4-7.76,11.45-12.33,24.96-13.46,38.72-.08.96,1.42.96,1.5,0h0Z"/><path class="cls-1" d="m366.82,290.98c11.83,7.22,24.75,12.64,38.21,15.96,12.58,3.1,26.66,4.76,38.57-1.51,9.47-4.98,15.72-14.05,20.17-23.52,4.97-10.57,8.04-21.88,12.06-32.81,5.53-15.02,12.43-29.58,21.31-42.93.54-.81-.76-1.56-1.3-.76-7.6,11.43-13.75,23.75-18.85,36.48-4.46,11.14-7.66,22.73-12.16,33.84-3.91,9.63-9.11,19.43-17.67,25.69-10.76,7.88-24.42,7.71-36.96,5.14-15.05-3.08-29.52-8.89-42.63-16.89-.83-.5-1.58.79-.76,1.3h0Z"/><path class="cls-1" d="m371.65,291.4c2.19-9.25,9.93-15.67,17.26-21.02,8.31-6.07,17.16-11.39,26.41-15.9,16.34-7.96,34.18-12.21,50.48-20.22,8.6-4.22,16.65-9.68,22.83-17.08.61-.74-.44-1.8-1.06-1.06-11.52,13.79-28.86,20.13-45.29,25.97-8.82,3.14-17.62,6.29-26.09,10.31-9.43,4.48-18.46,9.8-26.94,15.89-8.02,5.76-16.65,12.62-19.04,22.71-.22.94,1.22,1.34,1.45.4h0Z"/><path class="cls-1" d="m388.29,271.78c.52-12.69,1.5-27.68,11.96-36.49.74-.62-.33-1.68-1.06-1.06-10.76,9.08-11.86,24.47-12.39,37.55-.04.97,1.46.96,1.5,0h0Z"/><path class="cls-1" d="m418.54,255.08c-.44-12.27,5.6-24.4,15.73-31.38.79-.54.04-1.84-.76-1.3-10.55,7.27-16.93,19.85-16.47,32.67.03.96,1.53.97,1.5,0h0Z"/><path class="cls-1" d="m444.15,241.76c1.9-8.54,7.14-16.13,14.48-20.9.81-.52.06-1.82-.76-1.3-7.66,4.97-13.18,12.88-15.17,21.8-.21.94,1.24,1.34,1.45.4h0Z"/><path class="cls-1" d="m444.72,242.87c10.66,4.08,22.55,4.48,33.47,1.13.92-.28.53-1.73-.4-1.45-10.69,3.27-22.23,2.86-32.67-1.13-.9-.35-1.29,1.1-.4,1.45h0Z"/><path class="cls-1" d="m417.62,253.01c16.83,8.16,35.58,16.19,54.65,12.28.94-.19.55-1.64-.4-1.45-18.64,3.83-37.07-4.16-53.5-12.13-.86-.42-1.63.87-.76,1.3h0Z"/><path class="cls-1" d="m388.92,271.75c9.71,4.47,19.37,9.09,29.17,13.35,4.67,2.03,9.39,3.94,14.22,5.55,4.41,1.47,8.91,2.74,13.56,3.16s9.75-.19,13.94-2.73c.82-.5.07-1.8-.76-1.3-7.89,4.78-17.74,2.25-25.9-.43-9.47-3.11-18.49-7.38-27.52-11.54-5.32-2.45-10.64-4.9-15.95-7.35-.87-.4-1.63.89-.76,1.3h0Z"/><path class="cls-1" d="m148.14,220.46c-14.26-13.65-30-25.73-46.85-36-16.85-10.27-34.81-18.73-53.46-25.19-10.51-3.64-21.24-6.62-32.12-8.95-.94-.2-1.34,1.24-.4,1.45,19.25,4.11,38.03,10.31,55.94,18.46s34.82,18.15,50.53,29.87c8.87,6.61,17.31,13.77,25.3,21.42.7.67,1.76-.39,1.06-1.06h0Z"/><path class="cls-1" d="m132.1,204.37c-1.89-17.02-9.14-33.2-20.62-45.91-.65-.72-1.71.35-1.06,1.06,11.19,12.39,18.34,28.25,20.18,44.85.11.95,1.61.96,1.5,0h0Z"/><path class="cls-1" d="m103.05,186.53c-1.98-13.71-9.07-26.49-19.64-35.44-.73-.62-1.8.44-1.06,1.06,10.4,8.81,17.31,21.29,19.26,34.78.14.95,1.58.55,1.45-.4h0Z"/><path class="cls-1" d="m76.36,172.13c-5.63-9.89-13.85-18.17-23.69-23.87-.84-.48-1.59.81-.76,1.3,9.63,5.58,17.65,13.66,23.16,23.33.48.84,1.77.08,1.3-.76h0Z"/><path class="cls-1" d="m130.56,205.53c-5.67,12.54-17.33,21.89-30.65,25.17-3.8.93-7.69,1.34-11.6,1.22-.97-.03-.96,1.47,0,1.5,14.17.44,28.21-6.19,37.23-17.07,2.54-3.06,4.67-6.43,6.31-10.06.39-.87-.9-1.64-1.3-.76h0Z"/><path class="cls-1" d="m101.74,185.71c-4.69,6.69-10.38,13.3-18.78,14.97-8.83,1.76-17.82-1.25-26.7-.24-.95.11-.96,1.61,0,1.5,9.3-1.06,18.73,2.19,27.95,0,8.37-1.99,14.1-8.74,18.83-15.48.56-.79-.74-1.54-1.3-.76h0Z"/><path class="cls-1" d="m74.38,170.96c-1.47,6.38-8.17,9.16-14.09,9.65-3.47.29-6.98.07-10.45-.06-3.8-.14-7.6-.28-11.39-.41-.97-.03-.96,1.47,0,1.5,4.13.15,8.26.3,12.38.45,3.82.14,7.67.35,11.46-.21,5.92-.87,12.1-4.28,13.53-10.52.22-.94-1.23-1.34-1.45-.4h0Z"/><path class="cls-1" d="m168.71,376.74c-8.41-5.01-18.2-6.47-27.79-7.42s-20.03-1.94-29.98-3.51c-19.83-3.13-39.47-8.07-58.02-15.82-10.46-4.37-20.53-9.67-29.99-15.93-.81-.53-1.56.76-.76,1.3,16.64,11.02,35.15,18.94,54.29,24.45s39.18,8.71,59.14,10.53c11.05,1.01,22.6,1.9,32.35,7.71.83.49,1.59-.8.76-1.3h0Z"/><path class="cls-1" d="m147.47,371.01c-10.62,11.96-12.74,30.31-26.81,39.39-3.62,2.34-7.74,3.64-12.07,3.33-.96-.07-.96,1.43,0,1.5,7.72.56,14.58-3.81,19.55-9.37,5.58-6.25,8.72-14.05,12.44-21.44,2.21-4.38,4.67-8.66,7.94-12.34.64-.72-.42-1.78-1.06-1.06h0Z"/><path class="cls-1" d="m118.03,366.41c-5,7.17-10.24,14.18-15.72,21-2.66,3.31-5.38,6.58-8.14,9.8-1.75,2.03-5.94,7.61-9.12,5-.74-.61-1.81.45-1.06,1.06,2.87,2.36,6.42.14,8.64-2.07,3.35-3.33,6.28-7.24,9.26-10.9,6.1-7.49,11.91-15.21,17.44-23.14.55-.79-.75-1.54-1.3-.76h0Z"/><path class="cls-1" d="m82.97,363.84c-3.68,8.22-13.17,13.19-22.02,11.36-.94-.19-1.35,1.25-.4,1.45,9.46,1.95,19.75-3.2,23.72-12.05.39-.87-.9-1.64-1.3-.76h0Z"/><path class="cls-1" d="m149.37,369.92c-4.58-6.88-9.16-13.76-13.73-20.64-3.34-5.01-6.85-11.99-13.33-13.32-.94-.19-1.35,1.25-.4,1.45,3.06.63,5.35,2.71,7.25,5.08,2.21,2.76,4.05,5.84,6.01,8.78,4.3,6.47,8.61,12.93,12.91,19.4.53.8,1.83.05,1.3-.76h0Z"/><path class="cls-1" d="m118.84,365.46c-5.81-13.59-16.8-24.77-30.29-30.8-.87-.39-1.64.9-.76,1.3,13.3,5.95,24.03,16.87,29.76,30.26.38.88,1.67.12,1.3-.76h0Z"/><path class="cls-1" d="m86.56,360.07c-3.76-9.79-11.29-17.92-20.82-22.31-.87-.4-1.63.89-.76,1.3,9.17,4.23,16.51,11.98,20.13,21.42.34.89,1.79.5,1.45-.4h0Z"/><path class="cls-1" d="m273.59,221.13c-4.77-10.5-15.03-17.96-26.45-19.43-.95-.12-.95,1.38,0,1.5,10.9,1.4,20.62,8.7,25.15,18.68.4.88,1.69.12,1.3-.76h0Z"/><path class="cls-1" d="m247.23,201.7c-3.84-7.75-8.05-15.91-15.72-20.5-3.66-2.19-7.77-3.19-12.02-2.9-4.72.32-9.2,1.89-13.81,2.79s-10.13,1.15-14.38-1.68c-.81-.54-1.56.76-.76,1.3,7.4,4.93,16.46,1.42,24.29-.22,4.6-.96,9.26-1.15,13.63.81,3.83,1.71,7.06,4.55,9.65,7.81,3.22,4.05,5.54,8.73,7.82,13.35.43.87,1.72.11,1.3-.76h0Z"/><path class="cls-1" d="m247.48,202.97c-2.42,4-5.15,8.4-9.87,9.88s-9.99-.28-14.29-2.45c-4.16-2.1-8.12-4.72-11.88-7.46s-7.43-5.84-10.63-9.31c-3.55-3.86-6.55-8.23-8.58-13.08-.37-.88-1.82-.49-1.45.4,3.87,9.23,10.86,16.52,18.77,22.45,4.15,3.11,8.56,6.08,13.2,8.39s9.54,3.91,14.49,2.72c5.55-1.34,8.76-6.19,11.53-10.78.5-.83-.8-1.58-1.3-.76h0Z"/><path class="cls-1" d="m247.35,202.53c-11.53-9.95-27.94-7.88-41.19-13.95-3.7-1.69-7.03-4.02-9.6-7.2-.61-.75-1.66.32-1.06,1.06,9.46,11.71,26.17,10.89,39.31,15.06,4.16,1.32,8.15,3.21,11.47,6.08.73.63,1.79-.43,1.06-1.06h0Z"/><path class="cls-1" d="m234.21,195.23c-1.9,6.45-5.53,12.28-10.46,16.84-.71.66.35,1.72,1.06,1.06,5.12-4.74,8.88-10.82,10.85-17.51.27-.93-1.17-1.32-1.45-.4h0Z"/><path class="cls-1" d="m219.78,193.58c-1.25,3.76-4.33,6.83-8.1,8.07-.91.3-.52,1.75.4,1.45,4.29-1.4,7.73-4.83,9.15-9.11.3-.92-1.14-1.31-1.45-.4h0Z"/><path class="cls-1" d="m236.35,195.83c-2.84-6.28-6.69-12.06-11.37-17.11-.66-.71-1.72.35-1.06,1.06,4.6,4.96,8.36,10.64,11.14,16.8.4.88,1.69.12,1.3-.76h0Z"/><path class="cls-1" d="m219.98,193.35c-1.63-5.31-5.07-9.93-9.67-13.04-.8-.54-1.55.76-.76,1.3,4.27,2.88,7.47,7.22,8.98,12.14.28.92,1.73.53,1.45-.4h0Z"/><path class="cls-1" d="m274.85,223.52c8.59-10.18,20.02-22.94,34.94-19.83.94.2,1.34-1.25.4-1.45-7.06-1.47-14.3.67-20.25,4.53-6.36,4.12-11.31,9.96-16.15,15.69-.62.73.44,1.8,1.06,1.06h0Z"/><path class="cls-1" d="m311.52,202.34c6.16-5.48,14.87-6.7,22.43-3.61,6.66,2.73,12.06,7.73,18.31,11.2,3.38,1.88,6.98,3.24,10.85,3.56.96.08.96-1.42,0-1.5-7.54-.62-13.68-5.57-19.72-9.64s-12.98-7.69-20.72-6.67c-4.54.6-8.79,2.54-12.22,5.58-.72.64.34,1.7,1.06,1.06h0Z"/><path class="cls-1" d="m307.9,204.28c2.74,2.98,5.64,5.81,8.7,8.45,2.85,2.47,5.94,5.32,9.36,6.98s7.52,1.15,11.25.63c4.2-.59,8.33-1.57,12.37-2.89,4.56-1.49,9.13-3.23,14-2.95.96.06.96-1.44,0-1.5-3.9-.23-7.66.79-11.34,1.99-3.87,1.26-7.7,2.5-11.7,3.28-2.02.39-4.06.7-6.11.91s-4.09.36-6.06-.16-3.52-1.66-5.07-2.82-3.22-2.48-4.77-3.8c-3.38-2.86-6.56-5.93-9.55-9.18-.65-.71-1.71.35-1.06,1.06h0Z"/><path class="cls-1" d="m309.74,204.58c8.15,3.06,17.08,1.84,25.44,3.9s15.76,5.9,24.25,5.9c.97,0,.97-1.5,0-1.5-8.48,0-16.17-4.02-24.27-5.95-8.23-1.95-17.01-.79-25.01-3.8-.9-.34-1.3,1.11-.4,1.45h0Z"/><path class="cls-1" d="m321.45,206.21c1.97-4.69,6.59-8.2,11.64-8.84.94-.12.96-1.62,0-1.5-5.79.73-10.83,4.56-13.09,9.94-.16.38.17.82.52.92.43.12.77-.15.92-.52h0Z"/><path class="cls-1" d="m333.76,207.08c4.17-1.88,9.01-1.86,13.21-.09.89.37,1.28-1.08.4-1.45-4.59-1.93-9.84-1.8-14.37.25-.88.4-.12,1.69.76,1.3h0Z"/><path class="cls-1" d="m333.92,208.49c3.77,3.57,7.54,7.14,11.32,10.71.7.66,1.76-.4,1.06-1.06-3.77-3.57-7.54-7.14-11.32-10.71-.7-.66-1.76.4-1.06,1.06h0Z"/><path class="cls-1" d="m320.78,206.56c5.49,5.22,10.98,10.44,16.47,15.66.7.66,1.76-.39,1.06-1.06-5.49-5.22-10.98-10.44-16.47-15.66-.7-.66-1.76.39-1.06,1.06h0Z"/><path class="cls-1" d="m376.73,538.16c1.39-6.41,1.91-13.23,4.8-19.21,2.37-4.91,6.62-9.49,12.27-10.24.94-.13.96-1.63,0-1.5-5.82.78-10.34,4.97-13.05,9.99-3.41,6.31-3.97,13.66-5.46,20.56-.2.94,1.24,1.34,1.45.4h0Z"/><path class="cls-1" d="m393.35,508.36c8.1,1.8,15.7,10.13,24.5,6.5,3.51-1.45,6.04-4.48,8.19-7.5s4.31-6.44,6.86-9.38c2.91-3.35,6.39-6.21,10.77-7.31.94-.24.54-1.68-.4-1.45-7.22,1.82-12.01,7.93-16.05,13.77-2.22,3.22-4.32,6.76-7.53,9.1-3.79,2.77-8.24,2.43-12.43.77-4.6-1.82-8.63-4.87-13.52-5.95-.94-.21-1.34,1.24-.4,1.45h0Z"/><path class="cls-1" d="m395.53,507.86c3.58-6.6,4.62-15.23,10.46-20.41,3.43-3.05,8.06-3.87,12.51-3.85,4.97.02,9.98.78,14.89,1.54,5.92.92,11.79,2.14,17.6,3.62.94.24,1.34-1.21.4-1.45-5.41-1.38-10.88-2.53-16.4-3.43-5.1-.83-10.29-1.62-15.46-1.77-4.45-.12-9.15.43-12.92,2.97-3.27,2.21-5.39,5.56-6.97,9.1-1.9,4.26-3.17,8.8-5.4,12.91-.46.85.83,1.61,1.3.76h0Z"/><path class="cls-1" d="m448.43,486.05c-15.04-.38-29.14,7.23-41.9,14.38-3.46,1.94-6.8,4.14-9.42,7.15-.63.73.43,1.79,1.06,1.06,2.92-3.35,6.72-5.63,10.59-7.73,4.12-2.23,8.27-4.44,12.51-6.44,8.52-4.02,17.63-7.17,27.16-6.93.97.02.97-1.48,0-1.5h0Z"/><path class="cls-1" d="m425.93,481.47c-2.19,4.36-3.95,8.91-5.25,13.61-.26.93,1.19,1.33,1.45.4,1.26-4.58,2.96-9.01,5.09-13.25.43-.86-.86-1.62-1.3-.76h0Z"/><path class="cls-1" d="m412.64,482.38c-3.3,5.36-4.59,11.7-3.74,17.92.13.95,1.58.55,1.45-.4-.79-5.81.52-11.78,3.59-16.77.51-.82-.79-1.58-1.3-.76h0Z"/><path class="cls-1" d="m422.17,494.78c2.56,2.35,6.22,3.29,9.59,2.44.94-.24.54-1.68-.4-1.45-2.84.72-5.97-.06-8.13-2.05-.71-.65-1.77.41-1.06,1.06h0Z"/><path class="cls-1" d="m409.62,502.15c3.64,1.54,7.29,3.07,10.93,4.61,2.31.97,5.56,2.32,7.41-.16.58-.77-.72-1.52-1.3-.76-.74.99-2.24.7-3.26.41-1.39-.39-2.71-1.05-4.04-1.61-3.12-1.31-6.23-2.63-9.35-3.94-.89-.37-1.28,1.08-.4,1.45h0Z"/><path class="cls-1" d="m293.13,409.45c-3.25-1.24-6.72-.16-9.89.85-3.39,1.09-6.7,2.4-9.91,3.93-6.44,3.06-12.44,6.98-17.85,11.62-.73.63.33,1.69,1.06,1.06,5.1-4.36,10.74-8.07,16.78-11.01,3.02-1.47,6.13-2.75,9.31-3.81s6.8-2.44,10.1-1.18c.9.34,1.29-1.11.4-1.45h0Z"/><path class="cls-1" d="m255.08,428.49c2.94.92,4.44,4.05,4.46,6.97.02,3.58-2.06,6.84-4.06,9.65-1.11,1.55-2.24,3.1-3.64,4.41s-3.07,2.24-4.78,3.09c-3.05,1.52-6.08,2.94-8.82,4.99-2.91,2.17-5.43,4.81-7.2,7.99-.47.84.82,1.6,1.3.76,1.88-3.37,4.63-6.1,7.8-8.26s6.67-3.43,9.9-5.38,5.7-5.18,7.81-8.4c1.92-2.93,3.55-6.41,3.11-10-.4-3.22-2.28-6.25-5.48-7.25-.92-.29-1.32,1.16-.4,1.45h0Z"/><path class="cls-1" d="m255.59,424.63c-8.24-2.23-17.88-1.43-24.45,4.48s-8.45,15.91-7.39,24.56c.74,6.08,2.62,11.91,4.51,17.71.17.53.84.74,1.25.33.47-.46.94-.92,1.4-1.37.69-.68-.37-1.74-1.06-1.06-.47.46-.94.92-1.4,1.37l1.25.33c-2.94-9-6.08-18.59-4.22-28.14.78-4.01,2.4-7.95,5.12-11.05s6.5-5.19,10.57-6.15c4.61-1.08,9.47-.8,14.02.44.93.25,1.33-1.19.4-1.45h0Z"/><path class="cls-1" d="m256.31,426.53c-12.59,12.53-26.06,26.26-29.08,44.54-.16.94,1.29,1.35,1.45.4,2.98-18.04,16.27-31.51,28.69-43.88.69-.68-.38-1.74-1.06-1.06h0Z"/><path class="cls-1" d="m249.7,434.84c2.02,1.83,2.19,4.63,1.99,7.18-.25,3.27-.96,6.54-1.49,9.78-.15.94,1.29,1.35,1.45.4.57-3.53,1.38-7.11,1.58-10.69.15-2.79-.3-5.77-2.47-7.73-.71-.65-1.78.41-1.06,1.06h0Z"/><path class="cls-1" d="m239.62,458.4c1.64-.7,1.63-2.76,1.3-4.23-.23-1.03-.61-2.02-.93-3.02-.39-1.21-.78-2.41-1.16-3.62-.29-.92-1.74-.52-1.45.4.65,2.01,1.33,4.01,1.94,6.03.28.94.71,2.66-.45,3.15-.38.16-.45.71-.27,1.03.22.39.66.43,1.03.27h0Z"/><path class="cls-1" d="m249.94,433.36c-4.47-5.23-11.65-7.69-18.39-6.44-.95.18-.55,1.62.4,1.45,6.24-1.15,12.82,1.25,16.93,6.06.63.73,1.69-.33,1.06-1.06h0Z"/><path class="cls-1" d="m238.71,447.2c-4.3-2.37-9.57-2.76-14.15-.97-.89.35-.5,1.8.4,1.45,4.22-1.65,9.02-1.37,13,.82.85.47,1.6-.83.76-1.3h0Z"/><path class="cls-1" d="m232.95,274.55c-3.64-3.53-9.61-4.37-14.46-4.71-5.58-.39-11.22.4-16.5,2.24-.91.32-.52,1.77.4,1.45,4.89-1.71,10.03-2.48,15.21-2.24,2.54.12,5.07.49,7.54,1.1s4.9,1.43,6.75,3.22c.69.67,1.75-.39,1.06-1.06h0Z"/><path class="cls-1" d="m200.81,272.52c-2.86-2.6-5.91-5.33-9.74-6.35-4.21-1.12-8.58.11-12.46,1.78-7.85,3.38-14.35,9.09-20.7,14.68-.73.64.34,1.7,1.06,1.06,5.83-5.14,11.77-10.36,18.84-13.74,3.78-1.81,8.23-3.4,12.47-2.43,3.75.86,6.7,3.55,9.47,6.06.71.65,1.78-.41,1.06-1.06h0Z"/><path class="cls-1" d="m201.49,273.82c2.73,3.13,1.41,7.52-.15,10.86s-3.36,7.29-7.19,8.67-7.75.38-11.38-.85c-4.09-1.38-8.14-2.9-12.2-4.36-4.76-1.7-9.51-3.41-14.27-5.11-.91-.33-1.3,1.12-.4,1.45,4.76,1.7,9.51,3.41,14.27,5.11s9.22,3.52,13.93,4.91c3.85,1.14,8.18,1.61,11.87-.32s5.37-5.86,6.93-9.35c1.73-3.87,2.69-8.57-.36-12.07-.64-.73-1.69.34-1.06,1.06h0Z"/><path class="cls-1" d="m201.55,273.41c-7.16.26-14.39.53-21.41,2.15s-13.31,5-19.54,8.55c-.84.48-.08,1.77.76,1.3,6.12-3.49,12.26-6.8,19.18-8.4s13.98-1.85,21.01-2.1c.96-.03.97-1.53,0-1.5h0Z"/><path class="cls-1" d="m194.23,275.55c.37,3.22.09,6.45-.84,9.56-.46,1.54-1.08,3.03-1.84,4.44-.39.71-.81,1.4-1.26,2.07-.23.33-.46.66-.71.98-.05.07-.6.87-.68.88l.53.22.1.34-.52.52.13-.02c.95-.18.55-1.62-.4-1.45-.71.13-.95,1.04-.48,1.57.64.72,1.47.11,1.94-.44,1.44-1.71,2.62-3.65,3.53-5.69,1.8-4.07,2.52-8.56,2.02-12.98-.11-.95-1.61-.96-1.5,0h0Z"/><path class="cls-1" d="m181.75,276.22c.73,5.58-.51,11.23-3.53,15.98-.52.82.78,1.57,1.3.76,3.15-4.94,4.5-10.92,3.74-16.74-.12-.94-1.62-.96-1.5,0h0Z"/><path class="cls-1" d="m195.16,275.18c-4.99-5.63-12.9-6.12-19.92-6.35-.97-.03-.96,1.47,0,1.5,6.62.22,14.13.59,18.86,5.91.64.72,1.7-.34,1.06-1.06h0Z"/><path class="cls-1" d="m182.67,275.22c-1.63-1.98-4.71-1.15-6.87-.84-3.25.46-6.5.92-9.74,1.37-.95.13-.55,1.58.4,1.45,2.83-.4,5.66-.8,8.49-1.2,1.27-.18,2.55-.42,3.83-.52,1.03-.08,2.12-.06,2.83.8.62.74,1.67-.32,1.06-1.06h0Z"/><path class="cls-1" d="m213.71,357.04c3.1-1.98,5.9-4.41,8.22-7.27,1.37-1.69,3.14-5.24.31-6.55s-5.55,2.56-6.95,4.47c-2.17,2.96-3.85,6.24-5.04,9.71-.23.68.56,1.09,1.1.85,1.1-.5,1.33-1.74,1.23-2.84-.15-1.71-.68-3.47-1.23-5.09-1.11-3.26-2.76-6.31-4.88-9.02-.87-1.11-1.93-2.68-3.41-3-1.27-.28-2.26.61-2.42,1.84-.18,1.4.49,2.86.91,4.16.49,1.5,1.03,2.98,1.67,4.43,1.44,3.27,3.47,6.25,6.52,8.21.74.47,1.48-.57.91-1.18-2.73-2.9-6.84-3.93-10.71-3.47-2.05.25-4.01.86-5.91,1.67-1.1.47-2.16.99-3.21,1.56-.7.38-1.59.75-1.95,1.52-1.74,3.68,6.63,3.32,8.14,3.26,4.63-.17,9.14-1.26,13.36-3.14l-1.1-.85c-.64,2.22-1.29,4.45-1.93,6.67-.59,2.02-1.31,4.05-1.72,6.12-.32,1.63-.32,3.36.7,4.75.8,1.09,2.14,1.85,3.52,1.55,2.72-.6,3.01-3.98,2.78-6.23-.44-4.39-1.15-8.76-1.72-13.14l-1.28.53c3.65,3.26,7.24,6.6,10.96,9.77,1.29,1.1,2.78,2.13,4.55,2.07,1.47-.05,2.91-.88,3.34-2.36,1-3.44-3.06-6.13-5.59-7.42-3.6-1.83-7.63-2.66-11.66-2.44-.96.05-.97,1.55,0,1.5,3.24-.18,6.47.33,9.48,1.58,2.23.93,6.62,2.98,6.4,5.98-.15,2.09-2.77,1.8-4.04,1.06-1.43-.82-2.63-2.12-3.85-3.21-2.84-2.53-5.68-5.07-8.52-7.6-.43-.38-1.37-.17-1.28.53.44,3.37.89,6.75,1.33,10.12.26,1.96,1.3,5.73-.42,7.36-1.3,1.24-2.95-.3-3.29-1.64-.42-1.69.33-3.55.79-5.16.97-3.34,1.93-6.67,2.9-10.01.2-.68-.54-1.1-1.1-.85-3.28,1.46-6.8,2.42-10.38,2.78-1.71.17-3.42.22-5.14.14-.84-.04-1.74-.05-2.56-.23-.25-.05-.86-.18-1.02-.4-.49-.67.31-.92.67-1.12,5.51-3.04,13.38-5.54,18.4-.21l.91-1.18c-2.61-1.67-4.37-4.21-5.67-6.99-.64-1.37-1.16-2.79-1.65-4.22-.31-.92-1.68-3.81-.7-4.43.75-.48,1.54.69,2.02,1.24.59.68,1.14,1.39,1.66,2.13.95,1.35,1.79,2.78,2.5,4.28s1.34,3.19,1.79,4.85c.25.93,1.35,3.91.14,4.46l1.1.85c.88-2.54,2.03-4.98,3.46-7.25.75-1.2,1.58-2.36,2.48-3.45.79-.96,1.77-2.26,3.06-2.55,1.85-.42,1.65,1.63,1.13,2.7-.56,1.17-1.51,2.16-2.38,3.1-1.93,2.08-4.11,3.87-6.49,5.4-.81.52-.06,1.82.76,1.3h0Z"/><path class="cls-1" d="m309.6,272.52c3.1-1.98,5.9-4.41,8.22-7.27,1.37-1.69,3.14-5.24.31-6.55s-5.55,2.56-6.95,4.47c-2.17,2.96-3.85,6.24-5.04,9.71-.23.68.56,1.09,1.1.85,1.1-.5,1.33-1.74,1.23-2.84-.15-1.71-.68-3.47-1.23-5.09-1.11-3.26-2.76-6.31-4.88-9.02-.87-1.11-1.93-2.68-3.41-3-1.27-.28-2.26.61-2.42,1.84-.18,1.4.49,2.86.91,4.16.49,1.5,1.03,2.98,1.67,4.43,1.44,3.27,3.47,6.25,6.52,8.21.74.47,1.48-.57.91-1.18-2.73-2.9-6.84-3.93-10.71-3.47-2.05.25-4.01.86-5.91,1.67-1.1.47-2.16.99-3.21,1.56-.7.38-1.59.75-1.95,1.52-1.74,3.68,6.63,3.32,8.14,3.26,4.63-.17,9.14-1.26,13.36-3.14l-1.1-.85c-.64,2.22-1.29,4.45-1.93,6.67-.59,2.02-1.31,4.05-1.72,6.12-.32,1.63-.32,3.36.7,4.75.8,1.09,2.14,1.85,3.52,1.55,2.72-.6,3.01-3.98,2.78-6.23-.44-4.39-1.15-8.76-1.72-13.14l-1.28.53c3.65,3.26,7.24,6.6,10.96,9.77,1.29,1.1,2.78,2.13,4.55,2.07,1.47-.05,2.91-.88,3.34-2.36,1-3.44-3.06-6.13-5.59-7.42-3.6-1.83-7.63-2.66-11.66-2.44-.96.05-.97,1.55,0,1.5,3.24-.18,6.47.33,9.48,1.58,2.23.93,6.62,2.98,6.4,5.98-.15,2.09-2.77,1.8-4.04,1.06-1.43-.82-2.63-2.12-3.85-3.21-2.84-2.53-5.68-5.07-8.52-7.6-.43-.38-1.37-.17-1.28.53.44,3.37.89,6.75,1.33,10.12.26,1.96,1.3,5.73-.42,7.36-1.3,1.24-2.95-.3-3.29-1.64-.42-1.69.33-3.55.79-5.16.97-3.34,1.93-6.67,2.9-10.01.2-.68-.54-1.1-1.1-.85-3.28,1.46-6.8,2.42-10.38,2.78-1.71.17-3.42.22-5.14.14-.84-.04-1.74-.05-2.56-.23-.25-.05-.86-.18-1.02-.4-.49-.67.31-.92.67-1.12,5.51-3.04,13.38-5.54,18.4-.21l.91-1.18c-2.61-1.67-4.37-4.21-5.67-6.99-.64-1.37-1.16-2.79-1.65-4.22-.31-.92-1.68-3.81-.7-4.43.75-.48,1.54.69,2.02,1.24.59.68,1.14,1.39,1.66,2.13.95,1.35,1.79,2.78,2.5,4.28s1.34,3.19,1.79,4.85c.25.93,1.35,3.91.14,4.46l1.1.85c.88-2.54,2.03-4.98,3.46-7.25.75-1.2,1.58-2.36,2.48-3.45.79-.96,1.77-2.26,3.06-2.55,1.85-.42,1.65,1.63,1.13,2.7-.56,1.17-1.51,2.16-2.38,3.1-1.93,2.08-4.11,3.87-6.49,5.4-.81.52-.06,1.82.76,1.3h0Z"/><path class="cls-1" d="m177.76,200.37c3.1-1.98,5.9-4.41,8.22-7.27,1.37-1.69,3.14-5.24.31-6.55s-5.55,2.56-6.95,4.47c-2.17,2.96-3.85,6.24-5.04,9.71-.23.68.56,1.09,1.1.85,1.1-.5,1.33-1.74,1.23-2.84-.15-1.71-.68-3.47-1.23-5.09-1.11-3.26-2.76-6.31-4.88-9.02-.87-1.11-1.93-2.68-3.41-3-1.27-.28-2.26.61-2.42,1.84-.18,1.4.49,2.86.91,4.16.49,1.5,1.03,2.98,1.67,4.43,1.44,3.27,3.47,6.25,6.52,8.21.74.47,1.48-.57.91-1.18-2.73-2.9-6.84-3.93-10.71-3.47-2.05.25-4.01.86-5.91,1.67-1.1.47-2.16.99-3.21,1.56-.7.38-1.59.75-1.95,1.52-1.74,3.68,6.63,3.32,8.14,3.26,4.63-.17,9.14-1.26,13.36-3.14l-1.1-.85c-.64,2.22-1.29,4.45-1.93,6.67-.59,2.02-1.31,4.05-1.72,6.12-.32,1.63-.32,3.36.7,4.75.8,1.09,2.14,1.85,3.52,1.55,2.72-.6,3.01-3.98,2.78-6.23-.44-4.39-1.15-8.76-1.72-13.14l-1.28.53c3.65,3.26,7.24,6.6,10.96,9.77,1.29,1.1,2.78,2.13,4.55,2.07,1.47-.05,2.91-.88,3.34-2.36,1-3.44-3.06-6.13-5.59-7.42-3.6-1.83-7.63-2.66-11.66-2.44-.96.05-.97,1.55,0,1.5,3.24-.18,6.47.33,9.48,1.58,2.23.93,6.62,2.98,6.4,5.98-.15,2.09-2.77,1.8-4.04,1.06-1.43-.82-2.63-2.12-3.85-3.21-2.84-2.53-5.68-5.07-8.52-7.6-.43-.38-1.37-.17-1.28.53.44,3.37.89,6.75,1.33,10.12.26,1.96,1.3,5.73-.42,7.36-1.3,1.24-2.95-.3-3.29-1.64-.42-1.69.33-3.55.79-5.16.97-3.34,1.93-6.67,2.9-10.01.2-.68-.54-1.1-1.1-.85-3.28,1.46-6.8,2.42-10.38,2.78-1.71.17-3.42.22-5.14.14-.84-.04-1.74-.05-2.56-.23-.25-.05-.86-.18-1.02-.4-.49-.67.31-.92.67-1.12,5.51-3.04,13.38-5.54,18.4-.21l.91-1.18c-2.61-1.67-4.37-4.21-5.67-6.99-.64-1.37-1.16-2.79-1.65-4.22-.31-.92-1.68-3.81-.7-4.43.75-.48,1.54.69,2.02,1.24.59.68,1.14,1.39,1.66,2.13.95,1.35,1.79,2.78,2.5,4.28s1.34,3.19,1.79,4.85c.25.93,1.35,3.91.14,4.46l1.1.85c.88-2.54,2.03-4.98,3.46-7.25.75-1.2,1.58-2.36,2.48-3.45.79-.96,1.77-2.26,3.06-2.55,1.85-.42,1.65,1.63,1.13,2.7-.56,1.17-1.51,2.16-2.38,3.1-1.93,2.08-4.11,3.87-6.49,5.4-.81.52-.06,1.82.76,1.3h0Z"/><path class="cls-1" d="m355.31,400.32c3.1-1.98,5.9-4.41,8.22-7.27,1.37-1.69,3.14-5.24.31-6.55s-5.55,2.56-6.95,4.47c-2.17,2.96-3.85,6.24-5.04,9.71-.23.68.56,1.09,1.1.85,1.1-.5,1.33-1.74,1.23-2.84-.15-1.71-.68-3.47-1.23-5.09-1.11-3.26-2.76-6.31-4.88-9.02-.87-1.11-1.93-2.68-3.41-3-1.27-.28-2.26.61-2.42,1.84-.18,1.4.49,2.86.91,4.16.49,1.5,1.03,2.98,1.67,4.43,1.44,3.27,3.47,6.25,6.52,8.21.74.47,1.48-.57.91-1.18-2.73-2.9-6.84-3.93-10.71-3.47-2.05.25-4.01.86-5.91,1.67-1.1.47-2.16.99-3.21,1.56-.7.38-1.59.75-1.95,1.52-1.74,3.68,6.63,3.32,8.14,3.26,4.63-.17,9.14-1.26,13.36-3.14l-1.1-.85c-.64,2.22-1.29,4.45-1.93,6.67-.59,2.02-1.31,4.05-1.72,6.12-.32,1.63-.32,3.36.7,4.75.8,1.09,2.14,1.85,3.52,1.55,2.72-.6,3.01-3.98,2.78-6.23-.44-4.39-1.15-8.76-1.72-13.14l-1.28.53c3.65,3.26,7.24,6.6,10.96,9.77,1.29,1.1,2.78,2.13,4.55,2.07,1.47-.05,2.91-.88,3.34-2.36,1-3.44-3.06-6.13-5.59-7.42-3.6-1.83-7.63-2.66-11.66-2.44-.96.05-.97,1.55,0,1.5,3.24-.18,6.47.33,9.48,1.58,2.23.93,6.62,2.98,6.4,5.98-.15,2.09-2.77,1.8-4.04,1.06-1.43-.82-2.63-2.12-3.85-3.21-2.84-2.53-5.68-5.07-8.52-7.6-.43-.38-1.37-.17-1.28.53.44,3.37.89,6.75,1.33,10.12.26,1.96,1.3,5.73-.42,7.36-1.3,1.24-2.95-.3-3.29-1.64-.42-1.69.33-3.55.79-5.16.97-3.34,1.93-6.67,2.9-10.01.2-.68-.54-1.1-1.1-.85-3.28,1.46-6.8,2.42-10.38,2.78-1.71.17-3.42.22-5.14.14-.84-.04-1.74-.05-2.56-.23-.25-.05-.86-.18-1.02-.4-.49-.67.31-.92.67-1.12,5.51-3.04,13.38-5.54,18.4-.21l.91-1.18c-2.61-1.67-4.37-4.21-5.67-6.99-.64-1.37-1.16-2.79-1.65-4.22-.31-.92-1.68-3.81-.7-4.43.75-.48,1.54.69,2.02,1.24.59.68,1.14,1.39,1.66,2.13.95,1.35,1.79,2.78,2.5,4.28s1.34,3.19,1.79,4.85c.25.93,1.35,3.91.14,4.46l1.1.85c.88-2.54,2.03-4.98,3.46-7.25.75-1.2,1.58-2.36,2.48-3.45.79-.96,1.77-2.26,3.06-2.55,1.85-.42,1.65,1.63,1.13,2.7-.56,1.17-1.51,2.16-2.38,3.1-1.93,2.08-4.11,3.87-6.49,5.4-.81.52-.06,1.82.76,1.3h0Z"/><path class="cls-1" d="m236.53,384.42c-5.5-2.99-10.51-6.82-14.8-11.38-4.68-4.98-8.15-10.81-11.53-16.71-.48-.84-1.78-.08-1.3.76,3.44,6.02,7,11.94,11.77,17.01,4.37,4.65,9.49,8.57,15.1,11.62.85.46,1.61-.83.76-1.3h0Z"/><path class="cls-1" d="m196.45,238.9c-6.15-4-10.54-10.04-13.8-16.52-1.84-3.66-3.34-7.47-4.75-11.31s-3.01-7.63-3.6-11.65c-.14-.95-1.59-.55-1.45.4.63,4.31,2.41,8.46,3.92,12.52,1.42,3.81,2.94,7.59,4.79,11.21,3.35,6.55,7.9,12.59,14.13,16.65.81.53,1.56-.77.76-1.3h0Z"/><path class="cls-1" d="m304.39,272.9c-2.18,3.48-5.3,6.2-8.02,9.23-2.51,2.8-4.83,5.77-6.94,8.87-4.35,6.41-7.78,13.41-10.22,20.76-.3.92,1.14,1.31,1.45.4,2.44-7.36,5.91-14.36,10.31-20.75,2.22-3.23,4.67-6.29,7.33-9.16s5.38-5.36,7.4-8.59c.51-.82-.78-1.57-1.3-.76h0Z"/><path class="cls-1" d="m350.2,400.91c-9.04,9.14-15.26,20.87-17.74,33.49-.19.94,1.26,1.35,1.45.4,2.43-12.38,8.49-23.85,17.36-32.83.68-.69-.38-1.75-1.06-1.06h0Z"/></svg>