<?xml version="1.0" encoding="UTF-8"?><svg id="Layer_3" xmlns="http://www.w3.org/2000/svg" width="492.59" height="642.52" viewBox="0 0 492.59 642.52"><defs><style>.cls-1{fill:#1b542e;stroke-width:0px;}</style></defs><path class="cls-1" d="m141.63,641.42c-17.47-26.48-28.27-57.14-31.63-88.66-3.33-31.22.97-62.29,11.71-91.73,10.52-28.84,25.6-55.68,38.26-83.57,12.13-26.72,22.24-55.04,22.38-84.73.16-33.53-12.79-65.31-28.14-94.53-1.96-3.74-3.97-7.45-6.01-11.14-.47-.85-1.76-.09-1.3.76,16.46,29.82,31.67,61.89,33.72,96.43,1.81,30.48-7.56,59.92-19.71,87.48-12.22,27.72-27.15,54.2-38.19,82.43-5.59,14.28-10.08,28.99-12.63,44.13s-3.31,30.8-2.3,46.24c2.02,30.74,10.99,61.06,26.42,87.75,1.94,3.36,3.99,6.66,6.13,9.9.53.8,1.83.05,1.3-.76h0Z"/><path class="cls-1" d="m175.81,339.03c10.05-15.18,22.41-28.78,36.56-40.23,15.15-12.26,32.38-21.87,50.5-28.98,10.45-4.1,21.23-7.35,32.2-9.75.94-.21.54-1.65-.4-1.45-19.75,4.31-38.91,11.43-56.63,21.18-16.44,9.05-31.46,20.59-44.34,34.25-7.08,7.5-13.5,15.62-19.2,24.23-.53.81.76,1.56,1.3.76h0Z"/><path class="cls-1" d="m117.5,475.69c4.39-8.13,4.95-17.58,5.08-26.63.12-9.19-.47-18.38-1.71-27.49-2.51-18.29-7.74-36.19-15.45-52.96-4.38-9.53-9.58-18.68-15.52-27.33-.54-.79-1.84-.04-1.3.76,10.3,15,18.33,31.5,23.82,48.85s8.45,35.46,8.66,53.65c.12,10.16.08,21.23-4.87,30.4-.46.85.84,1.61,1.3.76h0Z"/><path class="cls-1" d="m89.25,340.37c5.31-9.81,10.79-19.94,12.49-31.11s-.76-22.04-5-32.2c-4.32-10.35-10.18-20.28-16.7-29.38-3.3-4.61-6.94-8.95-11.05-12.85s-8.91-7.71-13.54-11.36c-11.17-8.79-22.33-17.58-33.5-26.37-.75-.59-1.82.46-1.06,1.06,9.61,7.56,19.22,15.13,28.83,22.69,9.11,7.17,18.46,14.15,25.76,23.26,3.53,4.4,6.63,9.13,9.57,13.93s5.63,9.52,8.03,14.5c4.77,9.91,8.24,20.78,7.67,31.9-.65,12.73-6.84,24.22-12.78,35.19-.46.85.83,1.61,1.3.76h0Z"/><path class="cls-1" d="m88.95,339.74c-10.36,3.35-21.85,2.55-31.77-1.88s-17.9-12.73-22.57-22.83-6.49-22.08-7.45-33.43c-1.14-13.48-1.74-27.02-2.56-40.52-.98-16.2-1.97-32.39-2.95-48.59-.06-.96-1.56-.97-1.5,0,.91,14.95,1.82,29.9,2.72,44.85.86,14.09,1.53,28.2,2.62,42.28.9,11.54,2.39,23.3,6.89,34.06,4.32,10.31,11.55,19.08,21.55,24.28,10.81,5.62,23.78,6.99,35.42,3.23.91-.3.52-1.74-.4-1.45h0Z"/><path class="cls-1" d="m148.08,185.77c4.31-13.79,7.31-28.05,8.14-42.49s-.51-28.61-5.23-42.05c-4.72-13.42-12.9-24.9-23.09-34.73s-22.15-18.32-33.25-27.44c-12.26-10.06-23.41-21.41-33.03-34.03-1.18-1.55-2.34-3.12-3.48-4.71-.56-.78-1.86-.03-1.3.76,9.16,12.73,19.75,24.4,31.59,34.69,10.77,9.36,22.51,17.55,33.21,27s19.99,20.17,25.72,33.3c5.69,13.02,7.79,27.35,7.57,41.49s-2.8,28.85-6.78,42.74c-.49,1.7-.99,3.39-1.52,5.07-.29.92,1.16,1.32,1.45.4h0Z"/><path class="cls-1" d="m295.91,257.62c5.32-14.74,13.83-28.3,24.83-39.46s23.82-19.42,38.93-22.49c13.7-2.78,27.86-1.35,41.51.93s27.52,5.6,41.46,7.24c13.25,1.56,26.97,1.51,39.66-3.07,1.58-.57,3.12-1.2,4.65-1.89.88-.4.12-1.69-.76-1.3-12.69,5.71-26.71,6.43-40.38,5.09s-28.24-4.77-42.34-7.21-27.57-3.99-41.31-1.78c-14.94,2.4-28.17,9.95-39.17,20.17-11.35,10.55-20.39,23.58-26.4,37.86-.76,1.81-1.47,3.64-2.14,5.49-.33.91,1.12,1.3,1.45.4h0Z"/><path class="cls-1" d="m291.29,260.27c12.52,13.25,27,24.65,42.85,33.66s34.17,16.75,52.59,12.64c14.57-3.25,26.19-13.35,35.52-24.53,10.42-12.49,18.65-26.6,28.14-39.78,10.95-15.19,23.11-29.55,36.85-42.29,1.68-1.56,3.39-3.09,5.11-4.6.73-.64-.34-1.69-1.06-1.06-13.76,12.03-26,25.69-37.04,40.23-9.94,13.1-18.36,27.26-28.26,40.38-8.77,11.63-19.37,23.06-33.31,28.31-17.6,6.62-36.07.86-52.02-7.45-16-8.33-30.73-19.08-43.58-31.73-1.61-1.58-3.18-3.19-4.73-4.83-.66-.7-1.72.36-1.06,1.06h0Z"/><path class="cls-1" d="m145.49,184.23c-14.62,3.42-30.52,2.28-44.12-4.29-12.9-6.23-22.49-17.23-28.53-30.08s-8.74-27.88-9.01-42.4c-.33-17.95,2.44-35.74,4.46-53.53.89-7.82,1.86-15.74,1.56-23.63-.26-6.82-1.53-13.86-5.23-19.72-.87-1.38-1.88-2.66-2.98-3.87-.65-.71-1.71.35-1.06,1.06,10.43,11.37,8.07,28.96,6.56,42.99-1.95,18.04-4.89,36.06-4.84,54.25.04,14.75,2.28,29.57,8.15,43.18,5.54,12.84,14.5,24.28,26.77,31.25,12.96,7.36,28.46,9.55,43.09,7.31,1.87-.29,3.73-.65,5.57-1.09.94-.22.54-1.67-.4-1.45h0Z"/><path class="cls-1" d="m90.98,338.96c.26-10.03-1.09-20.08-4.03-29.68s-7.57-18.41-12.51-27.05c-10.63-18.58-21.52-37.02-32.28-55.53-6.11-10.5-12.22-21-18.32-31.5-.49-.83-1.78-.08-1.3.76,10.71,18.41,21.42,36.82,32.13,55.24,5.34,9.18,10.68,18.36,16.02,27.54,5.05,8.69,10.07,17.48,13.48,26.96,3.83,10.65,5.6,21.96,5.31,33.26-.03.97,1.47.97,1.5,0h0Z"/><path class="cls-1" d="m88.27,312.45c7.74-11.51,10.14-26.22,6.5-39.59-.25-.93-1.7-.54-1.45.4,3.54,13.01,1.17,27.25-6.35,38.44-.54.8.76,1.55,1.3.76h0Z"/><path class="cls-1" d="m75.39,287.87c9.53-14.2,5.86-32.54,2.29-48.07-.22-.94-1.66-.54-1.45.4,3.48,15.14,7.16,33.06-2.14,46.91-.54.8.76,1.56,1.3.76h0Z"/><path class="cls-1" d="m64.5,260.74c2.53-12-.29-24.84-7.69-34.63-.58-.76-1.88-.01-1.3.76,7.16,9.47,9.99,21.85,7.54,33.48-.2.94,1.25,1.34,1.45.4h0Z"/><path class="cls-1" d="m59.92,260.79c-14.23-4.3-26.95-12.89-36.29-24.45-.61-.75-1.66.32-1.06,1.06,9.5,11.75,22.49,20.47,36.95,24.84.93.28,1.32-1.17.4-1.45h0Z"/><path class="cls-1" d="m75.35,282.37c-16.92-1.82-33.51-6.37-48.99-13.43-.87-.4-1.64.89-.76,1.3,15.74,7.18,32.55,11.79,49.75,13.64.96.1.95-1.4,0-1.5h0Z"/><path class="cls-1" d="m86.18,307.18c-18.8,4.56-38.72,3.65-57.04-2.58-.92-.31-1.31,1.14-.4,1.45,14.48,4.93,30.03,6.6,45.22,4.83,4.25-.49,8.46-1.25,12.61-2.26.94-.23.54-1.67-.4-1.45h0Z"/><path class="cls-1" d="m146.84,182.56c-5.8-22.93-13.62-45.34-23.35-66.9s-21.43-42.41-34.85-61.98c-7.49-10.93-16.4-21.41-20.7-34.13-.31-.91-1.76-.52-1.45.4,3.78,11.2,11.08,20.59,17.82,30.13s13.17,19.57,19.09,29.77c11.96,20.6,22.08,42.26,30.2,64.65,4.57,12.61,8.51,25.45,11.79,38.46.24.94,1.68.54,1.45-.4h0Z"/><path class="cls-1" d="m139.96,156.51c7.88-18.41,7.14-38.81,4.55-58.26-.74-5.54-1.63-11.05-2.54-16.56-.16-.95-1.6-.55-1.45.4,3.14,19.01,6.32,38.75,2.82,57.94-.99,5.39-2.52,10.69-4.68,15.73-.38.88.92,1.64,1.3.76h0Z"/><path class="cls-1" d="m123.11,116.05c8.39-12.94,10.35-29.62,5.68-44.28-1.32-4.14-3.16-8.1-5.5-11.76-.52-.81-1.82-.06-1.3.76,8.07,12.63,9.87,28.75,5.31,42.97-1.31,4.08-3.16,7.95-5.49,11.55-.53.81.77,1.57,1.3.76h0Z"/><path class="cls-1" d="m108.36,80.56c2.04-13.02-1.82-26.56-10.45-36.53-.63-.73-1.69.33-1.06,1.06,8.25,9.53,12.02,22.62,10.06,35.07-.15.94,1.3,1.35,1.45.4h0Z"/><path class="cls-1" d="m104.97,77.79c-13.48-1.7-26.45-6.61-37.71-14.21-.8-.54-1.55.76-.76,1.3,11.49,7.76,24.71,12.69,38.46,14.42.96.12.95-1.38,0-1.5h0Z"/><path class="cls-1" d="m121.27,112.15c-14.43-2.64-29.78-2.04-43.54-7.68-3.91-1.6-7.57-3.79-10.75-6.57-.72-.63-1.79.42-1.06,1.06,11.53,10.05,27.34,11.25,41.87,12.84,4.38.48,8.75,1,13.08,1.79.94.17,1.35-1.27.4-1.45h0Z"/><path class="cls-1" d="m138.09,155.68c-18.41,3.23-37.78.43-54.6-7.72-4.71-2.29-9.21-4.99-13.45-8.07-.78-.57-1.53.73-.76,1.3,15.4,11.19,34.35,17.25,53.38,17.31,5.31.02,10.6-.45,15.83-1.37.95-.17.55-1.61-.4-1.45h0Z"/><path class="cls-1" d="m297.05,262.57c5.64-10.44,16.74-16.17,27.34-20.41,12.94-5.17,26.36-9.17,40.01-11.97,13.04-2.68,26.23-3.98,39.49-4.99,12.11-.93,24.26-1.78,36.22-3.99,13.19-2.44,26.12-6.75,37.19-14.49.79-.55.04-1.85-.76-1.3-20.56,14.37-46.34,16.27-70.58,18.11-12.98.99-25.92,2.11-38.72,4.56-13.9,2.66-27.57,6.56-40.78,11.64-11.78,4.54-24.43,10.44-30.7,22.06-.46.85.84,1.61,1.3.76h0Z"/><path class="cls-1" d="m325.87,242.82c4.17-13.21,8.95-27.53,19.26-37.32,2.83-2.69,6.05-4.88,9.59-6.52.88-.41.11-1.7-.76-1.3-13.31,6.16-20.55,19.71-25.5,32.83-1.48,3.92-2.79,7.91-4.05,11.9-.29.92,1.16,1.32,1.45.4h0Z"/><path class="cls-1" d="m371.56,231.67c2.94-12.69,11.06-23.95,22.04-30.94,3.14-2,6.49-3.63,10-4.86.91-.32.52-1.77-.4-1.45-12.72,4.45-23.39,14.08-29.3,26.17-1.66,3.4-2.94,6.98-3.79,10.67-.22.94,1.23,1.34,1.45.4h0Z"/><path class="cls-1" d="m409.99,223.25c5.57-10.59,15.24-18.75,26.64-22.41.92-.29.52-1.74-.4-1.45-11.76,3.77-21.79,12.16-27.54,23.09-.45.85.85,1.61,1.3.76h0Z"/><path class="cls-1" d="m410.71,224.82c12.48,9.15,27.94,13.91,43.41,13.39.96-.03.97-1.53,0-1.5-15.23.51-30.36-4.18-42.65-13.19-.78-.57-1.53.73-.76,1.3h0Z"/><path class="cls-1" d="m371.56,228.51c15.09,13.16,31.33,26.4,50.73,32.48,5.35,1.68,10.88,2.72,16.47,3.07.96.06.96-1.44,0-1.5-20.11-1.23-37.84-12.11-53.26-24.31-4.39-3.48-8.66-7.11-12.89-10.79-.72-.63-1.79.42-1.06,1.06h0Z"/><path class="cls-1" d="m327.17,242.88c10.86,9.1,21.62,18.33,32.65,27.23,5.24,4.22,10.58,8.33,16.15,12.11s10.83,7.04,16.82,9.44c6.45,2.58,13.54,3.8,20.33,1.84.93-.27.53-1.72-.4-1.45-12.57,3.64-25.15-3.85-35.22-10.6-10.96-7.35-21.02-15.95-31.12-24.42-6.05-5.07-12.1-10.13-18.15-15.2-.74-.62-1.8.44-1.06,1.06h0Z"/><path class="cls-1" d="m174.84,242.01c1.92-8.83,2.63-18.23,6.67-26.44,3.29-6.66,9.12-12.85,16.82-13.85.94-.12.96-1.62,0-1.5-6.02.78-11.05,4.36-14.7,9.1-4.32,5.61-6.35,12.43-7.75,19.27-.88,4.33-1.56,8.7-2.49,13.01-.2.94,1.24,1.34,1.45.4h0Z"/><path class="cls-1" d="m197.79,201.26c11.07,2.41,21.56,13.99,33.55,8.69,4.64-2.05,7.98-6.16,10.84-10.21,3.1-4.39,5.98-8.94,9.55-12.97,3.91-4.4,8.59-8.15,14.4-9.59.94-.23.54-1.68-.4-1.45-9.99,2.49-16.54,11.14-22.08,19.21-2.96,4.31-5.84,9.03-10.2,12.09-5.21,3.65-11.28,3.12-16.96.85-6.21-2.49-11.68-6.62-18.31-8.06-.94-.21-1.34,1.24-.4,1.45h0Z"/><path class="cls-1" d="m200.45,200.7c2.58-4.73,4.22-9.88,6.21-14.87s4.27-9.68,8.26-13.14c4.72-4.09,11.03-5.18,17.09-5.15,6.81.03,13.66,1.07,20.37,2.12,8.02,1.25,15.98,2.9,23.85,4.91.94.24,1.33-1.21.4-1.45-7.4-1.89-14.87-3.46-22.4-4.68-6.85-1.11-13.82-2.17-20.77-2.38-6-.18-12.33.53-17.45,3.93-4.54,3.01-7.45,7.7-9.61,12.6-2.52,5.73-4.24,11.82-7.24,17.34-.46.85.83,1.61,1.3.76h0Z"/><path class="cls-1" d="m272.7,171.43c-10.19-.27-20.16,2.27-29.57,6.04s-18.51,8.56-27.36,13.52c-4.67,2.62-9.19,5.59-12.72,9.67-.63.73.43,1.79,1.06,1.06,3.12-3.61,7.03-6.33,11.14-8.71s8.57-4.69,12.9-6.93c8.84-4.56,17.96-8.8,27.66-11.21,5.53-1.38,11.19-2.1,16.9-1.94.97.03.96-1.47,0-1.5h0Z"/><path class="cls-1" d="m242.3,165.05c-2.97,5.91-5.35,12.09-7.11,18.46-.26.93,1.19,1.33,1.45.4,1.73-6.25,4.05-12.31,6.96-18.1.43-.86-.86-1.62-1.3-.76h0Z"/><path class="cls-1" d="m224.21,166.3c-4.45,7.22-6.21,15.79-5.06,24.19.13.95,1.58.55,1.45-.4-1.09-7.98.69-16.18,4.91-23.03.51-.82-.79-1.58-1.3-.76h0Z"/><path class="cls-1" d="m237.13,182.84c3.41,3.14,8.29,4.38,12.79,3.25.94-.24.54-1.68-.4-1.45-3.96,1-8.32-.09-11.33-2.86-.71-.65-1.77.41-1.06,1.06h0Z"/><path class="cls-1" d="m219.93,192.81c4.96,2.09,9.92,4.18,14.88,6.27,2.99,1.26,7.36,3.14,9.78-.09.58-.77-.72-1.52-1.3-.76-2.17,2.9-7.91-.52-10.25-1.51-4.24-1.79-8.48-3.58-12.73-5.37-.89-.37-1.28,1.08-.4,1.45h0Z"/><path class="cls-1" d="m109.6,381.06c-10.08-6.28-22.4-8.44-34.03-6.02-.94.2-.54,1.64.4,1.45,11.24-2.34,23.13-.19,32.87,5.87.82.51,1.58-.79.76-1.3h0Z"/><path class="cls-1" d="m77.32,372.89c-6.33-7.59-13.67-15.14-23.36-18.17-10.31-3.23-21.19-.64-31.49,1.24-6.11,1.11-12.3,2.03-18.53,1.56-.96-.07-.96,1.43,0,1.5,10.63.81,20.93-2.39,31.37-3.76,5.16-.68,10.45-.9,15.57.21s9.45,3.42,13.44,6.48c4.49,3.45,8.32,7.68,11.93,12.01.62.74,1.67-.32,1.06-1.06h0Z"/><path class="cls-1" d="m77.01,375.04c-4.02,3.65-6.09,8.78-9.25,13.08-1.56,2.12-3.5,4.08-6.01,5.03-3.53,1.34-7.51.54-11.08-.27-13.06-2.95-24.56-10.45-34.26-19.47-5.51-5.12-10.51-10.77-15.18-16.67-.6-.76-1.65.31-1.06,1.06,8.56,10.83,18.38,20.99,30.21,28.24,5.76,3.53,12,6.32,18.56,7.97,3.44.86,7.18,1.69,10.74,1.2,2.82-.39,5.3-1.8,7.28-3.81,4.46-4.54,6.37-10.99,11.12-15.3.72-.65-.35-1.71-1.06-1.06h0Z"/><path class="cls-1" d="m76.31,373.77c-18.69-5.2-38.74-.93-57.21-7.25-4.8-1.64-9.33-4.03-13.2-7.33-.73-.62-1.8.43-1.06,1.06,14.7,12.56,35.16,11.13,53.21,12.25,6.03.38,12.04,1.09,17.87,2.72.93.26,1.33-1.19.4-1.45h0Z"/><path class="cls-1" d="m62.41,371.67c-4.49,8.11-10.84,18.62-21.64,17.51-.96-.1-.95,1.4,0,1.5,11.36,1.16,18.2-9.7,22.94-18.26.47-.85-.83-1.6-1.3-.76h0Z"/><path class="cls-1" d="m42.52,372.22c-2.05,3.21-4.39,6.22-7.01,8.98-2.07,2.18-5.47,5.4-8.58,3.08-.77-.58-1.52.72-.76,1.3,3.29,2.45,7.19-.06,9.59-2.48,3.04-3.06,5.73-6.48,8.05-10.12.52-.82-.78-1.57-1.3-.76h0Z"/><path class="cls-1" d="m63.23,372.96c-.49-8.09-5.18-15.64-12.27-19.59-.84-.47-1.6.82-.76,1.3,6.61,3.69,11.07,10.73,11.53,18.3.06.96,1.56.97,1.5,0h0Z"/><path class="cls-1" d="m45.61,371.13c-3.17-7.13-8.3-13.26-14.72-17.69-.8-.55-1.55.75-.76,1.3,6.21,4.28,11.12,10.26,14.18,17.15.39.88,1.68.12,1.3-.76h0Z"/><path class="cls-1" d="m111.02,382.02c1.99-9.41,6.65-18.08,13.42-24.91.68-.69-.38-1.75-1.06-1.06-6.94,7-11.77,15.92-13.81,25.58-.2.94,1.25,1.34,1.45.4h0Z"/><path class="cls-1" d="m124.7,357.13c3.41,2.44,7.71,2.86,11.79,2.63s8.5-.92,12.2-2.96c7.34-4.04,9.72-12.67,11.1-20.34.95-5.26,1.69-10.65,4.1-15.49.43-.86-.87-1.62-1.3-.76-3.74,7.54-3.55,16.13-6.2,24-1.19,3.55-3,6.99-5.85,9.49-3.25,2.84-7.61,3.93-11.81,4.38-4.51.48-9.43.51-13.27-2.24-.79-.56-1.54.74-.76,1.3h0Z"/><path class="cls-1" d="m125.08,356.05c.72-8.77,1.62-18.73,7.79-25.59,3.44-3.82,8.18-6.07,12.85-8.03,4.93-2.07,9.97-3.69,15.21-4.78,4.41-.91,9.12-1.97,11.9-5.83.57-.78-.74-1.53-1.3-.76-2.65,3.68-7.57,4.43-11.71,5.29-5.37,1.11-10.52,2.92-15.55,5.07-4.49,1.92-8.99,4.18-12.33,7.83-2.98,3.25-4.87,7.3-6.05,11.51-1.4,4.97-1.89,10.15-2.31,15.27-.08.96,1.42.96,1.5,0h0Z"/><path class="cls-1" d="m125.49,357.59c12.02-14.78,25.41-28.41,39.98-40.68.74-.62-.33-1.68-1.06-1.06-14.57,12.27-27.96,25.9-39.98,40.68-.6.74.45,1.81,1.06,1.06h0Z"/><path class="cls-1" d="m130.5,351.55c10.14,2.01,20.87-.97,28.5-7.95.71-.65-.35-1.71-1.06-1.06-7.21,6.6-17.45,9.47-27.04,7.56-.94-.19-1.35,1.26-.4,1.45h0Z"/><path class="cls-1" d="m143.18,336.14c5.27,2.51,11.39,2.6,16.73.26.88-.39.12-1.68-.76-1.3-4.81,2.1-10.48,2-15.22-.26-.87-.41-1.63.88-.76,1.3h0Z"/><path class="cls-1" d="m144.75,334.89c-.5-4.05-.64-8.13-.43-12.21.05-.96-1.45-.96-1.5,0-.21,4.08-.06,8.16.43,12.21.12.95,1.62.96,1.5,0h0Z"/><path class="cls-1" d="m132.53,347.39c1.69-6.55,3.38-13.1,5.07-19.65.24-.94-1.2-1.33-1.45-.4-1.69,6.55-3.38,13.1-5.07,19.65-.24.94,1.2,1.33,1.45.4h0Z"/><path class="cls-1" d="m111.21,560.74c2.39-7.06,7.57-12.76,13.75-16.78,7.01-4.55,15.16-6.81,23.35-8.04,5.1-.77,10.26-1.13,15.41-1.45.96-.06.97-1.56,0-1.5-16.89,1.06-35.68,3.14-47.63,16.59-2.8,3.15-4.98,6.79-6.33,10.78-.31.92,1.14,1.31,1.45.4h0Z"/><path class="cls-1" d="m165.76,534.15c-.26-5.57,4.76-9.24,9.27-11.42,5.68-2.75,12.24-4.5,18.55-4.7,12.36-.4,24.03,4.72,35.57,8.45,6.48,2.09,13.11,3.84,19.94,4.21.96.05.96-1.45,0-1.5-13.15-.73-25.21-6.59-37.73-10.1-5.97-1.67-12.16-2.83-18.38-2.54-6.38.3-12.95,2.1-18.7,4.88-4.99,2.42-10.29,6.6-10.01,12.71.04.96,1.54.97,1.5,0h0Z"/><path class="cls-1" d="m163.4,533.83c.94,3.5,2.06,6.94,3.37,10.32,1.04,2.67,2.13,5.36,3.65,7.79,1.34,2.14,3.06,4.13,5.3,5.37,2.55,1.41,5.46,1.62,8.28,1.13,3.18-.56,6.16-1.95,9.07-3.3,3.38-1.58,6.75-3.15,10.13-4.73,6.68-3.12,13.36-6.23,20.03-9.35,7.5-3.5,15.01-7,22.51-10.51.87-.41.11-1.7-.76-1.3-12.61,5.88-25.21,11.77-37.82,17.65-6.11,2.85-12.17,5.99-18.43,8.52-2.95,1.2-6.26,2.21-9.47,1.59-2.81-.54-5.08-2.34-6.74-4.62-1.82-2.49-3.03-5.37-4.16-8.22-1.39-3.52-2.56-7.11-3.54-10.76-.25-.93-1.7-.54-1.45.4h0Z"/><path class="cls-1" d="m165.18,537.85c4.47.84,8.96.46,13.45,0,4.79-.48,9.58-.97,14.38-1.45,9.58-.97,19.17-1.94,28.75-2.91,5.45-.55,10.91-1.1,16.36-1.65.95-.1.96-1.6,0-1.5-18.92,1.91-37.84,3.83-56.76,5.74-5.22.53-10.56,1.31-15.78.33-.94-.18-1.35,1.27-.4,1.45h0Z"/><path class="cls-1" d="m215.73,521.36c-3.06,4.07-7.13,7.32-11.73,9.48-.87.41-.11,1.7.76,1.3,4.85-2.28,9.05-5.74,12.27-10.02.58-.77-.72-1.52-1.3-.76h0Z"/><path class="cls-1" d="m194.24,518.41c-2.29,5.77-5.39,11.18-9.18,16.09-.59.76.71,1.51,1.3.76,3.87-5.02,6.99-10.56,9.33-16.45.36-.9-1.09-1.29-1.45-.4h0Z"/><path class="cls-1" d="m213.75,542.85c-3.18-.81-6.01-2.64-8.1-5.17-.52-.63-.98-1.32-1.39-2.03s-.65-1.44-1.04-2.12-1.06-1.18-1.85-.94-1.17,1.05-.81,1.8c.41.87,1.7.11,1.3-.76.11.27.08.4-.07.39-.09,0-.07.03.06.11.07.16.17.31.25.48.14.3.26.61.41.91.29.6.63,1.19,1,1.74.76,1.15,1.66,2.2,2.67,3.13,2.04,1.86,4.51,3.22,7.18,3.9.94.24,1.34-1.21.4-1.45h0Z"/><path class="cls-1" d="m196.53,552.71c-6.05-3.51-7.95-10.95-9.45-17.28-.22-.94-1.67-.54-1.45.4,1.6,6.74,3.73,14.45,10.14,18.18.84.49,1.59-.81.76-1.3h0Z"/><path class="cls-1" d="m157.57,386.83c1.45-4.11,6.74-5.63,10.44-6.91,4.43-1.53,8.98-2.67,13.61-3.42,9.39-1.52,19.09-1.39,28.44.38,5.18.98,10.25,2.47,15.15,4.43.9.36,1.29-1.09.4-1.45-18.48-7.4-39.62-7.87-58.4-1.24-4.19,1.48-9.45,3.2-11.07,7.81-.32.91,1.13,1.3,1.45.4h0Z"/><path class="cls-1" d="m226.6,381.32c5.31-3.05,11.66-2.87,17.58-2.38,5.29.44,10.74,1.34,15.57,3.66,4.74,2.27,8.41,5.92,10.32,10.85s2.27,9.78,3.04,14.71c.85,5.43,2.15,10.88,5.82,15.14.63.73,1.69-.33,1.06-1.06-7.11-8.24-4.76-20.46-8.81-30.01-4.38-10.3-15.45-13.64-25.72-14.66-6.56-.66-13.71-.94-19.62,2.46-.84.48-.08,1.78.76,1.3h0Z"/><path class="cls-1" d="m282.14,422.31c-5.97-.25-11.94-.5-17.89-.98-5.49-.44-11.24-.78-16.49-2.55s-9.26-5.56-12.52-9.86c-2.92-3.86-5.17-8.24-6.54-12.89-1.57-5.31-1.97-10.94-.94-16.39.18-.94-1.27-1.35-1.45-.4-1.89,10.02.77,20.45,6.48,28.82,2.93,4.3,6.71,8.5,11.42,10.86,5.04,2.53,10.85,3.05,16.38,3.59,7.17.7,14.36,1,21.56,1.3.97.04.96-1.46,0-1.5h0Z"/><path class="cls-1" d="m227.2,382.1c7.99,2.83,16.24,5.74,22.95,11.1s11.13,12.93,17.14,18.97c3.42,3.43,7.2,6.49,11.24,9.17.81.53,1.56-.76.76-1.3-3.75-2.48-7.26-5.31-10.46-8.46s-5.78-6.42-8.49-9.79-5.55-6.76-8.95-9.51c-3.19-2.58-6.74-4.65-10.45-6.38-4.32-2.03-8.83-3.64-13.32-5.23-.91-.32-1.3,1.13-.4,1.45h0Z"/><path class="cls-1" d="m244.59,388.74c7.18-2.03,14.72-2.45,22.07-1.18.94.16,1.35-1.28.4-1.45-7.62-1.32-15.42-.93-22.87,1.18-.93.26-.53,1.71.4,1.45h0Z"/><path class="cls-1" d="m261.89,403.44c4.44,0,8.87,0,13.31,0,.97,0,.97-1.5,0-1.5-4.44,0-8.87,0-13.31,0-.97,0-.97,1.5,0,1.5h0Z"/><path class="cls-1" d="m260.93,404.2c-4.32,4.17-5.54,10.88-3.11,16.34.39.88,1.69.12,1.3-.76-2.16-4.84-.92-10.85,2.87-14.52.7-.67-.37-1.73-1.06-1.06h0Z"/><path class="cls-1" d="m242.79,389.84c-3.11,4.64-4.97,10.03-5.41,15.6-.2,2.52-.36,5.61.47,8.04.59,1.71,2.9,2.9,4.09,1.01.51-.82-.78-1.57-1.3-.76s-1.28-.43-1.4-.82c-.17-.53-.22-1.1-.28-1.65-.1-.93-.16-1.87-.18-2.81-.04-2.15.15-4.3.56-6.4.8-4.11,2.41-7.98,4.74-11.46.54-.8-.76-1.56-1.3-.76h0Z"/><path class="cls-1" d="m170.09,467.18c2.52-2.68,4.75-5.64,6.58-8.84,1.45-2.54,3.3-5.61,2.89-8.67-.36-2.63-2.99-3.99-5.3-2.57-2.85,1.75-4.15,5.77-5.26,8.73-1.58,4.24-2.53,8.68-2.9,13.19-.04.53.69.98,1.13.65,1.4-1.06,1.25-2.75.66-4.26-.82-2.07-1.94-4.05-3.15-5.92-2.44-3.78-5.51-7.17-9.05-9.96-1.48-1.17-3.28-2.82-5.24-3.05-1.73-.2-2.99,1.09-2.83,2.8.18,1.93,1.67,3.74,2.67,5.33,1.16,1.83,2.38,3.62,3.73,5.31,2.92,3.7,6.52,6.86,11.06,8.35.83.27,1.27-.92.58-1.37-7.8-5.03-17.16-1.04-23.6,4.26-.88.73-1.74,1.49-2.58,2.26-.66.61-1.45,1.24-1.69,2.14-.39,1.47.82,2.48,2.13,2.8,1.79.43,3.81-.11,5.57-.47,2.37-.49,4.69-1.15,6.96-1.99,4.8-1.78,9.25-4.32,13.27-7.49l-1.28-.53c-.15,4.61-.31,9.22-.46,13.83-.12,3.43-.59,7.78,2.46,10.16,2.19,1.7,5.49,1.45,6.65-1.31s-.19-6.12-1.25-8.79c-1.96-4.93-3.93-9.85-5.89-14.78l-1.1.85c4.42,2.3,8.83,4.6,13.25,6.9,3.23,1.68,7.35,4.73,11.19,3.42,3.23-1.1,4.01-4.57,1.97-7.16-2.37-3.03-6.57-4.13-10.19-4.72-4.8-.79-9.7-.43-14.34,1.03-.92.29-.53,1.74.4,1.45,4.51-1.42,9.31-1.79,13.97-.95,2.11.38,4.37.91,6.27,1.94,1.63.88,3.85,2.58,3.56,4.69-.32,2.39-3.18,2.81-5.09,2.34-2.31-.58-4.47-2-6.56-3.09-4.56-2.38-9.13-4.75-13.69-7.13-.52-.27-1.36.19-1.1.85,1.81,4.55,3.62,9.09,5.44,13.64.71,1.79,1.54,3.57,1.91,5.47.27,1.43.41,3.43-.85,4.46-1.68,1.38-3.98-.08-4.83-1.69-1.08-2.06-.8-4.61-.73-6.84.16-4.85.33-9.7.49-14.56.02-.71-.81-.9-1.28-.53-5.99,4.73-13.11,7.94-20.61,9.3-.97.18-4.06,1.02-4.73-.27-.53-1.02,3.08-3.56,3.8-4.16,2.92-2.41,6.22-4.52,9.91-5.51,3.99-1.07,8.34-.79,11.87,1.48l.58-1.37c-6.62-2.17-10.87-8.13-14.4-13.78-.66-1.06-2.44-3.13-1.94-4.49.7-1.89,4.22,1.07,5.01,1.66,2.9,2.2,5.51,4.83,7.7,7.74,1.15,1.54,2.19,3.16,3.11,4.85.56,1.03,2.87,4.52,1.5,5.56l1.13.65c.34-4.15,1.21-8.24,2.62-12.16.69-1.92,1.49-3.82,2.45-5.63.73-1.38,2.32-3.83,4.21-3.12,1.52.57,1.35,2.62,1.05,3.89-.38,1.64-1.23,3.17-2.03,4.64-1.87,3.45-4.18,6.61-6.87,9.47-.66.7.4,1.77,1.06,1.06h0Z"/><path class="cls-1" d="m256.76,326.82c2.52-2.68,4.75-5.64,6.58-8.84,1.45-2.54,3.3-5.61,2.89-8.67-.36-2.63-2.99-3.99-5.3-2.57-2.85,1.75-4.15,5.77-5.26,8.73-1.58,4.24-2.53,8.68-2.9,13.19-.04.53.69.98,1.13.65,1.4-1.06,1.25-2.75.66-4.26-.82-2.07-1.94-4.05-3.15-5.92-2.44-3.78-5.51-7.17-9.05-9.96-1.48-1.17-3.28-2.82-5.24-3.05-1.73-.2-2.99,1.09-2.83,2.8.18,1.93,1.67,3.74,2.67,5.33,1.16,1.83,2.38,3.62,3.73,5.31,2.92,3.7,6.52,6.86,11.06,8.35.83.27,1.27-.92.58-1.37-7.8-5.03-17.16-1.04-23.6,4.26-.88.73-1.74,1.49-2.58,2.26-.66.61-1.45,1.24-1.69,2.14-.39,1.47.82,2.48,2.13,2.8,1.79.43,3.81-.11,5.57-.47,2.37-.49,4.69-1.15,6.96-1.99,4.8-1.78,9.25-4.32,13.27-7.49l-1.28-.53c-.15,4.61-.31,9.22-.46,13.83-.12,3.43-.59,7.78,2.46,10.16,2.19,1.7,5.49,1.45,6.65-1.31s-.19-6.12-1.25-8.79c-1.96-4.93-3.93-9.85-5.89-14.78l-1.1.85c4.42,2.3,8.83,4.6,13.25,6.9,3.23,1.68,7.35,4.73,11.19,3.42,3.23-1.1,4.01-4.57,1.97-7.16-2.37-3.03-6.57-4.13-10.19-4.72-4.8-.79-9.7-.43-14.34,1.03-.92.29-.53,1.74.4,1.45,4.51-1.42,9.31-1.79,13.97-.95,2.11.38,4.37.91,6.27,1.94,1.63.88,3.85,2.58,3.56,4.69-.32,2.39-3.18,2.81-5.09,2.34-2.31-.58-4.47-2-6.56-3.09-4.56-2.38-9.13-4.75-13.69-7.13-.52-.27-1.36.19-1.1.85,1.81,4.55,3.62,9.09,5.44,13.64.71,1.79,1.54,3.57,1.91,5.47.27,1.43.41,3.43-.85,4.46-1.68,1.38-3.98-.08-4.83-1.69-1.08-2.06-.8-4.61-.73-6.84.16-4.85.33-9.7.49-14.56.02-.71-.81-.9-1.28-.53-5.99,4.73-13.11,7.94-20.61,9.3-.97.18-4.06,1.02-4.73-.27-.53-1.02,3.08-3.56,3.8-4.16,2.92-2.41,6.22-4.52,9.91-5.51,3.99-1.07,8.34-.79,11.87,1.48l.58-1.37c-6.62-2.17-10.87-8.13-14.4-13.78-.66-1.06-2.44-3.13-1.94-4.49.7-1.89,4.22,1.07,5.01,1.66,2.9,2.2,5.51,4.83,7.7,7.74,1.15,1.54,2.19,3.16,3.11,4.85.56,1.03,2.87,4.52,1.5,5.56l1.13.65c.34-4.15,1.21-8.24,2.62-12.16.69-1.92,1.49-3.82,2.45-5.63.73-1.38,2.32-3.83,4.21-3.12,1.52.57,1.35,2.62,1.05,3.89-.38,1.64-1.23,3.17-2.03,4.64-1.87,3.45-4.18,6.61-6.87,9.47-.66.7.4,1.77,1.06,1.06h0Z"/><path class="cls-1" d="m127.67,232.71c2.52-2.68,4.75-5.64,6.58-8.84,1.45-2.54,3.3-5.61,2.89-8.67-.36-2.63-2.99-3.99-5.3-2.57-2.85,1.75-4.15,5.77-5.26,8.73-1.58,4.24-2.53,8.68-2.9,13.19-.04.53.69.98,1.13.65,1.4-1.06,1.25-2.75.66-4.26-.82-2.07-1.94-4.05-3.15-5.92-2.44-3.78-5.51-7.17-9.05-9.96-1.48-1.17-3.28-2.82-5.24-3.05-1.73-.2-2.99,1.09-2.83,2.8.18,1.93,1.67,3.74,2.67,5.33,1.16,1.83,2.38,3.62,3.73,5.31,2.92,3.7,6.52,6.86,11.06,8.35.83.27,1.27-.92.58-1.37-7.8-5.03-17.16-1.04-23.6,4.26-.88.73-1.74,1.49-2.58,2.26-.66.61-1.45,1.24-1.69,2.14-.39,1.47.82,2.48,2.13,2.8,1.79.43,3.81-.11,5.57-.47,2.37-.49,4.69-1.15,6.96-1.99,4.8-1.78,9.25-4.32,13.27-7.49l-1.28-.53c-.15,4.61-.31,9.22-.46,13.83-.12,3.43-.59,7.78,2.46,10.16,2.19,1.7,5.49,1.45,6.65-1.31s-.19-6.12-1.25-8.79c-1.96-4.93-3.93-9.85-5.89-14.78l-1.1.85c4.42,2.3,8.83,4.6,13.25,6.9,3.23,1.68,7.35,4.73,11.19,3.42,3.23-1.1,4.01-4.57,1.97-7.16-2.37-3.03-6.57-4.13-10.19-4.72-4.8-.79-9.7-.43-14.34,1.03-.92.29-.53,1.74.4,1.45,4.51-1.42,9.31-1.79,13.97-.95,2.11.38,4.37.91,6.27,1.94,1.63.88,3.85,2.58,3.56,4.69-.32,2.39-3.18,2.81-5.09,2.34-2.31-.58-4.47-2-6.56-3.09-4.56-2.38-9.13-4.75-13.69-7.13-.52-.27-1.36.19-1.1.85,1.81,4.55,3.62,9.09,5.44,13.64.71,1.79,1.54,3.57,1.91,5.47.27,1.43.41,3.43-.85,4.46-1.68,1.38-3.98-.08-4.83-1.69-1.08-2.06-.8-4.61-.73-6.84.16-4.85.33-9.7.49-14.56.02-.71-.81-.9-1.28-.53-5.99,4.73-13.11,7.94-20.61,9.3-.97.18-4.06,1.02-4.73-.27-.53-1.02,3.08-3.56,3.8-4.16,2.92-2.41,6.22-4.52,9.91-5.51,3.99-1.07,8.34-.79,11.87,1.48l.58-1.37c-6.62-2.17-10.87-8.13-14.4-13.78-.66-1.06-2.44-3.13-1.94-4.49.7-1.89,4.22,1.07,5.01,1.66,2.9,2.2,5.51,4.83,7.7,7.74,1.15,1.54,2.19,3.16,3.11,4.85.56,1.03,2.87,4.52,1.5,5.56l1.13.65c.34-4.15,1.21-8.24,2.62-12.16.69-1.92,1.49-3.82,2.45-5.63.73-1.38,2.32-3.83,4.21-3.12,1.52.57,1.35,2.62,1.05,3.89-.38,1.64-1.23,3.17-2.03,4.64-1.87,3.45-4.18,6.61-6.87,9.47-.66.7.4,1.77,1.06,1.06h0Z"/><path class="cls-1" d="m164.04,468.4c-2.45,4.55-5.69,8.58-8.81,12.67s-6.09,8.62-8.57,13.33c-5.36,10.16-10.13,20.65-15.14,30.98-2.9,5.97-5.79,11.95-8.69,17.92-.42.86.87,1.63,1.3.76,5.1-10.53,10.21-21.05,15.31-31.58,4.82-9.94,9.25-20.2,15.9-29.09,3.48-4.65,7.23-9.11,10-14.24.46-.85-.84-1.61-1.3-.76h0Z"/><path class="cls-1" d="m125.52,235.32c20.54,9.73,37.47,26.47,47.72,46.73,2.93,5.79,5.28,11.85,7.03,18.1.26.93,1.71.53,1.45-.4-6.23-22.19-20.11-41.96-38.62-55.65-5.27-3.9-10.91-7.27-16.83-10.08-.87-.41-1.63.88-.76,1.3h0Z"/><path class="cls-1" d="m251.3,329.19c-14.12,9.49-27.11,20.63-38.58,33.2-3.29,3.6-6.44,7.31-9.48,11.12-.59.75.46,1.82,1.06,1.06,10.51-13.21,22.56-25.16,35.89-35.52,3.85-3,7.82-5.85,11.87-8.57.8-.54.05-1.84-.76-1.3h0Z"/></svg>