<?xml version="1.0" encoding="UTF-8"?><svg id="Layer_3" xmlns="http://www.w3.org/2000/svg" width="497.28" height="658.36" viewBox="0 0 497.28 658.36"><defs><style>.cls-1{fill:#1b542e;stroke-width:0px;}</style></defs><path class="cls-1" d="m139.55,657.28c-18.61-24.92-24.95-56.15-23.26-86.78,1.79-32.34,11.92-63.33,25.7-92.42,15.12-31.94,33.84-62,49.57-93.63,7.75-15.59,14.77-31.58,20.18-48.15,5.45-16.69,9.28-33.9,11.53-51.31,4.56-35.34,2.5-71.56-6.22-106.11-1.09-4.31-2.29-8.59-3.58-12.85-.28-.92-1.73-.53-1.45.4,10.47,34.58,14.16,71.08,10.99,107.07-3.21,36.4-13.91,71.07-29.68,103.92-15.29,31.85-34.02,61.9-49.59,93.61-14.12,28.75-25.09,58.99-28.29,91.05-2.96,29.64.94,60.71,16.49,86.59,1.94,3.24,4.06,6.36,6.32,9.38.57.76,1.87.02,1.3-.76h0Z"/><path class="cls-1" d="m212.65,335.57c13.16-20.88,29.9-39.18,47.4-56.48,8.43-8.34,16.97-16.61,25.74-24.59,8.32-7.57,17.04-14.81,26.72-20.58,10.66-6.36,22.54-10.72,35.07-10.86.96-.01.97-1.51,0-1.5-22.81.26-42.35,13.83-58.86,28.32-9.02,7.92-17.63,16.32-26.22,24.7s-17.74,17.69-26.02,27.09c-9.17,10.41-17.72,21.4-25.13,33.15-.52.82.78,1.57,1.3.76h0Z"/><path class="cls-1" d="m158.31,447.7c14.63-17.84,33.29-31.99,53.72-42.58,22.39-11.61,46.8-18.83,71.57-23.24,14.79-2.63,29.73-4.27,44.71-5.33.96-.07.96-1.57,0-1.5-26.66,1.87-53.33,5.62-78.95,13.42-22.78,6.93-44.69,17.14-63.83,31.39-10.45,7.77-20.01,16.71-28.27,26.78-.61.74.45,1.81,1.06,1.06h0Z"/><path class="cls-1" d="m212.97,165.2c-17.61-10.16-34-25.24-41.44-44.57-3.97-10.33-4.77-21.29-2.64-32.13,2.48-12.61,7.77-24.65,12.64-36.48,5.62-13.63,11.64-27.1,18.04-40.39.42-.87-.88-1.63-1.3-.76-5.83,12.1-11.34,24.35-16.52,36.73-2.57,6.14-5.07,12.32-7.48,18.53s-4.56,12.21-6.08,18.54c-2.68,11.12-2.73,22.5.85,33.42,3.18,9.7,8.73,18.48,15.46,26.1,7.88,8.93,17.42,16.36,27.71,22.3.84.48,1.59-.81.76-1.3h0Z"/><path class="cls-1" d="m212.89,165.69c22.11-3.92,39.71-24.75,39.77-47.22.04-13.7-5.68-26.58-12.46-38.2-3.66-6.28-7.68-12.33-11.65-18.42-4.24-6.51-8.48-13.01-12.72-19.52s-9.29-13.35-12.74-20.63c-3.05-6.44-5.04-14.3-.63-20.61.55-.79-.75-1.54-1.3-.76-7.67,10.95,1.63,24.75,7.68,34.03,8.33,12.79,16.78,25.51,24.98,38.38,7.32,11.49,14.41,23.75,16.65,37.38,1.95,11.84-.63,23.69-7.33,33.64-7.06,10.49-18.14,18.25-30.66,20.47-.95.17-.55,1.61.4,1.45h0Z"/><path class="cls-1" d="m349.71,222.5c-.04-21.34,10.59-41.8,26.84-55.37,8.08-6.75,17.63-11.79,27.88-14.32,12.78-3.15,26.13-2.29,39.14-1.45,14.79.95,29.95,2,44.34-2.35.92-.28.53-1.73-.4-1.45-26.53,8.02-54.39-2.31-81.23,3.29-20.86,4.35-38.88,18.9-49.06,37.42-5.75,10.46-9.02,22.26-9,34.22,0,.97,1.5.97,1.5,0h0Z"/><path class="cls-1" d="m347.52,222.89c5.62,10.74,15.31,20.03,27.89,21.11,13.6,1.16,26.29-6.67,36.61-14.64,20.39-15.76,35.99-36.54,53.08-55.6,9.71-10.83,20.02-21.23,31.85-29.75.78-.56.03-1.86-.76-1.3-20.51,14.76-36.2,34.77-52.7,53.63-8.23,9.41-16.74,18.63-26.23,26.8s-21.35,17.11-34.54,19.1c-7.31,1.1-14.59-.46-20.71-4.62-5.69-3.86-10.04-9.44-13.21-15.49-.45-.86-1.74-.1-1.3.76h0Z"/><path class="cls-1" d="m330.35,376.17c9.16-16.67,24.61-29.62,42.5-36.02,9.7-3.47,19.83-4.69,30.1-4.49,11.27.22,22.44,1.84,33.67,2.7,12.22.94,24.69.89,36.44-3,.91-.3.52-1.75-.4-1.45-21.91,7.26-45.1,1.09-67.47.31-10.37-.36-20.7.54-30.6,3.76-8.95,2.91-17.35,7.41-24.77,13.19-8.46,6.59-15.59,14.84-20.76,24.24-.46.85.83,1.6,1.3.76h0Z"/><path class="cls-1" d="m330.62,374.61c3.88,11.5,8.2,23.62,16.77,32.55,4.29,4.47,9.63,7.84,15.59,9.56,6.27,1.81,12.94,1.85,19.32.69,13.82-2.51,25.48-10.65,35.47-20.17,5.18-4.94,9.99-10.25,14.82-15.52,5.21-5.7,10.52-11.32,15.94-16.82,11.02-11.17,22.51-21.89,34.42-32.11,1.49-1.28,2.98-2.55,4.49-3.81.74-.62-.33-1.68-1.06-1.06-11.65,9.8-22.91,20.06-33.75,30.75-5.47,5.4-10.83,10.92-16.08,16.54-4.76,5.1-9.39,10.33-14.23,15.37-9.47,9.85-20.13,19.24-33.33,23.58-12.4,4.08-26.6,3.62-37.09-4.87-10.7-8.66-15.59-22.45-19.84-35.07-.31-.91-1.76-.52-1.45.4h0Z"/><path class="cls-1" d="m214.39,166.83c-7.51-19.25-12.96-39.29-16.25-59.69-3.3-20.4-4.42-41.16-3.38-61.8.59-11.69,1.9-23.34,3.9-34.88.16-.94-1.28-1.35-1.45-.4-3.56,20.5-4.93,41.36-4.09,62.15s3.86,41.33,9,61.41c2.92,11.41,6.54,22.63,10.82,33.6.35.89,1.8.5,1.45-.4h0Z"/><path class="cls-1" d="m204.68,140.88c-10.86-10.47-21.91-21.16-29.72-34.2-2.24-3.74-4.18-7.66-5.73-11.74-.34-.89-1.79-.51-1.45.4,5.52,14.47,15.62,26.44,26.39,37.33,3.1,3.14,6.27,6.21,9.45,9.27.7.67,1.76-.39,1.06-1.06h0Z"/><path class="cls-1" d="m198.57,111.44c-10.95-12.2-23.07-26.09-23.81-43.33-.04-.96-1.54-.97-1.5,0,.58,13.6,8.16,25.34,16.57,35.55,2.48,3.01,5.07,5.94,7.68,8.84.65.72,1.7-.34,1.06-1.06h0Z"/><path class="cls-1" d="m195.88,74.79c-6.48-7.8-11.06-17.03-13.39-26.9-.22-.94-1.67-.54-1.45.4,2.4,10.12,7.14,19.56,13.78,27.56.62.74,1.67-.32,1.06-1.06h0Z"/><path class="cls-1" d="m195.67,73.99c10.93-8.69,17.47-22.35,17.44-36.3,0-.97-1.5-.97-1.5,0,.03,13.6-6.37,26.79-17,35.24-.76.6.31,1.66,1.06,1.06h0Z"/><path class="cls-1" d="m200.17,112.8c12.8-8.46,22.07-21.87,25.68-36.76,1.03-4.26,1.59-8.63,1.66-13.01.02-.97-1.48-.97-1.5,0-.25,14.96-6.46,29.57-16.82,40.34-2.95,3.07-6.23,5.8-9.78,8.14-.8.53-.05,1.83.76,1.3h0Z"/><path class="cls-1" d="m204.74,140.47c16.09-10.07,28.19-26.15,33.4-44.41,1.56-5.46,2.96-11.57.96-17.09-.33-.9-1.78-.51-1.45.4,1.82,5,.65,10.4-.7,15.37-1.19,4.4-2.79,8.69-4.76,12.79-3.96,8.22-9.37,15.73-15.93,22.06-3.75,3.62-7.86,6.82-12.27,9.59-.82.51-.06,1.81.76,1.3h0Z"/><path class="cls-1" d="m198.31,368.56c-4.34-13.1-10.7-25.51-18.86-36.64s-18.72-21.5-30.15-29.99c-6.62-4.92-13.63-9.3-20.94-13.11-.86-.45-1.61.85-.76,1.3,25.03,13.05,46.69,32.82,60.17,57.77,3.64,6.74,6.68,13.79,9.08,21.06.3.91,1.75.52,1.45-.4h0Z"/><path class="cls-1" d="m128.88,288.05c-1.02-12.41-4.83-24.55-11.24-35.24-5.67-9.46-13.43-17.63-23.45-22.46-18.36-8.85-39.57-7.02-59.24-9.84-10.95-1.57-21.89-4.68-30.58-11.81-.74-.61-1.81.45-1.06,1.06,15.53,12.74,36.59,12.91,55.63,14.44,9.86.79,19.86,1.88,29.23,5.24,10.4,3.73,18.91,10.61,25.26,19.62,8.04,11.42,12.82,25.08,13.96,38.99.08.96,1.58.96,1.5,0h0Z"/><path class="cls-1" d="m129.7,289.69c-11.73,7.16-24.51,12.52-37.85,15.81-12.61,3.11-26.86,4.79-38.62-2.02-9.15-5.3-14.95-14.52-19.18-23.94-4.79-10.68-7.83-22.03-11.96-32.96-5.44-14.39-12.14-28.33-20.66-41.15-.53-.8-1.83-.05-1.3.76,7.86,11.83,14.19,24.61,19.37,37.82,4.4,11.22,7.56,22.89,12.26,33.99,4.09,9.68,9.59,19.25,18.42,25.33,10.85,7.48,24.42,7.29,36.86,4.8,15.32-3.07,30.09-8.99,43.42-17.13.82-.5.07-1.8-.76-1.3h0Z"/><path class="cls-1" d="m127.07,291c-2.09-8.83-9.05-15.24-16.03-20.5-8.31-6.26-17.21-11.76-26.52-16.43-8.54-4.29-17.44-7.69-26.44-10.89-8.44-3-16.93-5.93-25.01-9.81-8.82-4.24-17.06-9.7-23.37-17.26-.62-.74-1.68.32-1.06,1.06,11.21,13.42,27.93,19.91,43.95,25.64,8.72,3.12,17.48,6.13,25.9,10.01,9.35,4.31,18.31,9.44,26.76,15.32,8.36,5.82,17.89,12.76,20.38,23.25.22.94,1.67.54,1.45-.4h0Z"/><path class="cls-1" d="m110.49,271.78c-.54-13.08-1.63-28.47-12.39-37.55-.73-.62-1.8.44-1.06,1.06,10.45,8.82,11.43,23.8,11.96,36.49.04.96,1.54.97,1.5,0h0Z"/><path class="cls-1" d="m80.24,255.08c.46-12.82-5.92-25.4-16.47-32.67-.8-.55-1.55.75-.76,1.3,10.12,6.97,16.17,19.11,15.73,31.38-.03.97,1.47.96,1.5,0h0Z"/><path class="cls-1" d="m54.57,241.37c-1.99-8.92-7.51-16.82-15.17-21.8-.81-.53-1.56.77-.76,1.3,7.34,4.77,12.58,12.36,14.48,20.9.21.94,1.66.54,1.45-.4h0Z"/><path class="cls-1" d="m52.16,241.43c-10.44,4-21.98,4.41-32.67,1.13-.93-.28-1.32,1.16-.4,1.45,10.92,3.34,22.8,2.95,33.47-1.13.89-.34.51-1.79-.4-1.45h0Z"/><path class="cls-1" d="m78.9,251.71c-16.43,7.97-34.86,15.95-53.5,12.13-.94-.19-1.35,1.25-.4,1.45,19.08,3.92,37.83-4.11,54.65-12.28.87-.42.11-1.72-.76-1.3h0Z"/><path class="cls-1" d="m107.6,270.45c-9.28,4.28-18.52,8.66-27.87,12.78-4.54,2-9.13,3.89-13.82,5.51-4.37,1.51-8.86,2.9-13.47,3.45-4.89.59-9.93.18-14.21-2.42-.83-.5-1.58.8-.76,1.3,7.84,4.75,17.5,2.73,25.71.15,9.84-3.09,19.2-7.5,28.55-11.81,5.54-2.55,11.09-5.11,16.63-7.66.88-.4.11-1.7-.76-1.3h0Z"/><path class="cls-1" d="m350.2,221.52c14.22-13.61,29.91-25.65,46.73-35.88,16.81-10.23,34.71-18.66,53.32-25.06,10.39-3.58,20.99-6.52,31.73-8.81.94-.2.54-1.65-.4-1.45-19.31,4.12-38.14,10.36-56.11,18.53-18.04,8.2-35.19,18.34-51.06,30.2-8.85,6.62-17.29,13.77-25.27,21.41-.7.67.36,1.73,1.06,1.06h0Z"/><path class="cls-1" d="m366.68,204.37c1.84-16.6,8.99-32.46,20.18-44.85.65-.71-.41-1.78-1.06-1.06-11.48,12.71-18.73,28.89-20.62,45.91-.11.96,1.39.95,1.5,0h0Z"/><path class="cls-1" d="m395.68,186.93c1.95-13.49,8.85-25.97,19.26-34.78.74-.62-.33-1.68-1.06-1.06-10.57,8.95-17.66,21.73-19.64,35.44-.14.94,1.31,1.35,1.45.4h0Z"/><path class="cls-1" d="m422.22,172.89c5.5-9.68,13.52-17.76,23.16-23.33.84-.48.08-1.78-.76-1.3-9.85,5.7-18.07,13.98-23.69,23.87-.48.84.82,1.6,1.3.76h0Z"/><path class="cls-1" d="m365.42,206.28c5.84,12.92,17.99,22.58,31.72,25.9,3.87.93,7.85,1.35,11.82,1.23.96-.03.97-1.53,0-1.5-13.75.43-27.26-5.97-36.06-16.49-2.51-3-4.58-6.34-6.19-9.9-.4-.88-1.69-.12-1.3.76h0Z"/><path class="cls-1" d="m394.24,186.47c4.73,6.74,10.46,13.49,18.83,15.48,9.22,2.19,18.65-1.06,27.95,0,.96.11.95-1.39,0-1.5-8.89-1.02-17.88,2-26.7.24-8.4-1.67-14.09-8.28-18.78-14.97-.55-.78-1.85-.04-1.3.76h0Z"/><path class="cls-1" d="m421.45,171.36c1.44,6.24,7.61,9.66,13.53,10.52,3.72.54,7.48.35,11.21.22,4.21-.15,8.42-.31,12.63-.46.96-.03.97-1.54,0-1.5-3.8.14-7.6.28-11.39.41-3.48.13-6.98.35-10.45.06-5.91-.49-12.62-3.28-14.09-9.65-.22-.94-1.66-.54-1.45.4h0Z"/><path class="cls-1" d="m329.32,378.04c8.68-5.17,18.86-6.45,28.74-7.38,9.88-.93,19.73-1.96,29.54-3.54,19.82-3.19,39.43-8.2,57.96-16.02,10.3-4.35,20.22-9.57,29.55-15.75.8-.53.05-1.83-.76-1.3-16.78,11.11-35.44,19.05-54.77,24.54-19.47,5.53-39.48,8.55-59.6,10.39-10.77.98-21.93,2.11-31.41,7.76-.83.49-.08,1.79.76,1.3h0Z"/><path class="cls-1" d="m348.75,372.08c10.96,12.34,12.96,31.34,28.06,40.21,3.6,2.12,7.69,3.26,11.88,2.95.96-.07.96-1.57,0-1.5-7.83.57-14.56-4.19-19.37-9.96-5.24-6.28-8.18-14.04-11.89-21.23-2.12-4.11-4.53-8.06-7.61-11.53-.64-.72-1.7.34-1.06,1.06h0Z"/><path class="cls-1" d="m377.96,367.16c5.53,7.92,11.34,15.64,17.44,23.14,2.98,3.66,5.91,7.57,9.26,10.9,2.22,2.21,5.77,4.43,8.64,2.07.75-.61-.32-1.67-1.06-1.06-3.18,2.61-7.37-2.97-9.12-5-2.77-3.22-5.48-6.49-8.14-9.8-5.48-6.82-10.72-13.83-15.72-21-.55-.79-1.85-.04-1.3.76h0Z"/><path class="cls-1" d="m413.01,364.6c3.97,8.85,14.25,14,23.72,12.05.94-.19.54-1.64-.4-1.45-8.85,1.83-18.34-3.14-22.02-11.36-.39-.88-1.69-.12-1.3.76h0Z"/><path class="cls-1" d="m349.2,370.68c4.3-6.47,8.61-12.93,12.91-19.4,1.92-2.89,3.74-5.9,5.89-8.63,1.92-2.44,4.24-4.59,7.37-5.23.95-.19.55-1.64-.4-1.45-6.48,1.33-9.99,8.3-13.33,13.32-4.58,6.88-9.16,13.76-13.73,20.64-.54.81.76,1.56,1.3.76h0Z"/><path class="cls-1" d="m379.74,366.21c5.72-13.4,16.46-24.32,29.76-30.26.88-.39.12-1.69-.76-1.3-13.5,6.03-24.49,17.21-30.29,30.8-.38.88.92,1.64,1.3.76h0Z"/><path class="cls-1" d="m412.16,360.47c3.62-9.43,10.97-17.19,20.13-21.42.88-.4.11-1.7-.76-1.3-9.53,4.4-17.06,12.53-20.82,22.31-.35.9,1.1,1.29,1.45.4h0Z"/><path class="cls-1" d="m224.98,221.89c4.54-9.98,14.25-17.28,25.15-18.68.94-.12.96-1.62,0-1.5-11.41,1.47-21.67,8.92-26.45,19.43-.4.87.9,1.64,1.3.76h0Z"/><path class="cls-1" d="m251.34,202.45c3.85-7.78,8.09-16.16,16.05-20.46,4.13-2.23,8.63-2.63,13.21-1.86s8.74,2.25,13.23,2.83,9.1.28,12.92-2.26c.8-.53.05-1.83-.76-1.3-8,5.33-17.9.19-26.34-.92-4.33-.57-8.56-.04-12.48,1.94-3.69,1.86-6.81,4.73-9.33,7.97-3.18,4.07-5.5,8.7-7.78,13.31-.43.86.87,1.62,1.3.76h0Z"/><path class="cls-1" d="m248.5,203.73c2.46,4.07,5.21,8.37,9.82,10.22s9.96.63,14.45-1.34c4.79-2.1,9.27-5.09,13.5-8.14s7.88-6.12,11.25-9.78c3.74-4.06,6.83-8.64,8.97-13.74.37-.89-1.08-1.28-1.45-.4-3.65,8.7-10.33,15.69-17.76,21.32-3.69,2.79-7.58,5.4-11.63,7.63-4.29,2.37-9.43,4.59-14.45,3.72-5.58-.97-8.7-5.76-11.42-10.25-.5-.82-1.8-.07-1.3.76h0Z"/><path class="cls-1" d="m250.98,203.59c5.84-5.04,13.51-6.92,20.9-8.38,7.02-1.38,14.16-2.51,20.67-5.65,3.53-1.71,6.74-4.05,9.22-7.11.6-.74-.45-1.81-1.06-1.06-9.62,11.91-26.95,10.51-40.16,15.18-3.87,1.37-7.5,3.27-10.62,5.96-.73.63.33,1.69,1.06,1.06h0Z"/><path class="cls-1" d="m261.62,195.63c1.97,6.69,5.73,12.77,10.85,17.51.71.65,1.77-.4,1.06-1.06-4.94-4.57-8.56-10.39-10.46-16.84-.27-.92-1.72-.53-1.45.4h0Z"/><path class="cls-1" d="m276.05,193.98c1.42,4.28,4.86,7.71,9.15,9.11.92.3,1.31-1.15.4-1.45-3.77-1.23-6.85-4.3-8.1-8.07-.3-.91-1.75-.52-1.45.4h0Z"/><path class="cls-1" d="m262.22,196.59c2.78-6.17,6.54-11.84,11.14-16.8.66-.71-.4-1.77-1.06-1.06-4.69,5.05-8.54,10.83-11.37,17.11-.39.87.9,1.64,1.3.76h0Z"/><path class="cls-1" d="m278.75,193.75c1.51-4.92,4.71-9.26,8.98-12.14.8-.54.05-1.84-.76-1.3-4.6,3.11-8.04,7.73-9.67,13.04-.28.92,1.16,1.32,1.45.4h0Z"/><path class="cls-1" d="m223.49,222.46c-4.84-5.73-9.79-11.58-16.15-15.69-5.96-3.85-13.19-6-20.25-4.53-.94.2-.54,1.64.4,1.45,14.92-3.11,26.35,9.65,34.94,19.83.62.74,1.68-.33,1.06-1.06h0Z"/><path class="cls-1" d="m186.81,201.28c-5.93-5.27-14.36-7.13-21.94-4.7-7.07,2.26-12.71,7.31-18.96,11.1-3.61,2.19-7.5,3.97-11.75,4.32-.96.08-.96,1.58,0,1.5,14.67-1.2,23.68-17.42,38.88-16.46,4.68.3,9.21,2.18,12.71,5.3.72.64,1.78-.42,1.06-1.06h0Z"/><path class="cls-1" d="m188.31,203.22c-2.64,2.87-5.42,5.6-8.36,8.16-2.87,2.5-5.94,5.37-9.39,7.04-3.66,1.78-8.36.81-12.19.16-4.02-.69-7.93-1.78-11.79-3.07-4.17-1.39-8.42-2.76-12.87-2.5-.96.06-.97,1.56,0,1.5,4.25-.25,8.28,1.05,12.26,2.37,4.02,1.34,8.06,2.48,12.25,3.18,3.74.63,8.06,1.46,11.75.22,3.49-1.18,6.56-4.06,9.35-6.38,3.57-2.98,6.93-6.2,10.07-9.62.65-.71-.41-1.77-1.06-1.06h0Z"/><path class="cls-1" d="m187.14,203.13c-8,3.01-16.78,1.85-25.01,3.8s-15.79,5.95-24.27,5.95c-.97,0-.97,1.5,0,1.5,8.49,0,16.16-3.91,24.25-5.9s17.29-.84,25.44-3.9c.9-.34.51-1.79-.4-1.45h0Z"/><path class="cls-1" d="m177.27,205.82c-2.26-5.38-7.3-9.21-13.09-9.94-.96-.12-.95,1.38,0,1.5,5.05.64,9.67,4.15,11.64,8.84.16.38.49.64.92.52.35-.09.68-.55.52-.92h0Z"/><path class="cls-1" d="m164.28,205.78c-4.53-2.04-9.77-2.18-14.37-.25-.88.37-.49,1.82.4,1.45,4.2-1.77,9.04-1.79,13.21.09.87.39,1.64-.9.76-1.3h0Z"/><path class="cls-1" d="m162.3,207.43l-11.32,10.71c-.7.66.36,1.72,1.06,1.06,3.77-3.57,7.54-7.14,11.32-10.71.7-.66-.36-1.72-1.06-1.06h0Z"/><path class="cls-1" d="m175.44,205.5c-5.49,5.22-10.98,10.44-16.47,15.66-.7.67.36,1.73,1.06,1.06,5.49-5.22,10.98-10.44,16.47-15.66.7-.67-.36-1.73-1.06-1.06h0Z"/><path class="cls-1" d="m121.99,537.76c-1.49-6.89-2.05-14.25-5.46-20.56-2.72-5.02-7.23-9.21-13.05-9.99-.95-.13-.94,1.37,0,1.5,5.65.76,9.89,5.33,12.27,10.24,2.89,5.97,3.41,12.8,4.8,19.21.2.94,1.65.54,1.45-.4h0Z"/><path class="cls-1" d="m103.53,506.91c-7.91,1.76-16.3,10.73-24.69,5.99-3.47-1.96-5.74-5.45-7.93-8.66-2.06-3.03-4.19-6.06-6.74-8.72-2.81-2.93-6.18-5.3-10.16-6.3-.94-.24-1.34,1.21-.4,1.45,7.8,1.97,12.48,9.18,16.75,15.42,2.13,3.11,4.5,6.36,7.89,8.2,3.7,2.02,7.91,1.62,11.74.18,4.77-1.79,8.92-5,13.94-6.11.94-.21.54-1.66-.4-1.45h0Z"/><path class="cls-1" d="m103.04,507.1c-3.75-6.91-4.8-15.95-11.22-21.16-3.46-2.81-7.86-3.76-12.23-3.84-5.05-.1-10.16.69-15.15,1.44-6.25.94-12.44,2.2-18.56,3.76-.93.24-.54,1.69.4,1.45,9.95-2.54,20.35-4.64,30.63-5.11,4.46-.2,9.18.17,12.99,2.74,3.25,2.19,5.22,5.69,6.72,9.21,1.74,4.08,2.99,8.35,5.12,12.26.46.85,1.76.09,1.3-.76h0Z"/><path class="cls-1" d="m48.84,487.55c9.53-.24,18.64,2.9,27.16,6.93,4.18,1.97,8.26,4.14,12.32,6.34,3.93,2.12,7.81,4.42,10.77,7.83.63.73,1.69-.33,1.06-1.06-4.69-5.39-11.7-8.48-17.93-11.69-6.68-3.45-13.59-6.66-20.93-8.44-4.08-.99-8.26-1.51-12.46-1.4-.96.02-.97,1.52,0,1.5h0Z"/><path class="cls-1" d="m70.05,482.23c2.13,4.24,3.83,8.68,5.09,13.25.26.93,1.7.53,1.45-.4-1.3-4.7-3.06-9.26-5.25-13.61-.43-.86-1.73-.1-1.3.76h0Z"/><path class="cls-1" d="m83.34,483.14c3.07,4.99,4.38,10.96,3.59,16.77-.13.94,1.32,1.35,1.45.4.85-6.22-.44-12.57-3.74-17.92-.51-.82-1.8-.07-1.3.76h0Z"/><path class="cls-1" d="m74.05,493.72c-2.16,1.99-5.29,2.77-8.13,2.05-.94-.24-1.34,1.21-.4,1.45,3.37.85,7.03-.08,9.59-2.44.71-.66-.35-1.71-1.06-1.06h0Z"/><path class="cls-1" d="m87.26,500.71l-9.35,3.94c-1.33.56-2.65,1.22-4.04,1.61-1.02.29-2.52.57-3.26-.41-.57-.76-1.87-.02-1.3.76,1.85,2.47,5.11,1.13,7.41.16,3.64-1.54,7.29-3.07,10.93-4.61.88-.37.49-1.82-.4-1.45h0Z"/><path class="cls-1" d="m204.55,410.9c3.25-1.24,6.77.08,9.9,1.12s6.43,2.38,9.51,3.88c6.03,2.94,11.68,6.65,16.78,11.01.73.62,1.8-.43,1.06-1.06-5.42-4.63-11.41-8.56-17.85-11.62-3.15-1.49-6.4-2.79-9.71-3.86s-6.77-2.18-10.09-.92c-.89.34-.51,1.79.4,1.45h0Z"/><path class="cls-1" d="m241.8,427.05c-2.83.88-4.69,3.39-5.31,6.22-.73,3.36.39,6.69,2.06,9.59,1.87,3.24,4.26,6.69,7.3,8.92s6.87,3.49,10.13,5.53c3.65,2.29,6.85,5.24,8.97,9.02.47.84,1.77.09,1.3-.76-3.26-5.84-8.81-9.51-14.69-12.33-1.58-.76-3.16-1.52-4.6-2.52-1.7-1.18-3.04-2.76-4.26-4.41-2.12-2.85-4.32-5.96-4.85-9.55-.48-3.28.97-7.21,4.36-8.27.92-.29.53-1.73-.4-1.45h0Z"/><path class="cls-1" d="m242.09,426.07c7.88-2.13,17.26-1.4,23.41,4.48s7.63,15.7,6.4,24.07c-.82,5.59-2.58,10.99-4.33,16.35l1.25-.33c-.47-.46-.94-.92-1.4-1.37-.69-.68-1.75.38-1.06,1.06.47.46.94.92,1.4,1.37.42.41,1.08.2,1.25-.33,3.13-9.58,6.33-19.75,4.02-29.88-.95-4.18-2.85-8.2-5.81-11.33s-6.79-5.09-10.9-6.02c-4.82-1.09-9.88-.81-14.63.48-.93.25-.54,1.7.4,1.45h0Z"/><path class="cls-1" d="m239.91,427.59c12.42,12.36,25.71,25.84,28.69,43.88.16.95,1.6.55,1.45-.4-3.02-18.28-16.48-32.01-29.08-44.54-.69-.68-1.75.38-1.06,1.06h0Z"/><path class="cls-1" d="m246.52,433.78c-2.17,1.96-2.62,4.94-2.47,7.73.19,3.58,1,7.16,1.58,10.69.15.95,1.6.55,1.45-.4-.52-3.24-1.23-6.5-1.49-9.78-.2-2.55-.03-5.36,1.99-7.18.72-.65-.35-1.71-1.06-1.06h0Z"/><path class="cls-1" d="m258.42,457.1c-1.16-.5-.74-2.22-.45-3.15.61-2.02,1.29-4.02,1.94-6.03.3-.92-1.15-1.32-1.45-.4-.38,1.18-.76,2.35-1.13,3.53-.33,1.03-.73,2.06-.96,3.12-.32,1.47-.33,3.53,1.3,4.23.38.16.8.11,1.03-.27.19-.31.1-.87-.27-1.03h0Z"/><path class="cls-1" d="m248.39,434.43c4.11-4.81,10.7-7.21,16.93-6.06.94.17,1.35-1.27.4-1.45-6.75-1.25-13.92,1.22-18.39,6.44-.62.73.43,1.8,1.06,1.06h0Z"/><path class="cls-1" d="m259.32,448.5c3.98-2.19,8.77-2.47,13-.82.9.35,1.29-1.1.4-1.45-4.58-1.79-9.85-1.4-14.15.97-.85.47-.09,1.76.76,1.3h0Z"/><path class="cls-1" d="m265.39,275.61c1.8-1.74,4.15-2.57,6.53-3.17,2.54-.64,5.14-1.03,7.76-1.15,5.17-.24,10.32.54,15.21,2.24.91.32,1.31-1.13.4-1.45-5.28-1.85-10.92-2.63-16.5-2.24-4.85.33-10.82,1.17-14.46,4.71-.69.67.37,1.73,1.06,1.06h0Z"/><path class="cls-1" d="m297.53,273.58c2.77-2.52,5.72-5.19,9.47-6.06,4.23-.98,8.69.62,12.47,2.43,7.07,3.38,13.01,8.6,18.84,13.74.72.64,1.79-.42,1.06-1.06-6.34-5.59-12.85-11.3-20.7-14.68-3.88-1.67-8.25-2.9-12.46-1.78-3.83,1.02-6.88,3.75-9.74,6.35-.72.65.35,1.71,1.06,1.06h0Z"/><path class="cls-1" d="m294.72,272.76c-2.58,2.96-2.35,7-1.03,10.47,1.34,3.53,3.18,7.78,6.29,10.12,3.27,2.45,7.61,2.5,11.43,1.62,4.63-1.07,9.12-3.02,13.58-4.62,5.46-1.96,10.92-3.91,16.37-5.87.9-.32.51-1.77-.4-1.45-8.32,2.98-16.64,5.98-24.97,8.95-3.67,1.31-7.64,2.63-11.57,1.75s-6.03-4.01-7.74-7.48c-1.83-3.7-4.1-8.77-.91-12.43.63-.72-.42-1.79-1.06-1.06h0Z"/><path class="cls-1" d="m295.72,274.91c7.03.25,14.13.51,21.01,2.1,6.92,1.6,13.06,4.91,19.18,8.4.84.48,1.6-.82.76-1.3-6.23-3.55-12.5-6.92-19.54-8.55s-14.24-1.89-21.41-2.15c-.97-.03-.96,1.47,0,1.5h0Z"/><path class="cls-1" d="m301.55,275.55c-.51,4.43.22,8.91,2.02,12.98.88,2.01,2.04,3.88,3.43,5.57.46.57,1.26,1.3,1.98.61.52-.5.33-1.48-.42-1.62-.94-.17-1.35,1.27-.4,1.45l.13.02-.52-.52.1-.34.53-.22c-.08,0-.62-.81-.68-.88-.25-.32-.48-.65-.71-.98-.46-.67-.88-1.36-1.26-2.07-.77-1.41-1.38-2.9-1.84-4.44-.93-3.1-1.21-6.34-.84-9.56.11-.96-1.39-.95-1.5,0h0Z"/><path class="cls-1" d="m314.03,276.22c-.76,5.81.59,11.79,3.74,16.74.52.81,1.82.06,1.3-.76-3.02-4.75-4.26-10.4-3.53-15.98.12-.95-1.38-.95-1.5,0h0Z"/><path class="cls-1" d="m303.18,276.24c4.72-5.33,12.24-5.69,18.86-5.91.96-.03.97-1.53,0-1.5-7.01.23-14.92.72-19.92,6.35-.64.72.42,1.78,1.06,1.06h0Z"/><path class="cls-1" d="m315.66,276.28c.71-.86,1.8-.88,2.83-.8,1.28.1,2.56.34,3.83.52,2.83.4,5.66.8,8.49,1.2.94.13,1.35-1.31.4-1.45-3.25-.46-6.5-.92-9.74-1.37-2.16-.3-5.23-1.14-6.87.84-.61.74.45,1.81,1.06,1.06h0Z"/><path class="cls-1" d="m284.33,355.75c-2.32-1.49-4.45-3.23-6.35-5.24-.89-.94-1.86-1.94-2.45-3.1-.54-1.05-.92-3.3,1.06-2.86,1.23.28,2.16,1.47,2.92,2.39.91,1.09,1.74,2.24,2.5,3.43,1.48,2.33,2.67,4.82,3.58,7.43l1.1-.85c-1.22-.56-.11-3.53.14-4.46.45-1.67,1.05-3.29,1.79-4.85.68-1.43,1.48-2.8,2.38-4.11.51-.74,1.06-1.45,1.65-2.14.49-.58,1.37-1.9,2.15-1.4.97.62-.34,3.34-.64,4.25-.5,1.49-1.04,2.97-1.71,4.4-1.3,2.77-3.06,5.31-5.67,6.99l.91,1.18c5.02-5.33,12.89-2.84,18.4.21.41.22,1.11.41.67,1.12-.13.22-.66.31-.87.36-.79.21-1.68.22-2.49.26-1.79.1-3.58.05-5.36-.13-3.58-.36-7.09-1.32-10.38-2.78-.56-.25-1.3.17-1.1.85.94,3.26,1.89,6.51,2.83,9.77.47,1.61,1.15,3.34.91,5.04-.2,1.44-1.87,3.37-3.34,2-1.68-1.57-.7-5.21-.45-7.12.45-3.46.91-6.91,1.36-10.37.09-.7-.85-.91-1.28-.53-2.78,2.48-5.56,4.96-8.34,7.44-1.28,1.14-2.54,2.52-4.03,3.37-1.31.75-3.84,1.01-4.04-1.06-.28-2.89,3.99-4.94,6.1-5.86,3.08-1.34,6.43-1.89,9.77-1.7.96.05.96-1.45,0-1.5-4.03-.22-8.06.61-11.66,2.44-2.53,1.29-6.59,3.98-5.59,7.42.43,1.47,1.87,2.31,3.34,2.36,1.77.06,3.26-.97,4.55-2.07,3.72-3.17,7.31-6.51,10.96-9.77l-1.28-.53c-.57,4.37-1.27,8.75-1.72,13.14-.23,2.25.07,5.64,2.78,6.23,1.35.3,2.65-.42,3.46-1.47,1.07-1.39,1.08-3.16.76-4.82-.4-2.07-1.13-4.1-1.72-6.12-.64-2.22-1.29-4.45-1.93-6.67l-1.1.85c4.22,1.88,8.74,2.97,13.36,3.14,1.53.06,9.88.41,8.14-3.26-.36-.77-1.25-1.14-1.95-1.52-1.05-.56-2.12-1.09-3.21-1.56-1.89-.81-3.86-1.42-5.91-1.67-3.88-.47-7.98.57-10.71,3.47-.57.6.17,1.65.91,1.18,2.67-1.71,4.58-4.2,5.97-7.02.7-1.41,1.28-2.88,1.8-4.36s1.15-2.95,1.33-4.46c.13-1.12-.17-2.37-1.37-2.75-1.46-.46-2.68.86-3.53,1.85-2.25,2.61-4.03,5.58-5.3,8.78-.75,1.91-1.36,3.93-1.66,5.96-.18,1.23-.12,2.74,1.17,3.33.54.25,1.34-.17,1.1-.85-1.17-3.4-2.8-6.63-4.92-9.54-1.41-1.94-4.13-6-7.07-4.64-2.73,1.26-1.16,4.71.17,6.39,2.34,2.93,5.2,5.42,8.35,7.44.82.52,1.57-.78.76-1.3h0Z"/><path class="cls-1" d="m188.43,271.22c-2.32-1.49-4.45-3.23-6.35-5.24-.89-.94-1.86-1.94-2.45-3.1-.54-1.05-.92-3.3,1.06-2.86,1.23.28,2.16,1.47,2.92,2.39.91,1.09,1.74,2.24,2.5,3.43,1.48,2.33,2.67,4.82,3.58,7.43l1.1-.85c-1.22-.56-.11-3.53.14-4.46.45-1.67,1.05-3.29,1.79-4.85.68-1.43,1.48-2.8,2.38-4.11.51-.74,1.06-1.45,1.65-2.14.49-.58,1.37-1.9,2.15-1.4.97.62-.34,3.34-.64,4.25-.5,1.49-1.04,2.97-1.71,4.4-1.3,2.77-3.06,5.31-5.67,6.99l.91,1.18c5.02-5.33,12.89-2.84,18.4.21.41.22,1.11.41.67,1.12-.13.22-.66.31-.87.36-.79.21-1.68.22-2.49.26-1.79.1-3.58.05-5.36-.13-3.58-.36-7.09-1.32-10.38-2.78-.56-.25-1.3.17-1.1.85.94,3.26,1.89,6.51,2.83,9.77.47,1.61,1.15,3.34.91,5.04-.2,1.44-1.87,3.37-3.34,2-1.68-1.57-.7-5.21-.45-7.12.45-3.46.91-6.91,1.36-10.37.09-.7-.85-.91-1.28-.53-2.78,2.48-5.56,4.96-8.34,7.44-1.28,1.14-2.54,2.52-4.03,3.37-1.31.75-3.84,1.01-4.04-1.06-.28-2.89,3.99-4.94,6.1-5.86,3.08-1.34,6.43-1.89,9.77-1.7.96.05.96-1.45,0-1.5-4.03-.22-8.06.61-11.66,2.44-2.53,1.29-6.59,3.98-5.59,7.42.43,1.47,1.87,2.31,3.34,2.36,1.77.06,3.26-.97,4.55-2.07,3.72-3.17,7.31-6.51,10.96-9.77l-1.28-.53c-.57,4.37-1.27,8.75-1.72,13.14-.23,2.25.07,5.64,2.78,6.23,1.35.3,2.65-.42,3.46-1.47,1.07-1.39,1.08-3.16.76-4.82-.4-2.07-1.13-4.1-1.72-6.12-.64-2.22-1.29-4.45-1.93-6.67l-1.1.85c4.22,1.88,8.74,2.97,13.36,3.14,1.53.06,9.88.41,8.14-3.26-.36-.77-1.25-1.14-1.95-1.52-1.05-.56-2.12-1.09-3.21-1.56-1.89-.81-3.86-1.42-5.91-1.67-3.88-.47-7.98.57-10.71,3.47-.57.6.17,1.65.91,1.18,2.67-1.71,4.58-4.2,5.97-7.02.7-1.41,1.28-2.88,1.8-4.36s1.15-2.95,1.33-4.46c.13-1.12-.17-2.37-1.37-2.75-1.46-.46-2.68.86-3.53,1.85-2.25,2.61-4.03,5.58-5.3,8.78-.75,1.91-1.36,3.93-1.66,5.96-.18,1.23-.12,2.74,1.17,3.33.54.25,1.34-.17,1.1-.85-1.17-3.4-2.8-6.63-4.92-9.54-1.41-1.94-4.13-6-7.07-4.64-2.73,1.26-1.16,4.71.17,6.39,2.34,2.93,5.2,5.42,8.35,7.44.82.52,1.57-.78.76-1.3h0Z"/><path class="cls-1" d="m320.28,199.07c-2.32-1.49-4.45-3.23-6.35-5.24-.89-.94-1.86-1.94-2.45-3.1-.54-1.05-.92-3.3,1.06-2.86,1.23.28,2.16,1.47,2.92,2.39.91,1.09,1.74,2.24,2.5,3.43,1.48,2.33,2.67,4.82,3.58,7.43l1.1-.85c-1.22-.56-.11-3.53.14-4.46.45-1.67,1.05-3.29,1.79-4.85.68-1.43,1.48-2.8,2.38-4.11.51-.74,1.06-1.45,1.65-2.14.49-.58,1.37-1.9,2.15-1.4.97.62-.34,3.34-.64,4.25-.5,1.49-1.04,2.97-1.71,4.4-1.3,2.77-3.06,5.31-5.67,6.99l.91,1.18c5.02-5.33,12.89-2.84,18.4.21.41.22,1.11.41.67,1.12-.13.22-.66.31-.87.36-.79.21-1.68.22-2.49.26-1.79.1-3.58.05-5.36-.13-3.58-.36-7.09-1.32-10.38-2.78-.56-.25-1.3.17-1.1.85.94,3.26,1.89,6.51,2.83,9.77.47,1.61,1.15,3.34.91,5.04-.2,1.44-1.87,3.37-3.34,2-1.68-1.57-.7-5.21-.45-7.12.45-3.46.91-6.91,1.36-10.37.09-.7-.85-.91-1.28-.53-2.78,2.48-5.56,4.96-8.34,7.44-1.28,1.14-2.54,2.52-4.03,3.37-1.31.75-3.84,1.01-4.04-1.06-.28-2.89,3.99-4.94,6.1-5.86,3.08-1.34,6.43-1.89,9.77-1.7.96.05.96-1.45,0-1.5-4.03-.22-8.06.61-11.66,2.44-2.53,1.29-6.59,3.98-5.59,7.42.43,1.47,1.87,2.31,3.34,2.36,1.77.06,3.26-.97,4.55-2.07,3.72-3.17,7.31-6.51,10.96-9.77l-1.28-.53c-.57,4.37-1.27,8.75-1.72,13.14-.23,2.25.07,5.64,2.78,6.23,1.35.3,2.65-.42,3.46-1.47,1.07-1.39,1.08-3.16.76-4.82-.4-2.07-1.13-4.1-1.72-6.12-.64-2.22-1.29-4.45-1.93-6.67l-1.1.85c4.22,1.88,8.74,2.97,13.36,3.14,1.53.06,9.88.41,8.14-3.26-.36-.77-1.25-1.14-1.95-1.52-1.05-.56-2.12-1.09-3.21-1.56-1.89-.81-3.86-1.42-5.91-1.67-3.88-.47-7.98.57-10.71,3.47-.57.6.17,1.65.91,1.18,2.67-1.71,4.58-4.2,5.97-7.02.7-1.41,1.28-2.88,1.8-4.36s1.15-2.95,1.33-4.46c.13-1.12-.17-2.37-1.37-2.75-1.46-.46-2.68.86-3.53,1.85-2.25,2.61-4.03,5.58-5.3,8.78-.75,1.91-1.36,3.93-1.66,5.96-.18,1.23-.12,2.74,1.17,3.33.54.25,1.34-.17,1.1-.85-1.17-3.4-2.8-6.63-4.92-9.54-1.41-1.94-4.13-6-7.07-4.64-2.73,1.26-1.16,4.71.17,6.39,2.34,2.93,5.2,5.42,8.35,7.44.82.52,1.57-.78.76-1.3h0Z"/><path class="cls-1" d="m142.72,399.03c-2.32-1.49-4.45-3.23-6.35-5.24-.89-.94-1.86-1.94-2.45-3.1-.54-1.05-.92-3.3,1.06-2.86,1.23.28,2.16,1.47,2.92,2.39.91,1.09,1.74,2.24,2.5,3.43,1.48,2.33,2.67,4.82,3.58,7.43l1.1-.85c-1.22-.56-.11-3.53.14-4.46.45-1.67,1.05-3.29,1.79-4.85.68-1.43,1.48-2.8,2.38-4.11.51-.74,1.06-1.45,1.65-2.14.49-.58,1.37-1.9,2.15-1.4.97.62-.34,3.34-.64,4.25-.5,1.49-1.04,2.97-1.71,4.4-1.3,2.77-3.06,5.31-5.67,6.99l.91,1.18c5.02-5.33,12.89-2.84,18.4.21.41.22,1.11.41.67,1.12-.13.22-.66.31-.87.36-.79.21-1.68.22-2.49.26-1.79.1-3.58.05-5.36-.13-3.58-.36-7.09-1.32-10.38-2.78-.56-.25-1.3.17-1.1.85.94,3.26,1.89,6.51,2.83,9.77.47,1.61,1.15,3.34.91,5.04-.2,1.44-1.87,3.37-3.34,2-1.68-1.57-.7-5.21-.45-7.12.45-3.46.91-6.91,1.36-10.37.09-.7-.85-.91-1.28-.53-2.78,2.48-5.56,4.96-8.34,7.44-1.28,1.14-2.54,2.52-4.03,3.37-1.31.75-3.84,1.01-4.04-1.06-.28-2.89,3.99-4.94,6.1-5.86,3.08-1.34,6.43-1.89,9.77-1.7.96.05.96-1.45,0-1.5-4.03-.22-8.06.61-11.66,2.44-2.53,1.29-6.59,3.98-5.59,7.42.43,1.47,1.87,2.31,3.34,2.36,1.77.06,3.26-.97,4.55-2.07,3.72-3.17,7.31-6.51,10.96-9.77l-1.28-.53c-.57,4.37-1.27,8.75-1.72,13.14-.23,2.25.07,5.64,2.78,6.23,1.35.3,2.65-.42,3.46-1.47,1.07-1.39,1.08-3.16.76-4.82-.4-2.07-1.13-4.1-1.72-6.12-.64-2.22-1.29-4.45-1.93-6.67l-1.1.85c4.22,1.88,8.74,2.97,13.36,3.14,1.53.06,9.88.41,8.14-3.26-.36-.77-1.25-1.14-1.95-1.52-1.05-.56-2.12-1.09-3.21-1.56-1.89-.81-3.86-1.42-5.91-1.67-3.88-.47-7.98.57-10.71,3.47-.57.6.17,1.65.91,1.18,2.67-1.71,4.58-4.2,5.97-7.02.7-1.41,1.28-2.88,1.8-4.36s1.15-2.95,1.33-4.46c.13-1.12-.17-2.37-1.37-2.75-1.46-.46-2.68.86-3.53,1.85-2.25,2.61-4.03,5.58-5.3,8.78-.75,1.91-1.36,3.93-1.66,5.96-.18,1.23-.12,2.74,1.17,3.33.54.25,1.34-.17,1.1-.85-1.17-3.4-2.8-6.63-4.92-9.54-1.41-1.94-4.13-6-7.07-4.64-2.73,1.26-1.16,4.71.17,6.39,2.34,2.93,5.2,5.42,8.35,7.44.82.52,1.57-.78.76-1.3h0Z"/><path class="cls-1" d="m261.5,385.71c5.61-3.05,10.73-6.97,15.1-11.62,4.77-5.08,8.32-11,11.77-17.01.48-.84-.82-1.6-1.3-.76-3.38,5.9-6.85,11.73-11.53,16.71-4.29,4.57-9.29,8.39-14.8,11.38-.85.46-.09,1.76.76,1.3h0Z"/><path class="cls-1" d="m301.58,240.2c6.23-4.05,10.78-10.09,14.13-16.65,1.85-3.62,3.37-7.41,4.79-11.21,1.51-4.06,3.29-8.21,3.92-12.52.14-.94-1.31-1.35-1.45-.4-.59,4.02-2.2,7.86-3.6,11.65s-2.91,7.65-4.75,11.31c-3.26,6.48-7.65,12.52-13.8,16.52-.81.52-.06,1.82.76,1.3h0Z"/><path class="cls-1" d="m191.59,273.65c2.02,3.23,4.82,5.81,7.4,8.59s5.11,5.94,7.33,9.16c4.39,6.4,7.86,13.39,10.31,20.75.3.91,1.75.52,1.45-.4-2.44-7.35-5.87-14.35-10.22-20.76-2.11-3.11-4.43-6.08-6.94-8.87-2.72-3.03-5.85-5.75-8.02-9.23-.51-.82-1.81-.06-1.3.76h0Z"/><path class="cls-1" d="m146.01,401.97c8.87,8.97,14.92,20.45,17.36,32.83.19.95,1.63.55,1.45-.4-2.48-12.62-8.71-24.34-17.74-33.49-.68-.69-1.74.37-1.06,1.06h0Z"/></svg>