<?xml version="1.0" encoding="UTF-8"?><svg id="Layer_3" xmlns="http://www.w3.org/2000/svg" width="362.3" height="472.43" viewBox="0 0 362.3 472.43"><defs><style>.cls-1{fill:#1b542e;stroke-width:0px;}</style></defs><path class="cls-1" d="m104.41,471.33c-12.81-19.42-20.74-41.91-23.21-65.04-2.45-22.92.71-45.73,8.59-67.34,7.72-21.17,18.79-40.88,28.09-61.35,8.93-19.66,16.37-40.5,16.47-62.35.12-24.67-9.41-48.05-20.7-69.55-1.44-2.75-2.92-5.47-4.42-8.19-.47-.85-1.76-.09-1.3.76,12.08,21.88,23.24,45.41,24.74,70.75,1.32,22.36-5.54,43.95-14.46,64.17s-19.96,39.85-28.08,60.61c-4.11,10.49-7.41,21.3-9.28,32.42s-2.44,22.67-1.69,34.03c1.49,22.62,8.09,44.93,19.43,64.57,1.43,2.47,2.93,4.89,4.5,7.28.53.8,1.83.05,1.3-.76h0Z"/><path class="cls-1" d="m129.52,249.37c7.37-11.13,16.44-21.11,26.82-29.51,11.19-9.06,23.94-16.14,37.34-21.37,7.58-2.96,15.39-5.3,23.35-7.04.94-.21.54-1.65-.4-1.45-27.99,6.12-54.48,19.82-74.25,40.75-5.22,5.53-9.96,11.52-14.16,17.86-.53.81.76,1.56,1.3.76h0Z"/><path class="cls-1" d="m86.69,349.77c3.27-6.08,3.68-13.11,3.76-19.88s-.35-13.34-1.26-19.95c-1.83-13.44-5.67-26.59-11.33-38.92-3.23-7.05-7.07-13.81-11.46-20.2-.54-.79-1.84-.04-1.3.76,15.05,21.93,23.46,48.26,23.83,74.87.11,7.54.11,15.75-3.55,22.56-.46.85.84,1.61,1.3.76h0Z"/><path class="cls-1" d="m65.93,250.35c3.92-7.24,7.97-14.73,9.21-22.99s-.57-16.2-3.68-23.68-7.46-14.86-12.23-21.55c-2.4-3.37-5.06-6.55-8.05-9.41s-6.53-5.68-9.93-8.36c-8.26-6.51-16.53-13.01-24.79-19.51-.75-.59-1.82.46-1.06,1.06,7.1,5.59,14.19,11.17,21.29,16.76,6.58,5.18,13.34,10.22,18.64,16.78s9.39,13.49,12.92,20.76c3.54,7.28,6.14,15.26,5.76,23.45-.43,9.39-4.99,17.86-9.37,25.94-.46.85.83,1.61,1.3.76h0Z"/><path class="cls-1" d="m65.49,249.6c-7.6,2.45-16.01,1.87-23.29-1.4s-13.12-9.42-16.52-16.88-4.67-16.13-5.36-24.41c-.83-9.89-1.27-19.82-1.87-29.73-.72-11.86-1.44-23.72-2.16-35.57-.06-.96-1.56-.97-1.5,0,.67,10.95,1.33,21.89,2,32.84s1.13,20.87,1.94,31.28c.67,8.55,1.79,17.26,5.16,25.21,3.2,7.55,8.56,13.96,15.9,17.76,7.98,4.13,17.52,5.11,26.1,2.35.92-.29.52-1.74-.4-1.45h0Z"/><path class="cls-1" d="m109.17,136.72c6.2-19.85,9.19-42.25,2.11-62.29-3.48-9.85-9.49-18.28-16.97-25.51-7.65-7.39-16.36-13.53-24.56-20.27C59.69,20.38,50.69,10.91,43.07.33c-.56-.78-1.86-.03-1.3.76,6.63,9.21,14.28,17.68,22.82,25.16,7.92,6.93,16.57,12.97,24.48,19.91s14.8,14.78,19.08,24.43,5.8,20.09,5.66,30.47c-.16,11.98-2.53,23.86-6.09,35.27-.29.92,1.16,1.32,1.45.4h0Z"/><path class="cls-1" d="m217.78,189.51c3.91-10.81,10.14-20.73,18.21-28.92s17.54-14.26,28.66-16.49c10.07-2.01,20.49-.92,30.52.77s20.22,4.12,30.47,5.31c10.97,1.27,22.19.88,32.4-3.7.88-.39.12-1.69-.76-1.3-19.44,8.72-41.32,1.73-61.15-1.66-9.97-1.7-20.21-2.84-30.26-1.16-10.96,1.83-20.65,7.45-28.7,14.98-9.36,8.75-16.5,19.74-20.85,31.78-.33.91,1.12,1.3,1.45.4h0Z"/><path class="cls-1" d="m214.05,191.54c9.25,9.79,19.95,18.2,31.66,24.84s24.9,12.17,38.34,9.29c10.73-2.29,19.33-9.64,26.23-17.83,7.66-9.1,13.68-19.42,20.6-29.07,9.11-12.7,19.38-24.61,31.16-34.91.73-.64-.34-1.69-1.06-1.06-10.09,8.82-19.06,18.83-27.17,29.49-7.33,9.65-13.53,20.08-20.82,29.75-6.47,8.58-14.32,17.05-24.65,20.83-12.92,4.74-26.43.4-38.08-5.71-13.1-6.87-24.99-15.93-35.15-26.68-.66-.7-1.72.36-1.06,1.06h0Z"/><path class="cls-1" d="m107.02,135.35c-10.75,2.5-22.45,1.67-32.44-3.22-9.46-4.63-16.46-12.75-20.85-22.21-10.31-22.22-5.78-47.14-3.14-70.5,1.27-11.24,3.38-25.26-4.98-34.43-.65-.71-1.71.35-1.06,1.06,7.76,8.5,5.83,21.7,4.68,32.14-1.48,13.41-3.64,26.81-3.47,40.34.27,20.36,7.06,43.18,25.94,53.77,10.77,6.05,23.79,7.26,35.72,4.49.94-.22.54-1.67-.4-1.45h0Z"/><path class="cls-1" d="m67.23,249.22c.19-7.36-.79-14.74-2.95-21.79s-5.57-13.6-9.22-19.98c-7.78-13.61-15.76-27.12-23.64-40.67-4.51-7.76-9.03-15.52-13.54-23.28-.49-.83-1.78-.08-1.3.76,7.86,13.51,15.71,27.01,23.57,40.52,3.92,6.73,7.84,13.47,11.75,20.2,3.7,6.37,7.4,12.81,9.9,19.76,2.83,7.84,4.14,16.15,3.93,24.48-.02.97,1.48.97,1.5,0h0Z"/><path class="cls-1" d="m65.21,229.84c5.71-8.52,7.47-19.34,4.8-29.24-.25-.93-1.7-.54-1.45.4,2.57,9.53.85,19.88-4.65,28.09-.54.8.76,1.56,1.3.76h0Z"/><path class="cls-1" d="m55.75,211.78c7.02-10.5,4.34-23.99,1.7-35.47-.22-.94-1.66-.54-1.45.4,2.55,11.09,5.23,24.16-1.55,34.31-.54.8.76,1.56,1.3.76h0Z"/><path class="cls-1" d="m47.77,191.81c1.86-8.89-.2-18.34-5.67-25.6-.57-.76-1.88-.01-1.3.76,5.23,6.94,7.3,15.93,5.52,24.44-.2.94,1.25,1.34,1.45.4h0Z"/><path class="cls-1" d="m44.27,191.59c-10.43-3.16-19.72-9.44-26.57-17.91-.61-.75-1.66.32-1.06,1.06,7.01,8.66,16.57,15.06,27.24,18.3.93.28,1.32-1.17.4-1.45h0Z"/><path class="cls-1" d="m55.55,207.45c-12.4-1.34-24.55-4.67-35.89-9.84-.87-.4-1.64.9-.76,1.3,11.61,5.29,23.97,8.68,36.65,10.05.96.1.95-1.4,0-1.5h0Z"/><path class="cls-1" d="m63.45,225.68c-13.8,3.34-28.36,2.67-41.8-1.89-.92-.31-1.31,1.14-.4,1.45,13.69,4.64,28.55,5.29,42.6,1.89.94-.23.54-1.67-.4-1.45h0Z"/><path class="cls-1" d="m108.26,134.26c-4.25-16.8-9.97-33.2-17.09-49-7.17-15.94-15.76-31.24-25.64-45.66-5.51-8.04-12.06-15.75-15.24-25.11-.31-.91-1.76-.52-1.45.4,2.78,8.18,8.06,15.04,12.99,22.01,5.02,7.11,9.73,14.44,14.1,21.96,8.82,15.19,16.28,31.16,22.26,47.67,3.34,9.22,6.21,18.61,8.62,28.12.24.94,1.68.54,1.45-.4h0Z"/><path class="cls-1" d="m103.19,115.27c7.47-17.51,4.5-36.96,1.5-55.13-.16-.95-1.6-.55-1.45.4,2.93,17.7,5.94,36.89-1.35,53.97-.37.88.92,1.64,1.3.76h0Z"/><path class="cls-1" d="m90.81,85.55c7.96-12.31,8.01-29.01.13-41.37-.52-.81-1.82-.06-1.3.76,7.6,11.93,7.55,27.97-.13,39.86-.53.81.77,1.57,1.3.76h0Z"/><path class="cls-1" d="m79.99,59.43c1.5-9.66-1.34-19.63-7.73-27.03-.63-.73-1.69.33-1.06,1.06,6.01,6.96,8.75,16.48,7.34,25.58-.15.94,1.3,1.35,1.45.4h0Z"/><path class="cls-1" d="m77.31,57.14c-9.88-1.25-19.35-4.85-27.6-10.42-.8-.54-1.55.76-.76,1.3,8.49,5.72,18.21,9.33,28.36,10.62.96.12.95-1.38,0-1.5h0Z"/><path class="cls-1" d="m89.34,82.39c-13.22-2.41-29-1.03-39.8-10.42-.73-.63-1.79.43-1.06,1.06,11.1,9.64,26.88,8.33,40.46,10.8.94.17,1.35-1.27.4-1.45h0Z"/><path class="cls-1" d="m101.58,114.38c-17.34,3.03-35.6-1.26-49.84-11.58-.78-.57-1.53.73-.76,1.3,11.3,8.19,25.16,12.66,39.11,12.74,3.98.02,7.96-.33,11.88-1.01.95-.17.55-1.61-.4-1.45h0Z"/><path class="cls-1" d="m218.6,193.2c4.17-7.67,12.33-11.86,20.13-14.97,9.57-3.81,19.48-6.75,29.57-8.8,9.54-1.94,19.18-2.87,28.87-3.61,8.93-.68,17.89-1.32,26.7-2.97,9.61-1.81,19.01-4.98,27.08-10.61.79-.55.04-1.85-.76-1.3-15.16,10.58-34.13,11.94-51.99,13.3-9.54.73-19.05,1.57-28.45,3.38-10.3,1.98-20.41,4.89-30.19,8.68-8.58,3.33-17.67,7.7-22.26,16.14-.46.85.83,1.61,1.3.76h0Z"/><path class="cls-1" d="m239.79,178.64c3.83-12.12,8.71-26.32,21.11-32.09.87-.41.11-1.7-.76-1.3-12.76,5.93-17.86,20.51-21.8,32.98-.29.92,1.16,1.32,1.45.4h0Z"/><path class="cls-1" d="m273.36,170.45c2.79-11.96,11.81-22.09,23.41-26.16.9-.32.52-1.77-.4-1.45-12.08,4.25-21.54,14.72-24.45,27.21-.22.94,1.23,1.34,1.45.4h0Z"/><path class="cls-1" d="m301.57,164.31c4.07-7.74,11.12-13.7,19.46-16.37.92-.29.52-1.74-.4-1.45-8.69,2.79-16.1,8.98-20.35,17.06-.45.85.85,1.61,1.3.76h0Z"/><path class="cls-1" d="m301.83,165.53c9.22,6.74,20.58,10.23,31.99,9.87.96-.03.97-1.53,0-1.5-11.17.36-22.21-3.07-31.23-9.66-.78-.57-1.53.73-.76,1.3h0Z"/><path class="cls-1" d="m273.03,168.21c11.09,9.67,23.02,19.39,37.27,23.89,3.98,1.25,8.08,2.03,12.24,2.29.96.06.96-1.44,0-1.5-14.71-.92-27.68-8.85-38.96-17.78-3.24-2.56-6.39-5.24-9.5-7.95-.72-.63-1.79.42-1.06,1.06h0Z"/><path class="cls-1" d="m240.42,178.77c8.03,6.73,15.99,13.56,24.15,20.13,3.84,3.1,7.77,6.1,11.86,8.87s8,5.18,12.42,6.93c4.75,1.88,9.93,2.73,14.92,1.3.93-.27.53-1.71-.4-1.45-9.16,2.62-18.26-2.78-25.6-7.69-8.11-5.42-15.53-11.78-23-18.03-4.43-3.71-8.85-7.41-13.28-11.12-.74-.62-1.8.44-1.06,1.06h0Z"/><path class="cls-1" d="m128.83,178.04c1.39-6.41,1.91-13.23,4.8-19.21,2.37-4.91,6.62-9.49,12.27-10.24.94-.13.96-1.63,0-1.5-5.82.78-10.34,4.97-13.05,9.99-3.41,6.31-3.97,13.66-5.46,20.56-.2.94,1.24,1.34,1.45.4h0Z"/><path class="cls-1" d="m145.45,148.24c8.1,1.8,15.7,10.13,24.5,6.5,3.51-1.45,6.04-4.48,8.19-7.5s4.31-6.44,6.86-9.38c2.91-3.35,6.39-6.21,10.77-7.31.94-.24.54-1.68-.4-1.45-7.22,1.82-12.01,7.93-16.05,13.77-2.22,3.22-4.32,6.76-7.53,9.1-3.79,2.77-8.24,2.43-12.43.77-4.6-1.82-8.63-4.87-13.52-5.95-.94-.21-1.34,1.24-.4,1.45h0Z"/><path class="cls-1" d="m147.63,147.74c3.58-6.6,4.62-15.23,10.46-20.41,3.43-3.05,8.06-3.87,12.51-3.85,4.97.02,9.98.78,14.89,1.54,5.92.92,11.79,2.14,17.6,3.62.94.24,1.34-1.21.4-1.45-5.41-1.38-10.88-2.53-16.4-3.43-5.1-.83-10.29-1.62-15.46-1.77-4.45-.12-9.15.43-12.92,2.97-3.27,2.21-5.39,5.56-6.97,9.1-1.9,4.26-3.17,8.8-5.4,12.91-.46.85.83,1.61,1.3.76h0Z"/><path class="cls-1" d="m200.53,125.93c-15.04-.38-29.14,7.23-41.9,14.38-3.46,1.94-6.8,4.14-9.42,7.15-.63.73.43,1.79,1.06,1.06,2.92-3.35,6.72-5.63,10.59-7.73,4.12-2.23,8.27-4.44,12.51-6.44,8.52-4.02,17.63-7.17,27.16-6.93.97.02.97-1.48,0-1.5h0Z"/><path class="cls-1" d="m178.03,121.35c-2.19,4.36-3.95,8.91-5.25,13.61-.26.93,1.19,1.33,1.45.4,1.26-4.58,2.96-9.01,5.09-13.25.43-.86-.86-1.62-1.3-.76h0Z"/><path class="cls-1" d="m164.74,122.27c-3.3,5.36-4.59,11.7-3.74,17.92.13.95,1.58.55,1.45-.4-.79-5.81.52-11.78,3.59-16.77.51-.82-.79-1.58-1.3-.76h0Z"/><path class="cls-1" d="m174.27,134.66c2.56,2.35,6.22,3.29,9.59,2.44.94-.24.54-1.68-.4-1.45-2.84.72-5.97-.06-8.13-2.05-.71-.65-1.77.41-1.06,1.06h0Z"/><path class="cls-1" d="m161.72,142.03c3.64,1.54,7.29,3.07,10.93,4.61,2.31.97,5.56,2.32,7.41-.16.58-.77-.72-1.52-1.3-.76-.74.99-2.24.7-3.26.41-1.39-.39-2.71-1.05-4.04-1.61-3.12-1.31-6.23-2.63-9.35-3.94-.89-.37-1.28,1.08-.4,1.45h0Z"/><path class="cls-1" d="m80.81,279.98c-7.48-4.64-16.54-6.22-25.15-4.45-.94.19-.54,1.64.4,1.45,8.22-1.7,16.87-.13,24,4.29.82.51,1.58-.79.76-1.3h0Z"/><path class="cls-1" d="m57.14,274c-4.63-5.56-9.99-11.06-17.06-13.34-7.59-2.45-15.61-.58-23.21.81-4.55.83-9.15,1.52-13.78,1.18-.96-.07-.96,1.43,0,1.5,7.75.58,15.26-1.71,22.87-2.74,3.79-.51,7.7-.7,11.47.1s6.93,2.48,9.86,4.72c3.31,2.53,6.12,5.65,8.78,8.83.62.74,1.68-.32,1.06-1.06h0Z"/><path class="cls-1" d="m56.63,275.58c-2.91,2.66-4.44,6.35-6.72,9.5-1.14,1.57-2.55,3.04-4.4,3.75-2.54.97-5.41.4-7.98-.18-9.52-2.14-17.91-7.58-25-14.14-4.1-3.8-7.82-7.99-11.29-12.38-.6-.76-1.65.31-1.06,1.06,6.39,8.07,13.72,15.65,22.59,21,4.28,2.58,8.92,4.61,13.79,5.77,2.46.59,5.12,1.14,7.65.75,2.06-.32,3.88-1.37,5.33-2.85,3.27-3.33,4.69-8.05,8.15-11.22.71-.65-.35-1.71-1.06-1.06h0Z"/><path class="cls-1" d="m56.3,274.6c-9.2-2.54-18.77-2.02-28.2-2.74-8.28-.63-16.96-2.41-23.45-7.93-.73-.62-1.8.43-1.06,1.06,14.6,12.42,35.24,6.33,52.3,11.05.93.26,1.33-1.19.4-1.45h0Z"/><path class="cls-1" d="m45.87,273.15c-3.26,5.89-7.87,13.57-15.73,12.77-.96-.1-.95,1.4,0,1.5,3.74.38,7.35-1.29,10.1-3.74,3-2.69,5-6.29,6.93-9.77.47-.85-.83-1.6-1.3-.76h0Z"/><path class="cls-1" d="m31.25,273.56c-1.5,2.34-3.2,4.54-5.12,6.56-1.45,1.53-3.86,3.87-6.07,2.23-.77-.58-1.52.72-.76,1.3,2.49,1.86,5.46-.01,7.29-1.85,2.25-2.26,4.23-4.79,5.95-7.48.52-.82-.78-1.57-1.3-.76h0Z"/><path class="cls-1" d="m46.84,274.2c-.36-6.01-3.84-11.63-9.11-14.57-.84-.47-1.6.82-.76,1.3,4.79,2.68,8.04,7.78,8.37,13.27.06.96,1.56.97,1.5,0h0Z"/><path class="cls-1" d="m33.87,272.75c-2.34-5.27-6.14-9.8-10.89-13.07-.8-.55-1.55.75-.76,1.3,4.54,3.13,8.11,7.5,10.35,12.53.39.88,1.68.12,1.3-.76h0Z"/><path class="cls-1" d="m81.94,280.91c1.46-6.88,4.86-13.22,9.81-18.22.68-.69-.38-1.75-1.06-1.06-5.12,5.17-8.69,11.76-10.2,18.88-.2.94,1.25,1.34,1.45.4h0Z"/><path class="cls-1" d="m91.7,262.74c3.32,2.34,7.64,2.22,11.49,1.69s7.54-1.96,10.05-5.08c5.35-6.66,3.89-15.87,7.52-23.25.43-.86-.87-1.62-1.3-.76-3.36,6.81-2.37,15.03-6.35,21.58-2.05,3.37-5.27,5.15-9.09,5.86s-8.28.98-11.57-1.34c-.79-.56-1.54.74-.76,1.3h0Z"/><path class="cls-1" d="m92.28,261.77c.54-6.53,1.21-14,5.98-18.99,2.58-2.7,6.07-4.28,9.47-5.69,3.58-1.49,7.23-2.6,11.03-3.39,3.23-.67,6.53-1.52,8.58-4.32.57-.78-.73-1.53-1.3-.76-1.98,2.71-5.67,3.2-8.73,3.85-3.94.83-7.72,2.19-11.41,3.78-3.26,1.41-6.52,3.08-8.95,5.75-2.15,2.37-3.54,5.3-4.42,8.36-1.06,3.71-1.43,7.59-1.74,11.42-.08.96,1.42.96,1.5,0h0Z"/><path class="cls-1" d="m92.52,263.05c8.83-10.86,18.67-20.87,29.37-29.89.74-.62-.33-1.68-1.06-1.06-10.7,9.02-20.54,19.03-29.37,29.89-.6.74.45,1.81,1.06,1.06h0Z"/><path class="cls-1" d="m96.01,258.66c7.53,1.49,15.46-.72,21.13-5.89.71-.65-.35-1.71-1.06-1.06-5.25,4.79-12.69,6.89-19.67,5.51-.94-.19-1.35,1.26-.4,1.45h0Z"/><path class="cls-1" d="m105.28,247.31c3.94,1.88,8.5,1.94,12.49.19.88-.39.12-1.68-.76-1.3-3.47,1.51-7.57,1.43-10.98-.19-.87-.41-1.63.88-.76,1.3h0Z"/><path class="cls-1" d="m106.74,246.22c-.37-2.98-.47-5.98-.32-8.97.05-.96-1.45-.96-1.5,0-.15,2.99-.05,6,.32,8.97.05.4.31.75.75.75.37,0,.8-.35.75-.75h0Z"/><path class="cls-1" d="m97.75,255.46c1.24-4.81,2.48-9.62,3.72-14.43.24-.94-1.2-1.33-1.45-.4-1.24,4.81-2.48,9.62-3.72,14.43-.24.94,1.2,1.33,1.45.4h0Z"/><path class="cls-1" d="m82.09,412.21c2.28-6.68,7.89-11.59,14.17-14.49,7.54-3.49,16.04-4.15,24.22-4.66.96-.06.97-1.56,0-1.5-8.58.54-17.45,1.28-25.32,5.02-6.5,3.09-12.15,8.3-14.51,15.23-.31.92,1.14,1.31,1.45.4h0Z"/><path class="cls-1" d="m122.17,392.62c-.16-4.13,3.61-6.76,6.96-8.34,4.25-2,9.12-3.26,13.83-3.32,8.95-.12,17.39,3.6,25.76,6.29,4.71,1.51,9.51,2.75,14.47,3.03.96.05.96-1.45,0-1.5-9.72-.55-18.62-4.91-27.88-7.47-4.4-1.22-8.98-2.06-13.56-1.8s-9.62,1.61-13.85,3.72c-3.67,1.83-7.4,4.92-7.22,9.4.04.96,1.54.97,1.5,0h0Z"/><path class="cls-1" d="m120.04,392.44c1.22,4.5,2.66,9.32,5.15,13.31,2.18,3.5,5.53,5.59,9.74,4.99,2.42-.35,4.67-1.35,6.87-2.37,2.47-1.15,4.93-2.3,7.4-3.45,4.93-2.3,9.87-4.61,14.8-6.91,5.61-2.62,11.22-5.23,16.82-7.85.87-.41.11-1.7-.76-1.3-9.12,4.26-18.24,8.51-27.37,12.77-4.42,2.06-8.8,4.25-13.28,6.18-2.22.95-4.7,1.83-7.14,1.48-2.09-.3-3.77-1.53-5.03-3.17-1.4-1.82-2.31-3.99-3.15-6.11-1.03-2.6-1.89-5.26-2.62-7.96-.25-.93-1.7-.54-1.45.4h0Z"/><path class="cls-1" d="m121.49,395.53c4.28.79,8.62.14,12.91-.29s8.94-.9,13.41-1.36c9.11-.92,18.21-1.84,27.32-2.76.95-.1.96-1.6,0-1.5-8.94.9-17.88,1.81-26.82,2.71-4.47.45-8.94.9-13.41,1.36s-8.73,1.19-13.01.39c-.94-.17-1.35,1.27-.4,1.45h0Z"/><path class="cls-1" d="m158.51,383.12c-2.23,2.96-5.2,5.32-8.55,6.89-.37.17-.46.7-.27,1.03.22.38.66.44,1.03.27,3.6-1.69,6.7-4.26,9.09-7.43.24-.32.05-.84-.27-1.03-.38-.22-.78-.06-1.03.27h0Z"/><path class="cls-1" d="m142.7,381c-1.67,4.22-3.95,8.18-6.72,11.77-.25.32-.05.84.27,1.03.38.23.78.05,1.03-.27,2.86-3.7,5.15-7.79,6.88-12.13.36-.9-1.09-1.29-1.45-.4h0Z"/><path class="cls-1" d="m157.28,398.82c-2.31-.59-4.35-1.91-5.86-3.75-.37-.45-.7-.94-.99-1.45s-.48-1.06-.76-1.56c-.32-.56-.92-.98-1.58-.78-.72.22-1.03.95-.72,1.61.17.37.7.46,1.03.27.38-.22.44-.66.27-1.03l-.04-.09.1.38c-.03.23-.13.31-.31.25-.16-.05-.19-.04-.11.03,0,.06.15.29.18.35.1.22.19.45.3.67.22.44.46.87.74,1.28.57.86,1.24,1.65,2,2.34,1.52,1.39,3.37,2.41,5.37,2.92.94.24,1.34-1.21.4-1.45h0Z"/><path class="cls-1" d="m144.68,406.09c-4.39-2.55-5.76-7.98-6.85-12.58-.22-.94-1.67-.54-1.45.4,1.19,5.01,2.78,10.71,7.54,13.47.84.49,1.59-.81.76-1.3h0Z"/><path class="cls-1" d="m116.14,284.44c.69-1.9,2.56-2.95,4.32-3.71,2.04-.89,4.17-1.59,6.3-2.2,4.23-1.21,8.59-1.94,12.99-2.2,8.81-.5,17.64.92,25.83,4.19.9.36,1.29-1.09.4-1.45-13.74-5.48-29.45-5.8-43.38-.78-3.09,1.11-6.69,2.4-7.91,5.75-.33.91,1.12,1.3,1.45.4h0Z"/><path class="cls-1" d="m166.77,280.51c3.9-2.22,8.53-2.08,12.87-1.72,3.86.33,7.84.99,11.35,2.69s6.18,4.44,7.54,8.12c1.28,3.47,1.59,7.21,2.17,10.84.63,3.92,1.64,7.79,4.28,10.87.63.73,1.69-.33,1.06-1.06-5.22-6.1-3.44-15.16-6.53-22.2-3.31-7.56-11.58-9.96-19.15-10.7-4.83-.47-10-.62-14.35,1.85-.84.48-.08,1.77.76,1.3h0Z"/><path class="cls-1" d="m207.47,310.25c-4.36-.18-8.71-.36-13.06-.71-3.98-.32-8.14-.57-11.96-1.81-7.02-2.29-11.96-9.72-14.01-16.51-1.18-3.91-1.48-8.04-.73-12.07.18-.94-1.27-1.35-1.45-.4-1.38,7.4.54,15.06,4.73,21.25,2.14,3.16,4.9,6.24,8.32,8.03,3.65,1.9,7.88,2.31,11.9,2.71,5.4.55,10.83.77,16.25,1,.97.04.96-1.46,0-1.5h0Z"/><path class="cls-1" d="m167.06,281.1c7.67,2.72,15.12,5.65,20.67,11.84,2.69,3,5,6.32,7.78,9.25s5.87,5.49,9.22,7.71c.81.54,1.56-.76.76-1.3-3.49-2.32-6.69-5.03-9.51-8.12s-5.19-6.55-8.07-9.57c-5.55-5.82-13.03-8.64-20.44-11.26-.91-.32-1.3,1.13-.4,1.45h0Z"/><path class="cls-1" d="m179.94,285.98c5.24-1.48,10.74-1.79,16.11-.86.94.16,1.35-1.28.4-1.45-5.64-.98-11.4-.7-16.91.86-.93.26-.53,1.71.4,1.45h0Z"/><path class="cls-1" d="m192.59,296.79c3.26,0,6.52,0,9.78,0,.97,0,.97-1.5,0-1.5-3.26,0-6.52,0-9.78,0-.97,0-.97,1.5,0,1.5h0Z"/><path class="cls-1" d="m191.75,297.01c-3.24,3.13-4.14,8.15-2.31,12.24.39.88,1.69.12,1.3-.76-1.55-3.48-.64-7.8,2.08-10.43.7-.67-.37-1.73-1.06-1.06h0Z"/><path class="cls-1" d="m178.39,286.5c-2.3,3.44-3.67,7.44-4,11.56-.15,1.87-.26,4.15.35,5.96.48,1.42,2.4,2.33,3.37.79.51-.82-.78-1.57-1.3-.76-.41.66-.85-1.58-.86-1.71-.08-.69-.12-1.38-.13-2.06-.03-1.56.1-3.12.4-4.65.59-3,1.76-5.83,3.46-8.37.54-.8-.76-1.56-1.3-.76h0Z"/><path class="cls-1" d="m125.29,343.56c2.51-2.68,4.64-5.73,6.18-9.07.87-1.89,1.73-5.35-.9-6.31-3.15-1.14-4.98,3.35-5.88,5.5-1.48,3.54-2.35,7.27-2.68,11.1-.06.71.83.9,1.28.53,1.03-.85.83-2.23.38-3.34-.63-1.58-1.5-3.09-2.43-4.5-1.84-2.8-4.14-5.29-6.78-7.34-1.11-.86-2.47-2.09-3.96-2.13-1.29-.03-2.15,1-2.06,2.24.11,1.39,1.11,2.65,1.83,3.79.88,1.39,1.79,2.75,2.8,4.04,2.21,2.82,4.9,5.2,8.34,6.35.83.28,1.27-.93.58-1.37-5.96-3.79-13-.69-17.86,3.4-.95.8-2.68,1.89-2.94,3.21-.21,1.09.63,1.87,1.59,2.15,1.33.39,2.82,0,4.14-.27,1.71-.34,3.39-.81,5.02-1.4,3.67-1.33,7.06-3.25,10.13-5.66l-1.28-.53c-.08,2.31-.16,4.63-.23,6.94-.07,2.18-.31,4.43-.14,6.61.12,1.49.53,3,1.68,4.03,1.01.91,2.48,1.38,3.77.83,2.55-1.08,2.16-4.39,1.43-6.52-1.45-4.26-3.34-8.42-5.01-12.6l-1.1.85c4.24,2.21,8.45,4.46,12.72,6.62,1.58.8,3.32,1.53,5.12,1.07,1.35-.35,2.49-1.36,2.71-2.77.57-3.57-4.05-5.4-6.73-6.07-4.08-1.02-8.37-.86-12.38.39-.92.29-.53,1.74.4,1.45,3.26-1.02,6.7-1.3,10.07-.72,1.51.26,3.12.64,4.49,1.34,1.18.6,2.93,1.86,2.66,3.4-.31,1.72-2.47,1.79-3.78,1.39-1.69-.52-3.27-1.55-4.83-2.36-3.23-1.68-6.46-3.36-9.69-5.04-.52-.27-1.36.19-1.1.85,1.29,3.24,2.58,6.48,3.87,9.71.69,1.74,2.77,5.5,1.1,7.27-1.09,1.16-2.8.05-3.39-1.06-.78-1.47-.56-3.35-.5-4.95.12-3.55.24-7.11.36-10.66.02-.71-.81-.9-1.28-.53-2.74,2.16-5.81,3.91-9.08,5.13-1.56.59-3.17,1.06-4.8,1.42-.64.14-4.92,1.17-4.24-.37.25-.56,1.34-1.25,1.81-1.66.71-.61,1.43-1.21,2.19-1.75,1.44-1.04,2.99-1.95,4.67-2.55,3.18-1.14,6.77-1.13,9.67.72l.58-1.37c-2.94-.98-5.27-3.01-7.21-5.38-1-1.22-1.89-2.52-2.74-3.84-.43-.66-3.01-3.99-1.22-4.24.6-.08,1.65.86,2.12,1.2.7.5,1.37,1.03,2.01,1.59,1.19,1.04,2.29,2.17,3.3,3.38s1.91,2.51,2.71,3.88c.53.9,2.53,3.79,1.45,4.68l1.28.53c.24-2.86.82-5.67,1.74-8.38.46-1.36,1.01-2.69,1.65-3.98.51-1.03,1.42-2.95,2.81-2.9,2.73.1,0,5.23-.51,6.15-1.36,2.49-3.03,4.77-4.97,6.83-.66.7.4,1.77,1.06,1.06h0Z"/><path class="cls-1" d="m188.97,240.44c2.51-2.68,4.64-5.73,6.18-9.07.87-1.89,1.73-5.35-.9-6.31-3.15-1.14-4.98,3.35-5.88,5.5-1.48,3.54-2.35,7.27-2.68,11.1-.06.71.83.9,1.28.53,1.03-.85.83-2.23.38-3.34-.63-1.58-1.5-3.09-2.43-4.5-1.84-2.8-4.14-5.29-6.78-7.34-1.11-.86-2.47-2.09-3.96-2.13-1.29-.03-2.15,1-2.06,2.24.11,1.39,1.11,2.65,1.83,3.79.88,1.39,1.79,2.75,2.8,4.04,2.21,2.82,4.9,5.2,8.34,6.35.83.28,1.27-.93.58-1.37-5.96-3.79-13-.69-17.86,3.4-.95.8-2.68,1.89-2.94,3.21-.21,1.09.63,1.87,1.59,2.15,1.33.39,2.82,0,4.14-.27,1.71-.34,3.39-.81,5.02-1.4,3.67-1.33,7.06-3.25,10.13-5.66l-1.28-.53c-.08,2.31-.16,4.63-.23,6.94-.07,2.18-.31,4.43-.14,6.61.12,1.49.53,3,1.68,4.03,1.01.91,2.48,1.38,3.77.83,2.55-1.08,2.16-4.39,1.43-6.52-1.45-4.26-3.34-8.42-5.01-12.6l-1.1.85c4.24,2.21,8.45,4.46,12.72,6.62,1.58.8,3.32,1.53,5.12,1.07,1.35-.35,2.49-1.36,2.71-2.77.57-3.57-4.05-5.4-6.73-6.07-4.08-1.02-8.37-.86-12.38.39-.92.29-.53,1.74.4,1.45,3.26-1.02,6.7-1.3,10.07-.72,1.51.26,3.12.64,4.49,1.34,1.18.6,2.93,1.86,2.66,3.4-.31,1.72-2.47,1.79-3.78,1.39-1.69-.52-3.27-1.55-4.83-2.36-3.23-1.68-6.46-3.36-9.69-5.04-.52-.27-1.36.19-1.1.85,1.29,3.24,2.58,6.48,3.87,9.71.69,1.74,2.77,5.5,1.1,7.27-1.09,1.16-2.8.05-3.39-1.06-.78-1.47-.56-3.35-.5-4.95.12-3.55.24-7.11.36-10.66.02-.71-.81-.9-1.28-.53-2.74,2.16-5.81,3.91-9.08,5.13-1.56.59-3.17,1.06-4.8,1.42-.64.14-4.92,1.17-4.24-.37.25-.56,1.34-1.25,1.81-1.66.71-.61,1.43-1.21,2.19-1.75,1.44-1.04,2.99-1.95,4.67-2.55,3.18-1.14,6.77-1.13,9.67.72l.58-1.37c-2.94-.98-5.27-3.01-7.21-5.38-1-1.22-1.89-2.52-2.74-3.84-.43-.66-3.01-3.99-1.22-4.24.6-.08,1.65.86,2.12,1.2.7.5,1.37,1.03,2.01,1.59,1.19,1.04,2.29,2.17,3.3,3.38s1.91,2.51,2.71,3.88c.53.9,2.53,3.79,1.45,4.68l1.28.53c.24-2.86.82-5.67,1.74-8.38.46-1.36,1.01-2.69,1.65-3.98.51-1.03,1.42-2.95,2.81-2.9,2.73.1,0,5.23-.51,6.15-1.36,2.49-3.03,4.77-4.97,6.83-.66.7.4,1.77,1.06,1.06h0Z"/><path class="cls-1" d="m94.13,171.3c2.51-2.68,4.64-5.73,6.18-9.07.87-1.89,1.73-5.35-.9-6.31-3.15-1.14-4.98,3.35-5.88,5.5-1.48,3.54-2.35,7.27-2.68,11.1-.06.71.83.9,1.28.53,1.03-.85.83-2.23.38-3.34-.63-1.58-1.5-3.09-2.43-4.5-1.84-2.8-4.14-5.29-6.78-7.34-1.11-.86-2.47-2.09-3.96-2.13-1.29-.03-2.15,1-2.06,2.24.11,1.39,1.11,2.65,1.83,3.79.88,1.39,1.79,2.75,2.8,4.04,2.21,2.82,4.9,5.2,8.34,6.35.83.28,1.27-.93.58-1.37-5.96-3.79-13-.69-17.86,3.4-.95.8-2.68,1.89-2.94,3.21-.21,1.09.63,1.87,1.59,2.15,1.33.39,2.82,0,4.14-.27,1.71-.34,3.39-.81,5.02-1.4,3.67-1.33,7.06-3.25,10.13-5.66l-1.28-.53c-.08,2.31-.16,4.63-.23,6.94-.07,2.18-.31,4.43-.14,6.61.12,1.49.53,3,1.68,4.03,1.01.91,2.48,1.38,3.77.83,2.55-1.08,2.16-4.39,1.43-6.52-1.45-4.26-3.34-8.42-5.01-12.6l-1.1.85c4.24,2.21,8.45,4.46,12.72,6.62,1.58.8,3.32,1.53,5.12,1.07,1.35-.35,2.49-1.36,2.71-2.77.57-3.57-4.05-5.4-6.73-6.07-4.08-1.02-8.37-.86-12.38.39-.92.29-.53,1.74.4,1.45,3.26-1.02,6.7-1.3,10.07-.72,1.51.26,3.12.64,4.49,1.34,1.18.6,2.93,1.86,2.66,3.4-.31,1.72-2.47,1.79-3.78,1.39-1.69-.52-3.27-1.55-4.83-2.36-3.23-1.68-6.46-3.36-9.69-5.04-.52-.27-1.36.19-1.1.85,1.29,3.24,2.58,6.48,3.87,9.71.69,1.74,2.77,5.5,1.1,7.27-1.09,1.16-2.8.05-3.39-1.06-.78-1.47-.56-3.35-.5-4.95.12-3.55.24-7.11.36-10.66.02-.71-.81-.9-1.28-.53-2.74,2.16-5.81,3.91-9.08,5.13-1.56.59-3.17,1.06-4.8,1.42-.64.14-4.92,1.17-4.24-.37.25-.56,1.34-1.25,1.81-1.66.71-.61,1.43-1.21,2.19-1.75,1.44-1.04,2.99-1.95,4.67-2.55,3.18-1.14,6.77-1.13,9.67.72l.58-1.37c-2.94-.98-5.27-3.01-7.21-5.38-1-1.22-1.89-2.52-2.74-3.84-.43-.66-3.01-3.99-1.22-4.24.6-.08,1.65.86,2.12,1.2.7.5,1.37,1.03,2.01,1.59,1.19,1.04,2.29,2.17,3.3,3.38s1.91,2.51,2.71,3.88c.53.9,2.53,3.79,1.45,4.68l1.28.53c.24-2.86.82-5.67,1.74-8.38.46-1.36,1.01-2.69,1.65-3.98.51-1.03,1.42-2.95,2.81-2.9,2.73.1,0,5.23-.51,6.15-1.36,2.49-3.03,4.77-4.97,6.83-.66.7.4,1.77,1.06,1.06h0Z"/><path class="cls-1" d="m120.54,344.21c-1.79,3.31-4.13,6.24-6.4,9.22s-4.47,6.3-6.29,9.74c-3.97,7.5-7.49,15.26-11.19,22.89-2.13,4.4-4.26,8.79-6.39,13.19-.42.86.87,1.63,1.3.76,3.76-7.75,7.51-15.5,11.27-23.24,3.54-7.3,6.8-14.83,11.68-21.36,2.55-3.4,5.29-6.67,7.32-10.43.46-.85-.83-1.61-1.3-.76h0Z"/><path class="cls-1" d="m92.31,173.25c15.11,7.17,27.54,19.47,35.05,34.39,2.11,4.2,3.81,8.59,5.08,13.12.26.93,1.71.53,1.45-.4-4.6-16.34-14.8-30.88-28.43-40.98-3.88-2.87-8.03-5.36-12.4-7.43-.87-.41-1.63.88-.76,1.3h0Z"/><path class="cls-1" d="m184.72,241.87c-13.37,8.99-25.32,19.99-35.35,32.59-.6.75.46,1.82,1.06,1.06,9.95-12.5,21.78-23.44,35.05-32.36.8-.54.05-1.84-.76-1.3h0Z"/></svg>