<?xml version="1.0" encoding="UTF-8"?><svg id="Layer_3" xmlns="http://www.w3.org/2000/svg" width="362.3" height="472.43" viewBox="0 0 362.3 472.43"><defs><style>.cls-1{fill:#1b542e;stroke-width:0px;}</style></defs><path class="cls-1" d="m259.18,472.09c12.56-19.04,20.41-40.98,23.17-63.6,2.75-22.61.13-45.41-7.32-66.91s-18.12-40.67-27.52-60.84c-9.31-19.97-17.45-41.09-18.03-63.38-.65-25.16,8.96-49.01,20.46-70.91,1.44-2.75,2.92-5.47,4.42-8.19.47-.85-.83-1.6-1.3-.76-11.84,21.45-22.72,44.38-24.78,69.13-1.83,21.97,4.3,43.35,12.8,63.39,8.79,20.71,19.95,40.33,28.43,61.17,4.23,10.4,7.76,21.11,9.88,32.16s2.95,23.08,2.36,34.68c-1.18,23.11-7.78,45.97-19.36,66.02-1.43,2.47-2.93,4.89-4.5,7.28-.53.81.77,1.56,1.3.76h0Z"/><path class="cls-1" d="m234.07,248.61c-7.44-11.24-16.58-21.33-27.06-29.82-11.17-9.04-23.8-16.12-37.14-21.42-7.85-3.12-15.95-5.57-24.2-7.38-.94-.21-1.34,1.24-.4,1.45,27.76,6.07,53.99,19.6,73.58,40.36,5.14,5.44,9.79,11.32,13.92,17.56.53.8,1.83.05,1.3-.76h0Z"/><path class="cls-1" d="m276.91,349.02c-3.27-6.09-3.52-13.22-3.56-19.98s.43-13.36,1.39-19.97c1.92-13.14,5.75-26.02,11.36-38.06,3.15-6.77,6.87-13.26,11.1-19.42.55-.8-.75-1.55-1.3-.76-15.36,22.38-23.84,49.34-24.05,76.49-.06,7.56.1,15.64,3.76,22.46.46.85,1.75.09,1.3-.76h0Z"/><path class="cls-1" d="m297.66,249.6c-3.86-7.13-7.86-14.5-9.06-22.63s.84-16.44,4.13-23.93,7.44-14.41,12.16-20.88c5-6.85,11.36-12.13,17.98-17.34,8.01-6.3,16.02-12.61,24.03-18.91.76-.6-.31-1.65-1.06-1.06-7.36,5.79-14.72,11.58-22.07,17.37-6.75,5.31-13.52,10.53-18.81,17.38s-9.49,13.92-12.96,21.46-5.73,15.33-5.15,23.47c.67,9.34,5.15,17.75,9.52,25.82.46.85,1.76.09,1.3-.76h0Z"/><path class="cls-1" d="m296.41,251.05c7.63,2.46,16.03,1.96,23.42-1.11,7.56-3.14,13.53-8.87,17.25-16.14,3.91-7.64,5.38-16.25,6.2-24.71.98-10.1,1.36-20.28,1.98-30.41.75-12.36,1.5-24.71,2.25-37.07.06-.96-1.44-.96-1.5,0-1.26,20.71-2.34,41.44-3.79,62.14-1.13,16.05-4.09,34.51-19.49,43.13-7.83,4.38-17.36,5.48-25.91,2.72-.92-.3-1.32,1.15-.4,1.45h0Z"/><path class="cls-1" d="m254.57,136.32c-6.16-19.73-9.14-41.98-1.98-61.87,3.6-9.99,9.92-18.38,17.62-25.59s16.27-13.23,24.33-19.94c9.8-8.15,18.53-17.5,25.98-27.85.57-.78-.74-1.53-1.3-.76-6.85,9.51-14.82,18.2-23.72,25.84-8.12,6.97-16.93,13.09-24.87,20.27-7.71,6.97-14.31,15-18.34,24.66s-5.5,20.03-5.31,30.36c.21,11.98,2.58,23.86,6.14,35.26.29.92,1.74.53,1.45-.4h0Z"/><path class="cls-1" d="m145.96,189.11c-3.85-10.66-9.88-20.48-17.72-28.68s-17.24-14.69-28.22-17.34c-20.36-4.92-41.12,2.64-61.23,5.31-11.35,1.51-23.16,1.54-33.79-3.23-.87-.39-1.64.9-.76,1.3,18.85,8.45,39.79,2.59,59.08-.94,10.02-1.83,20.33-3.31,30.52-2.05,11.19,1.38,21.16,6.66,29.44,14.2,9.54,8.68,16.85,19.71,21.23,31.83.33.9,1.78.51,1.45-.4h0Z"/><path class="cls-1" d="m147.18,190.48c-9.07,9.6-19.52,17.84-30.98,24.39s-25.11,12.44-38.59,9.12c-10.65-2.62-18.97-10.32-25.7-18.62-7.5-9.23-13.5-19.56-20.51-29.16-8.86-12.13-18.77-23.52-30.09-33.42-.72-.63-1.79.42-1.06,1.06,10.55,9.23,19.9,19.74,28.27,30.96,7.28,9.75,13.46,20.29,20.95,29.88,6.61,8.46,14.65,16.48,25.06,19.96,12.88,4.3,26.29.01,37.86-6,13.36-6.94,25.51-16.18,35.86-27.12.66-.7-.4-1.76-1.06-1.06h0Z"/><path class="cls-1" d="m254.87,136.8c10.6,2.47,21.95,1.78,31.96-2.61s17.06-11.92,21.86-21.15c11.26-21.67,7.73-46.48,4.96-69.71-.81-6.77-1.78-13.64-1.57-20.48.18-6.02,1.49-12.22,5.66-16.8.65-.71-.41-1.78-1.06-1.06-7.25,7.95-6.49,19.59-5.5,29.54,1.31,13.2,3.53,26.32,3.83,39.6.46,20.64-4.94,44.5-23.79,56.07-10.65,6.54-23.9,7.95-35.94,5.15-.94-.22-1.34,1.23-.4,1.45h0Z"/><path class="cls-1" d="m296.57,249.22c-.19-7.39.82-14.77,3.03-21.83s5.72-13.59,9.4-19.99c7.75-13.47,15.62-26.86,23.43-40.29,4.43-7.62,8.86-15.23,13.29-22.85.49-.84-.81-1.59-1.3-.76-8.02,13.79-16.05,27.59-24.07,41.38-3.91,6.72-7.82,13.43-11.72,20.15-3.68,6.35-7.29,12.8-9.74,19.75-2.76,7.83-4.03,16.15-3.82,24.44.02.96,1.52.97,1.5,0h0Z"/><path class="cls-1" d="m298.38,229.09c-5.49-8.2-7.22-18.55-4.65-28.09.25-.93-1.19-1.33-1.45-.4-2.67,9.9-.91,20.72,4.8,29.24.53.8,1.83.05,1.3-.76h0Z"/><path class="cls-1" d="m307.84,211.02c-6.78-10.16-4.1-23.22-1.55-34.31.22-.94-1.23-1.34-1.45-.4-2.64,11.48-5.31,24.97,1.7,35.47.53.8,1.83.05,1.3-.76h0Z"/><path class="cls-1" d="m315.97,191.41c-1.78-8.52.29-17.5,5.52-24.44.58-.77-.72-1.52-1.3-.76-5.47,7.26-7.53,16.71-5.67,25.6.2.94,1.64.54,1.45-.4h0Z"/><path class="cls-1" d="m318.43,193.04c10.66-3.23,20.22-9.64,27.24-18.3.6-.74-.45-1.81-1.06-1.06-6.86,8.47-16.14,14.75-26.57,17.91-.92.28-.53,1.73.4,1.45h0Z"/><path class="cls-1" d="m306.75,208.95c12.68-1.37,25.04-4.76,36.65-10.05.88-.4.12-1.69-.76-1.3-11.35,5.17-23.5,8.5-35.89,9.84-.95.1-.96,1.6,0,1.5h0Z"/><path class="cls-1" d="m298.45,227.13c14.05,3.4,28.91,2.75,42.6-1.89.91-.31.52-1.76-.4-1.45-13.44,4.56-28,5.23-41.8,1.89-.94-.23-1.34,1.22-.4,1.45h0Z"/><path class="cls-1" d="m255.48,134.66c4.29-16.95,10.07-33.52,17.3-49.45s15.85-31.19,25.78-45.58c5.46-7.92,11.75-15.51,14.89-24.74.31-.92-1.14-1.31-1.45-.4-2.83,8.32-8.36,15.27-13.35,22.38s-9.68,14.47-14.03,22c-8.69,15.07-16.05,30.91-21.97,47.26-3.34,9.22-6.21,18.61-8.62,28.12-.24.94,1.21,1.34,1.45.4h0Z"/><path class="cls-1" d="m260.41,114.51c-7.29-17.08-4.27-36.27-1.35-53.97.16-.94-1.29-1.35-1.45-.4-3,18.16-5.97,37.62,1.5,55.13.38.89,1.67.12,1.3-.76h0Z"/><path class="cls-1" d="m272.78,84.79c-7.68-11.88-7.74-27.92-.13-39.86.52-.82-.78-1.57-1.3-.76-7.88,12.36-7.82,29.06.13,41.37.52.81,1.82.06,1.3-.76h0Z"/><path class="cls-1" d="m283.75,59.03c-1.41-9.09,1.33-18.61,7.34-25.58.63-.73-.43-1.79-1.06-1.06-6.39,7.41-9.23,17.37-7.73,27.03.15.95,1.59.55,1.45-.4h0Z"/><path class="cls-1" d="m284.99,58.64c10.15-1.29,19.87-4.9,28.36-10.62.8-.54.05-1.84-.76-1.3-8.25,5.56-17.72,9.16-27.6,10.42-.94.12-.96,1.62,0,1.5h0Z"/><path class="cls-1" d="m273.36,83.84c13.58-2.47,29.37-1.16,40.46-10.8.73-.63-.33-1.69-1.06-1.06-10.8,9.38-26.58,8.01-39.8,10.42-.95.17-.55,1.62.4,1.45h0Z"/><path class="cls-1" d="m260.31,115.82c13.71,2.39,27.99.41,40.56-5.54,3.66-1.73,7.15-3.81,10.44-6.19.77-.56.03-1.86-.76-1.3-14.24,10.32-32.5,14.61-49.84,11.58-.94-.16-1.35,1.28-.4,1.45h0Z"/><path class="cls-1" d="m144.99,192.44c-4.05-7.45-11.69-11.77-19.26-14.93-9.42-3.94-19.29-6.93-29.28-9.09s-19.16-3.15-28.86-3.9-18.47-1.28-27.58-2.89c-9.91-1.76-19.6-4.87-27.91-10.67-.79-.55-1.54.75-.76,1.3,14.73,10.28,33.09,11.99,50.48,13.33,9.53.74,19.05,1.45,28.48,3.15,10.16,1.84,20.16,4.58,29.84,8.19,8.92,3.32,18.78,7.49,23.56,16.28.46.85,1.76.09,1.3-.76h0Z"/><path class="cls-1" d="m123.95,178.24c-3.94-12.47-9.04-27.05-21.8-32.98-.87-.4-1.63.89-.76,1.3,12.4,5.77,17.28,19.97,21.11,32.09.29.92,1.74.53,1.45-.4h0Z"/><path class="cls-1" d="m90.38,170.05c-2.91-12.48-12.37-22.96-24.45-27.21-.91-.32-1.3,1.13-.4,1.45,11.6,4.08,20.62,14.2,23.41,26.16.22.94,1.67.54,1.45-.4h0Z"/><path class="cls-1" d="m62.02,163.55c-4.25-8.08-11.66-14.27-20.35-17.06-.92-.3-1.32,1.15-.4,1.45,8.33,2.67,15.38,8.63,19.46,16.37.45.85,1.74.1,1.3-.76h0Z"/><path class="cls-1" d="m59.71,164.24c-9.02,6.59-20.06,10.02-31.23,9.66-.97-.03-.96,1.47,0,1.5,11.41.36,22.77-3.13,31.99-9.87.77-.56.02-1.87-.76-1.3h0Z"/><path class="cls-1" d="m88.21,167.15c-10.84,9.45-22.51,18.99-36.42,23.44-3.91,1.25-7.94,2.04-12.04,2.29-.96.06-.97,1.56,0,1.5,14.92-.93,28.03-8.8,39.52-17.82,3.42-2.68,6.72-5.49,10-8.35.73-.64-.34-1.69-1.06-1.06h0Z"/><path class="cls-1" d="m120.82,177.71c-7.68,6.43-15.29,12.94-23.07,19.25-7.28,5.92-15,12.09-23.67,15.86-4.77,2.07-10.05,3.19-15.15,1.73-.93-.27-1.33,1.18-.4,1.45,9.11,2.61,18.17-2.23,25.6-7.07,8.39-5.47,16.04-11.98,23.7-18.4,4.68-3.92,9.36-7.84,14.04-11.76.74-.62-.32-1.68-1.06-1.06h0Z"/><path class="cls-1" d="m234.91,177.64c-1.49-6.89-2.05-14.25-5.46-20.56-2.72-5.02-7.23-9.21-13.05-9.99-.95-.13-.94,1.37,0,1.5,5.65.76,9.89,5.33,12.27,10.24,2.89,5.97,3.41,12.8,4.8,19.21.2.94,1.65.54,1.45-.4h0Z"/><path class="cls-1" d="m216.45,146.8c-7.91,1.76-16.3,10.73-24.69,5.99-3.47-1.96-5.74-5.45-7.93-8.66-2.06-3.03-4.19-6.06-6.74-8.72-2.81-2.93-6.18-5.3-10.16-6.3-.94-.24-1.34,1.21-.4,1.45,7.8,1.97,12.48,9.18,16.75,15.42,2.13,3.11,4.5,6.36,7.89,8.2,3.7,2.02,7.91,1.62,11.74.18,4.77-1.79,8.92-5,13.94-6.11.94-.21.54-1.66-.4-1.45h0Z"/><path class="cls-1" d="m215.96,146.98c-3.75-6.91-4.8-15.95-11.22-21.16-3.46-2.81-7.86-3.76-12.23-3.84-5.05-.1-10.16.69-15.15,1.44-6.25.94-12.44,2.2-18.56,3.76-.93.24-.54,1.69.4,1.45,9.95-2.54,20.35-4.64,30.63-5.11,4.46-.2,9.18.17,12.99,2.74,3.25,2.19,5.22,5.69,6.72,9.21,1.74,4.08,2.99,8.35,5.12,12.26.46.85,1.76.09,1.3-.76h0Z"/><path class="cls-1" d="m161.76,127.43c9.53-.24,18.64,2.9,27.16,6.93,4.18,1.97,8.26,4.14,12.32,6.34s7.81,4.42,10.77,7.83c.63.73,1.69-.33,1.06-1.06-4.69-5.39-11.7-8.48-17.93-11.69-6.68-3.45-13.59-6.66-20.93-8.44-4.08-.99-8.26-1.51-12.46-1.4-.96.02-.97,1.52,0,1.5h0Z"/><path class="cls-1" d="m182.97,122.11c2.13,4.24,3.83,8.68,5.09,13.25.26.93,1.7.53,1.45-.4-1.3-4.7-3.06-9.26-5.25-13.61-.43-.86-1.73-.1-1.3.76h0Z"/><path class="cls-1" d="m196.26,123.02c3.07,4.99,4.38,10.96,3.59,16.77-.13.94,1.32,1.35,1.45.4.85-6.22-.44-12.57-3.74-17.92-.51-.82-1.8-.07-1.3.76h0Z"/><path class="cls-1" d="m186.97,133.6c-2.16,1.99-5.29,2.77-8.13,2.05-.94-.24-1.34,1.21-.4,1.45,3.37.85,7.03-.08,9.59-2.44.71-.66-.35-1.71-1.06-1.06h0Z"/><path class="cls-1" d="m200.18,140.59l-9.35,3.94c-1.33.56-2.65,1.22-4.04,1.61-1.02.29-2.52.57-3.26-.41-.57-.76-1.87-.02-1.3.76,1.85,2.47,5.11,1.13,7.41.16l10.93-4.61c.88-.37.49-1.82-.4-1.45h0Z"/><path class="cls-1" d="m282.25,281.27c7.13-4.42,15.77-5.99,24-4.29.94.19,1.35-1.25.4-1.45-8.61-1.78-17.68-.19-25.15,4.45-.82.51-.07,1.81.76,1.3h0Z"/><path class="cls-1" d="m306.22,275.06c4.64-5.56,10.02-11.18,17.2-13.2,7.54-2.12,15.41-.04,22.89,1.28,4.26.75,8.56,1.32,12.89,1,.96-.07.96-1.57,0-1.5-8.08.6-15.89-1.93-23.83-2.86-3.83-.45-7.75-.5-11.53.42-3.58.86-6.85,2.62-9.75,4.85-3.36,2.58-6.23,5.71-8.93,8.95-.61.74.44,1.8,1.06,1.06h0Z"/><path class="cls-1" d="m304.61,276.64c3.09,2.83,4.58,6.86,7.16,10.09,1.2,1.51,2.67,2.79,4.48,3.5,2.42.95,5.08.63,7.57.15,10.04-1.91,18.94-7.47,26.42-14.26,4.34-3.94,8.25-8.33,11.88-12.92.59-.75-.46-1.82-1.06-1.06-6.11,7.72-13.06,15-21.45,20.25-4.08,2.55-8.47,4.59-13.12,5.84-2.47.66-5.19,1.34-7.76,1.06-2.13-.23-3.9-1.36-5.3-2.93-2.97-3.32-4.41-7.74-7.75-10.79-.71-.65-1.77.41-1.06,1.06h0Z"/><path class="cls-1" d="m306.39,276.05c17.07-4.72,37.71,1.37,52.3-11.05.74-.63-.33-1.68-1.06-1.06-6.49,5.52-15.17,7.3-23.45,7.93-9.42.72-19,.19-28.2,2.74-.93.26-.53,1.7.4,1.45h0Z"/><path class="cls-1" d="m315.13,273.91c1.93,3.48,3.92,7.08,6.93,9.77,2.74,2.45,6.35,4.13,10.1,3.74.95-.1.96-1.6,0-1.5-7.86.81-12.47-6.88-15.73-12.77-.47-.84-1.76-.09-1.3.76h0Z"/><path class="cls-1" d="m329.75,274.31c1.71,2.69,3.7,5.21,5.95,7.48,1.83,1.84,4.8,3.71,7.29,1.85.77-.57.02-1.87-.76-1.3-2.21,1.64-4.61-.7-6.07-2.23-1.92-2.02-3.62-4.21-5.12-6.56-.52-.81-1.82-.06-1.3.76h0Z"/><path class="cls-1" d="m316.95,274.2c.33-5.49,3.58-10.6,8.37-13.27.84-.47.09-1.77-.76-1.3-5.27,2.94-8.75,8.55-9.11,14.57-.06.96,1.44.96,1.5,0h0Z"/><path class="cls-1" d="m329.72,273.51c2.24-5.03,5.81-9.4,10.35-12.53.79-.54.04-1.85-.76-1.3-4.74,3.27-8.54,7.8-10.89,13.07-.39.87.9,1.64,1.3.76h0Z"/><path class="cls-1" d="m281.8,280.51c-1.51-7.12-5.07-13.71-10.2-18.88-.68-.69-1.74.37-1.06,1.06,4.95,5,8.36,11.33,9.81,18.22.2.94,1.65.54,1.45-.4h0Z"/><path class="cls-1" d="m269.84,261.44c-3.29,2.32-7.79,2.04-11.57,1.34s-7.04-2.49-9.09-5.86c-3.98-6.55-2.99-14.77-6.35-21.58-.43-.87-1.72-.11-1.3.76,3.64,7.38,2.17,16.59,7.52,23.25,2.5,3.12,6.18,4.54,10.05,5.08,3.85.53,8.17.65,11.49-1.69.78-.55.03-1.85-.76-1.3h0Z"/><path class="cls-1" d="m271.51,261.77c-.53-6.47-1.21-13.55-5.38-18.84-2.19-2.78-5.22-4.63-8.4-6.09-3.57-1.64-7.28-3.07-11.1-4-3.5-.86-8.06-1.05-10.38-4.22-.56-.77-1.87-.02-1.3.76,1.77,2.42,4.51,3.41,7.34,4.05,3.67.84,7.24,1.68,10.76,3.05s7.12,2.84,9.95,5.32c2.59,2.27,4.22,5.32,5.2,8.59,1.11,3.69,1.48,7.55,1.8,11.38.08.96,1.58.96,1.5,0h0Z"/><path class="cls-1" d="m270.83,261.99c-8.83-10.86-18.67-20.87-29.37-29.89-.73-.62-1.8.44-1.06,1.06,10.7,9.02,20.54,19.03,29.37,29.89.61.75,1.66-.32,1.06-1.06h0Z"/><path class="cls-1" d="m265.89,257.21c-6.98,1.38-14.42-.71-19.67-5.51-.71-.65-1.78.41-1.06,1.06,5.67,5.18,13.61,7.38,21.13,5.89.95-.19.55-1.63-.4-1.45h0Z"/><path class="cls-1" d="m256.26,246.02c-3.41,1.63-7.51,1.71-10.98.19-.88-.38-1.64.91-.76,1.3,4,1.75,8.55,1.69,12.49-.19.87-.42.11-1.71-.76-1.3h0Z"/><path class="cls-1" d="m257.06,246.22c.37-2.98.47-5.98.32-8.97-.05-.96-1.55-.97-1.5,0,.15,2.99.05,6-.32,8.97-.05.4.38.75.75.75.45,0,.7-.35.75-.75h0Z"/><path class="cls-1" d="m265.99,255.06c-1.24-4.81-2.48-9.62-3.72-14.43-.24-.93-1.69-.54-1.45.4,1.24,4.81,2.48,9.62,3.72,14.43.24.93,1.69.54,1.45-.4h0Z"/><path class="cls-1" d="m281.66,411.81c-2.36-6.93-8.01-12.14-14.51-15.23-7.88-3.75-16.74-4.49-25.32-5.02-.96-.06-.96,1.44,0,1.5,8.18.51,16.68,1.17,24.22,4.66,6.28,2.9,11.88,7.81,14.17,14.49.31.91,1.76.52,1.45-.4h0Z"/><path class="cls-1" d="m241.63,392.62c.16-3.95-2.77-6.86-5.96-8.72-3.96-2.31-8.76-3.71-13.29-4.24-9.48-1.12-18.6,2.62-27.41,5.56-5.15,1.72-10.4,3.25-15.85,3.56-.96.05-.97,1.55,0,1.5,8.96-.51,17.24-4.15,25.71-6.77,4.19-1.3,8.5-2.37,12.9-2.53,4.83-.17,9.52.94,14,2.68,3.8,1.48,8.59,4.3,8.4,8.95-.04.97,1.46.96,1.5,0h0Z"/><path class="cls-1" d="m240.81,392.04c-1.17,4.34-2.55,8.93-4.9,12.79-1,1.64-2.3,3.17-4.1,3.95-2.27.99-4.78.54-7.03-.23s-4.47-1.92-6.67-2.94-4.49-2.09-6.73-3.14c-4.56-2.13-9.12-4.26-13.68-6.39-5.16-2.41-10.32-4.82-15.48-7.22-.87-.41-1.63.89-.76,1.3,9.87,4.61,19.74,9.21,29.61,13.82,2.54,1.19,5.08,2.37,7.63,3.56,2.2,1.03,4.4,2.14,6.74,2.8,4.17,1.17,8.1.18,10.78-3.3,1.38-1.8,2.3-3.87,3.14-5.96,1.14-2.81,2.1-5.7,2.89-8.63.25-.93-1.19-1.33-1.45-.4h0Z"/><path class="cls-1" d="m240.41,394.09c-4.28.79-8.72.04-13.01-.39-4.47-.45-8.94-.9-13.41-1.36-8.94-.9-17.88-1.81-26.82-2.71-.96-.1-.95,1.4,0,1.5,9.11.92,18.21,1.84,27.32,2.76,4.47.45,8.94.9,13.41,1.36s8.63,1.08,12.91.29c.95-.18.55-1.62-.4-1.45h0Z"/><path class="cls-1" d="m202.49,383.88c2.39,3.17,5.49,5.74,9.09,7.43.37.17.81.1,1.03-.27.19-.33.1-.85-.27-1.03-3.35-1.57-6.32-3.93-8.55-6.89-.24-.32-.65-.49-1.03-.27-.32.19-.51.7-.27,1.03h0Z"/><path class="cls-1" d="m218.15,381.4c1.72,4.35,4.02,8.43,6.88,12.13.25.32.64.49,1.03.27.32-.18.52-.71.27-1.03-2.77-3.59-5.05-7.56-6.72-11.77-.35-.89-1.8-.5-1.45.4h0Z"/><path class="cls-1" d="m205.41,400.26c2-.51,3.84-1.53,5.37-2.92.74-.68,1.4-1.45,1.96-2.28.27-.41.52-.84.74-1.28.12-.24.22-.49.33-.73.04-.09.18-.27.18-.35l.04-.04c-.25.12-.41.04-.46-.23l.1-.38-.04.09c-.17.37-.1.81.27,1.03.33.19.85.1,1.03-.27.32-.67,0-1.39-.72-1.61-.66-.21-1.27.22-1.58.78-.28.5-.47,1.06-.76,1.56s-.62,1-.99,1.45c-1.51,1.83-3.55,3.16-5.86,3.75-.94.24-.54,1.68.4,1.45h0Z"/><path class="cls-1" d="m218.38,407.38c4.76-2.76,6.35-8.46,7.54-13.47.22-.94-1.22-1.34-1.45-.4-1.09,4.6-2.46,10.03-6.85,12.58-.83.48-.08,1.78.76,1.3h0Z"/><path class="cls-1" d="m247.6,284.04c-1.04-2.86-3.81-4.17-6.47-5.21-3.48-1.36-7.09-2.38-10.76-3.06-7.2-1.33-14.6-1.38-21.82-.15-4.19.71-8.29,1.88-12.24,3.45-.89.35-.5,1.8.4,1.45,8.19-3.27,17.02-4.69,25.83-4.19,4.39.25,8.75.99,12.99,2.2,2.13.61,4.27,1.31,6.3,2.2,1.76.77,3.63,1.81,4.32,3.71.33.9,1.78.51,1.45-.4h0Z"/><path class="cls-1" d="m196.29,279.22c-3.93-2.24-8.51-2.3-12.9-1.98-3.97.29-7.98.89-11.67,2.43-3.47,1.45-6.51,3.8-8.32,7.14s-2.37,7.31-2.92,11.09c-.63,4.31-1.28,8.92-4.21,12.35-.62.73.43,1.8,1.06,1.06,4.88-5.7,4-13.59,6.01-20.39,1.11-3.75,3.32-6.81,6.72-8.78s7.32-2.79,11.15-3.21c4.75-.53,10.03-.87,14.33,1.57.84.48,1.6-.82.76-1.3h0Z"/><path class="cls-1" d="m154.82,311.75c4.77-.2,9.53-.4,14.29-.81,4.18-.37,8.61-.66,12.53-2.28,6.91-2.85,11.78-10.47,13.77-17.42,1.17-4.06,1.39-8.33.62-12.48-.18-.95-1.62-.55-1.45.4,1.32,7.07-.65,14.39-4.69,20.26-2.14,3.12-4.94,6.13-8.44,7.7s-7.9,1.92-11.85,2.28c-4.92.45-9.85.65-14.78.86-.96.04-.97,1.54,0,1.5h0Z"/><path class="cls-1" d="m194.84,279.66c-7.41,2.63-14.9,5.45-20.44,11.26-2.83,2.97-5.17,6.37-7.92,9.41s-6.11,5.93-9.66,8.29c-.8.53-.05,1.83.76,1.3,3.35-2.22,6.45-4.79,9.22-7.71s5.09-6.25,7.78-9.25c5.55-6.2,13.01-9.13,20.67-11.84.9-.32.51-1.77-.4-1.45h0Z"/><path class="cls-1" d="m182.76,284.54c-5.51-1.56-11.27-1.84-16.91-.86-.95.16-.55,1.61.4,1.45,5.36-.93,10.87-.62,16.11.86.93.26,1.33-1.18.4-1.45h0Z"/><path class="cls-1" d="m169.7,295.29h-9.78c-.97,0-.97,1.51,0,1.5h9.78c.97,0,.97-1.51,0-1.5h0Z"/><path class="cls-1" d="m169.48,298.07c2.72,2.63,3.63,6.95,2.08,10.43-.39.87.9,1.64,1.3.76,1.83-4.09.93-9.11-2.31-12.24-.69-.67-1.76.39-1.06,1.06h0Z"/><path class="cls-1" d="m182.61,287.25c1.7,2.54,2.87,5.37,3.46,8.37.29,1.48.42,2.99.4,4.5,0,.74-.05,1.48-.13,2.21-.01.12-.45,2.37-.86,1.71-.51-.82-1.81-.06-1.3.76.92,1.46,2.81.72,3.32-.67.34-.92.38-2.01.43-2.98.06-1.03.04-2.07-.04-3.1-.33-4.13-1.7-8.12-4-11.56-.53-.8-1.83-.05-1.3.76h0Z"/><path class="cls-1" d="m238.06,342.5c-1.89-2.01-3.52-4.23-4.86-6.64-.51-.92-3.41-6.23-.62-6.34,1.31-.05,2.21,1.72,2.71,2.69.65,1.28,1.2,2.61,1.67,3.97.97,2.78,1.57,5.66,1.81,8.6l1.28-.53c-1.07-.88.84-3.63,1.35-4.51.82-1.42,1.76-2.78,2.81-4.05s2.12-2.34,3.3-3.38c.65-.56,1.31-1.1,2.01-1.59.51-.36,1.45-1.26,2.12-1.2l.72.57c-.04.3-.12.59-.25.86-.13.31-.33.6-.5.89-.39.64-.79,1.28-1.19,1.91-.85,1.32-1.74,2.63-2.74,3.84-1.94,2.37-4.27,4.4-7.21,5.38l.58,1.37c2.91-1.85,6.49-1.86,9.67-.72,1.67.6,3.23,1.52,4.67,2.55.76.55,1.48,1.14,2.19,1.75.52.46,1.5,1.04,1.81,1.66.74,1.49-3.64.5-4.24.37-1.63-.35-3.24-.83-4.8-1.42-3.27-1.23-6.34-2.98-9.08-5.13-.47-.37-1.3-.18-1.28.53.12,3.47.23,6.94.35,10.42.05,1.61.26,3.38-.37,4.9-.52,1.25-2.28,2.61-3.51,1.36-1.65-1.67.35-5.37,1.01-7.04,1.32-3.31,2.64-6.63,3.96-9.94.26-.65-.58-1.12-1.1-.85-3.23,1.68-6.46,3.36-9.69,5.04-1.5.78-3.02,1.74-4.63,2.29-1.34.45-3.65.51-3.98-1.32-.26-1.47,1.36-2.71,2.49-3.31,1.41-.76,3.09-1.15,4.66-1.43,3.37-.59,6.82-.3,10.07.72.92.29,1.32-1.16.4-1.45-3.94-1.23-8.15-1.41-12.17-.45-2.72.65-7.53,2.46-6.95,6.12.23,1.41,1.36,2.43,2.71,2.77,1.72.44,3.4-.21,4.93-.97,4.34-2.17,8.61-4.48,12.91-6.71l-1.1-.85c-1.67,4.18-3.55,8.34-5.01,12.6-.73,2.13-1.12,5.44,1.43,6.52,1.25.53,2.63.11,3.64-.72,1.24-1.03,1.69-2.58,1.81-4.14.17-2.18-.07-4.43-.14-6.61-.08-2.31-.16-4.63-.23-6.94l-1.28.53c2.68,2.11,5.6,3.84,8.77,5.14,1.61.66,3.27,1.2,4.96,1.61,1.46.35,3.11.82,4.62.73.95-.06,2.12-.41,2.47-1.41.47-1.34-.89-2.34-1.75-3.11-2.5-2.26-5.29-4.33-8.53-5.39-3.45-1.13-7.35-.97-10.45,1-.69.44-.26,1.65.58,1.37,3.01-1,5.47-2.94,7.51-5.33,1.02-1.2,1.95-2.47,2.81-3.79s1.89-2.64,2.42-4.08c.39-1.08.33-2.43-.82-3.01-1.34-.68-2.82.35-3.87,1.1-2.74,1.94-5.13,4.31-7.11,7.03-1.12,1.54-2.09,3.19-2.89,4.92-.59,1.27-1.22,2.99.06,4.06.45.37,1.34.18,1.28-.53-.32-3.82-1.2-7.55-2.68-11.1-.9-2.15-2.73-6.64-5.88-5.5-2.63.95-1.76,4.43-.9,6.31,1.54,3.34,3.66,6.39,6.18,9.07.66.71,1.72-.36,1.06-1.06h0Z"/><path class="cls-1" d="m174.39,239.38c-1.89-2.01-3.52-4.23-4.86-6.64-.51-.92-3.41-6.23-.62-6.34,1.31-.05,2.21,1.72,2.71,2.69.65,1.28,1.2,2.61,1.67,3.97.97,2.78,1.57,5.66,1.81,8.6l1.28-.53c-1.07-.88.84-3.63,1.35-4.51.82-1.42,1.76-2.78,2.81-4.05s2.12-2.34,3.3-3.38c.65-.56,1.31-1.1,2.01-1.59.51-.36,1.45-1.26,2.12-1.2l.72.57c-.04.3-.12.59-.25.86-.13.31-.33.6-.5.89-.39.64-.79,1.28-1.19,1.91-.85,1.32-1.74,2.63-2.74,3.84-1.94,2.37-4.27,4.4-7.21,5.38l.58,1.37c2.91-1.85,6.49-1.86,9.67-.72,1.67.6,3.23,1.52,4.67,2.55.76.55,1.48,1.14,2.19,1.75.52.46,1.5,1.04,1.81,1.66.74,1.49-3.64.5-4.24.37-1.63-.35-3.24-.83-4.8-1.42-3.27-1.23-6.34-2.98-9.08-5.13-.47-.37-1.3-.18-1.28.53.12,3.47.23,6.94.35,10.42.05,1.61.26,3.38-.37,4.9-.52,1.25-2.28,2.61-3.51,1.36-1.65-1.67.35-5.37,1.01-7.04,1.32-3.31,2.64-6.63,3.96-9.94.26-.65-.58-1.12-1.1-.85-3.23,1.68-6.46,3.36-9.69,5.04-1.5.78-3.02,1.74-4.63,2.29-1.34.45-3.65.51-3.98-1.32-.26-1.47,1.36-2.71,2.49-3.31,1.41-.76,3.09-1.15,4.66-1.43,3.37-.59,6.82-.3,10.07.72.92.29,1.32-1.16.4-1.45-3.94-1.23-8.15-1.41-12.17-.45-2.72.65-7.53,2.46-6.95,6.12.23,1.41,1.36,2.43,2.71,2.77,1.72.44,3.4-.21,4.93-.97,4.34-2.17,8.61-4.48,12.91-6.71l-1.1-.85c-1.67,4.18-3.55,8.34-5.01,12.6-.73,2.13-1.12,5.44,1.43,6.52,1.25.53,2.63.11,3.64-.72,1.24-1.03,1.69-2.58,1.81-4.14.17-2.18-.07-4.43-.14-6.61-.08-2.31-.16-4.63-.23-6.94l-1.28.53c2.68,2.11,5.6,3.84,8.77,5.14,1.61.66,3.27,1.2,4.96,1.61,1.46.35,3.11.82,4.62.73.95-.06,2.12-.41,2.47-1.41.47-1.34-.89-2.34-1.75-3.11-2.5-2.26-5.29-4.33-8.53-5.39-3.45-1.13-7.35-.97-10.45,1-.69.44-.26,1.65.58,1.37,3.01-1,5.47-2.94,7.51-5.33,1.02-1.2,1.95-2.47,2.81-3.79s1.89-2.64,2.42-4.08c.39-1.08.33-2.43-.82-3.01-1.34-.68-2.82.35-3.87,1.1-2.74,1.94-5.13,4.31-7.11,7.03-1.12,1.54-2.09,3.19-2.89,4.92-.59,1.27-1.22,2.99.06,4.06.45.37,1.34.18,1.28-.53-.32-3.82-1.2-7.55-2.68-11.1-.9-2.15-2.73-6.64-5.88-5.5-2.63.95-1.76,4.43-.9,6.31,1.54,3.34,3.66,6.39,6.18,9.07.66.71,1.72-.36,1.06-1.06h0Z"/><path class="cls-1" d="m269.23,170.24c-1.89-2.01-3.52-4.23-4.86-6.64-.51-.92-3.41-6.23-.62-6.34,1.31-.05,2.21,1.72,2.71,2.69.65,1.28,1.2,2.61,1.67,3.97.97,2.78,1.57,5.66,1.81,8.6l1.28-.53c-1.07-.88.84-3.63,1.35-4.51.82-1.42,1.76-2.78,2.81-4.05s2.12-2.34,3.3-3.38c.65-.56,1.31-1.1,2.01-1.59.51-.36,1.45-1.26,2.12-1.2l.72.57c-.04.3-.12.59-.25.86-.13.31-.33.6-.5.89-.39.64-.79,1.28-1.19,1.91-.85,1.32-1.74,2.63-2.74,3.84-1.94,2.37-4.27,4.4-7.21,5.38l.58,1.37c2.91-1.85,6.49-1.86,9.67-.72,1.67.6,3.23,1.52,4.67,2.55.76.55,1.48,1.14,2.19,1.75.52.46,1.5,1.04,1.81,1.66.74,1.49-3.64.5-4.24.37-1.63-.35-3.24-.83-4.8-1.42-3.27-1.23-6.34-2.98-9.08-5.13-.47-.37-1.3-.18-1.28.53.12,3.47.23,6.94.35,10.42.05,1.61.26,3.38-.37,4.9-.52,1.25-2.28,2.61-3.51,1.36-1.65-1.67.35-5.37,1.01-7.04,1.32-3.31,2.64-6.63,3.96-9.94.26-.65-.58-1.12-1.1-.85-3.23,1.68-6.46,3.36-9.69,5.04-1.5.78-3.02,1.74-4.63,2.29-1.34.45-3.65.51-3.98-1.32-.26-1.47,1.36-2.71,2.49-3.31,1.41-.76,3.09-1.15,4.66-1.43,3.37-.59,6.82-.3,10.07.72.92.29,1.32-1.16.4-1.45-3.94-1.23-8.15-1.41-12.17-.45-2.72.65-7.53,2.46-6.95,6.12.23,1.41,1.36,2.43,2.71,2.77,1.72.44,3.4-.21,4.93-.97,4.34-2.17,8.61-4.48,12.91-6.71l-1.1-.85c-1.67,4.18-3.55,8.34-5.01,12.6-.73,2.13-1.12,5.44,1.43,6.52,1.25.53,2.63.11,3.64-.72,1.24-1.03,1.69-2.58,1.81-4.14.17-2.18-.07-4.43-.14-6.61-.08-2.31-.16-4.63-.23-6.94l-1.28.53c2.68,2.11,5.6,3.84,8.77,5.14,1.61.66,3.27,1.2,4.96,1.61,1.46.35,3.11.82,4.62.73.95-.06,2.12-.41,2.47-1.41.47-1.34-.89-2.34-1.75-3.11-2.5-2.26-5.29-4.33-8.53-5.39-3.45-1.13-7.35-.97-10.45,1-.69.44-.26,1.65.58,1.37,3.01-1,5.47-2.94,7.51-5.33,1.02-1.2,1.95-2.47,2.81-3.79s1.89-2.64,2.42-4.08c.39-1.08.33-2.43-.82-3.01-1.34-.68-2.82.35-3.87,1.1-2.74,1.94-5.13,4.31-7.11,7.03-1.12,1.54-2.09,3.19-2.89,4.92-.59,1.27-1.22,2.99.06,4.06.45.37,1.34.18,1.28-.53-.32-3.82-1.2-7.55-2.68-11.1-.9-2.15-2.73-6.64-5.88-5.5-2.63.95-1.76,4.43-.9,6.31,1.54,3.34,3.66,6.39,6.18,9.07.66.71,1.72-.36,1.06-1.06h0Z"/><path class="cls-1" d="m240.46,344.97c1.79,3.31,4.13,6.24,6.4,9.22s4.47,6.3,6.29,9.74c3.97,7.5,7.49,15.26,11.19,22.89,2.13,4.4,4.26,8.79,6.39,13.19.42.87,1.71.11,1.3-.76-3.76-7.75-7.51-15.5-11.27-23.24-3.54-7.3-6.8-14.83-11.68-21.36-2.55-3.4-5.29-6.67-7.32-10.43-.46-.85-1.76-.09-1.3.76h0Z"/><path class="cls-1" d="m269.23,171.95c-15.37,7.29-28.07,19.89-35.68,35.1-2.13,4.26-3.86,8.72-5.15,13.31-.26.93,1.18,1.33,1.45.4,4.54-16.13,14.66-30.55,28.19-40.42,3.75-2.73,7.75-5.11,11.94-7.1.87-.41.11-1.71-.76-1.3h0Z"/><path class="cls-1" d="m176.82,243.16c13.26,8.92,25.09,19.85,35.05,32.36.6.76,1.66-.31,1.06-1.06-10.03-12.6-21.98-23.6-35.35-32.59-.8-.54-1.55.76-.76,1.3h0Z"/></svg>