<?xml version="1.0" encoding="UTF-8"?><svg id="Layer_2" xmlns="http://www.w3.org/2000/svg" width="508.12" height="243.8" viewBox="0 0 508.12 243.8"><defs><style>.cls-1{fill:#1b542e;stroke-width:0px;}</style></defs><path class="cls-1" d="m24.23,133.46c12.87-15.13,25.66-30.37,37.15-46.59,11.34-16.03,21.36-33.1,28.26-51.53,3.82-10.2,6.59-20.78,8.06-31.57.2-1.48-.23-2.93-1.74-3.54-1.35-.54-3.01-.1-3.75,1.23-13.86,24.97-26.65,50.52-38.75,76.38-12.04,25.74-23.42,51.79-34.54,77.94-6.29,14.78-12.5,29.6-18.72,44.41l5.89.8c-.5-4.09,1.11-7.36,3.92-10.38,3.08-3.31,6.83-5.8,10.73-8.08.84-.49,1.7-1.09,2.7-1.07-.44-.01-.02.01.09.04.86.2-.25-.12.21.08.12.05.6.42.22.11.23.19.44.41.64.63.03.03.35.43.11.12.13.17.25.35.36.53.27.41.52.84.76,1.27.51.91.96,1.85,1.46,2.77,2.26,4.13,6.05,7.08,10.43,8.7,4.85,1.8,10.22,1.51,14.89-.64,1.47-.68,1.84-2.8,1.08-4.1-.88-1.51-2.63-1.76-4.1-1.08-3.19,1.48-7.52,1.31-10.78-.17-2.08-.94-3.49-1.97-4.93-3.63-.48-.55-.93-1.25-1.4-2.1-.53-.96-1-1.96-1.54-2.92-1.16-2.07-2.66-4.05-4.9-5.01-2.91-1.24-5.74-.22-8.32,1.29-4.23,2.47-8.45,5.3-11.82,8.89-3.75,3.98-6.48,9.15-5.8,14.76.42,3.44,4.56,3.98,5.89.8,10.95-26.12,21.91-52.24,33.31-78.17,11.36-25.86,23.16-51.53,35.81-76.79,7.14-14.27,14.55-28.4,22.3-42.34l-5.48-2.31c-2.58,18.95-9.23,37.01-18.26,53.8s-20.47,32.7-32.48,47.75c-6.89,8.64-14.03,17.08-21.19,25.5-1.05,1.23-1.21,3.03,0,4.24,1.08,1.08,3.19,1.24,4.24,0h0Z"/><path class="cls-1" d="m86.6,131.5c-6.45,7.99-11.58,16.85-15.27,26.44-1.76,4.57-3.47,9.47-4.14,14.34-.37,2.72.14,5.56,2.32,7.41,2.01,1.71,4.68,2.22,7.24,1.77,4.57-.8,8.26-4.95,11.18-8.28s5.67-7.23,7.85-11.27c4.34-8.06,6.9-17.01,7.5-26.15.34-5.1-.02-10.24-.99-15.26-.28-1.46-.75-2.96-2.12-3.76-1.9-1.11-3.92-.19-5.12,1.41-1.93,2.57-3.71,5.25-5.56,7.88-.93,1.33-.24,3.34,1.08,4.1,1.5.88,3.17.25,4.1-1.08s1.89-2.68,2.83-4.02c.42-.6.85-1.2,1.27-1.81.24-.33.47-.67.71-1l.28-.4c.53-.68.34-.57-.58.31h-1.6l.27.08-1.32-.77c-.18-.16-.3-1.04-.21-.29.02.19.08.38.12.56.09.44.17.88.25,1.32.13.76.26,1.57.34,2.23.22,1.83.34,3.68.38,5.53.07,3.44-.16,6.96-.72,10.24-1.19,7.02-3.6,13.72-7.2,19.84-1.78,3.03-3.83,5.87-6.16,8.49-1.19,1.34-2.45,2.62-3.78,3.83-1.16,1.05-2.47,2.12-4.04,2.42-.09.02-.33.04-.73.02-.04,0-.57-.08-.22-.02-.17-.03-.33-.08-.49-.13-.34-.11-.74-.31-.89-.69-.54-1.37.26-3.34.59-4.67.98-3.88,2.2-7.69,3.67-11.4,3.26-8.25,7.84-16.09,13.41-22.99,1.02-1.26,1.23-3.01,0-4.24-1.05-1.05-3.22-1.27-4.24,0h0Z"/><path class="cls-1" d="m114.06,126.62c-3.52,16.21-14.35,30.45-14.18,47.51.02,2.17.25,4.36.66,6.49.59,3.09,3.84,3.63,6.34,2.44,1.75-.84,3.21-2.41,4.6-3.73s2.7-2.66,3.98-4.06c5.22-5.67,9.76-11.96,13.87-18.47,4.61-7.32,8.68-14.95,12.74-22.58l-5.18-3.03c-4.48,9.09-7.95,18.67-10.22,28.55-1.14,5-1.97,10.07-2.53,15.17-.42,3.83-.44,9.61,4.33,10.75,3.12.75,5.29-1.52,7.17-3.62,2.03-2.28,4.06-4.55,6.09-6.83,1.08-1.21,1.19-3.05,0-4.24-1.1-1.1-3.16-1.21-4.24,0-1.55,1.74-3.1,3.48-4.64,5.21-.69.78-1.39,1.56-2.08,2.34-.31.35-.62.74-.98,1.05.08-.07-.33.34-.28.24-.2.38-.18-.05-.04.02.11.06.66.18.84.24-.27-.09-.07-.4-.02-.01,0-.02-.14-.43-.1-.15-.06-.43-.28-1.05-.3-1.53-.07-1.9.28-3.86.53-5.74,1.1-8.54,3.18-16.98,6.04-25.09,1.6-4.56,3.49-9,5.62-13.34.72-1.45.39-3.25-1.08-4.1-1.36-.79-3.34-.36-4.1,1.08-7.14,13.44-14.37,27.15-24.54,38.59-1.4,1.57-2.85,3.1-4.35,4.57-.8.79-1.62,1.56-2.46,2.31-.31.28-.67.54-.96.83-.09.09-.87-.7-.37.21-.04-.07,1.18.3.16-.09l2.1,2.1c-1.84-8.86.86-17.92,4.09-26.12s7.37-16.52,9.3-25.38c.34-1.58-.47-3.24-2.1-3.69-1.5-.41-3.34.5-3.69,2.1h0Z"/><path class="cls-1" d="m161.63,131.49c.28,4.58-1.52,8.83-3.38,12.92-2.04,4.51-3.95,9.07-5.49,13.78s-2.72,9.37-3.6,14.17-1.66,9.54,1.56,13.56c1.01,1.27,3.19,1.06,4.24,0,1.25-1.25,1.01-2.97,0-4.24-.83-1.03-.69-2.87-.55-4.32.18-1.95.66-4.13,1.08-6.14.97-4.62,2.25-9.18,3.81-13.63s3.37-8.28,5.15-12.41c1.88-4.35,3.48-8.87,3.19-13.69-.1-1.62-1.31-3-3-3-1.55,0-3.1,1.37-3,3h0Z"/><path class="cls-1" d="m163.61,103.28c.07.14.14.28.2.42l-.3-.72c.19.47.32.96.39,1.46l-.11-.8c.06.55.06,1.09-.01,1.63l.11-.8c-.08.5-.21.99-.4,1.46l.3-.72c-.2.46-.44.89-.75,1.29l.47-.61c-.27.33-.56.63-.9.89l.61-.47c-.3.22-.62.4-.96.55l.72-.3c-.37.15-.75.25-1.15.31l.8-.11c-.47.06-.94.06-1.41,0l.8.11c-.47-.07-.92-.19-1.36-.37l.72.3c-.4-.17-.77-.38-1.11-.64l.61.47c-.28-.22-.53-.47-.75-.75l.47.61c-.22-.29-.4-.59-.54-.92l.3.72c-.11-.27-.18-.55-.23-.84l.11.8c-.05-.36-.05-.72,0-1.08l-.11.8c.06-.4.16-.78.31-1.16l-.3.72c.17-.41.4-.78.67-1.13l-.47.61c.23-.28.48-.54.77-.76l-.61.47c.29-.22.59-.4.92-.54l-.72.3c.27-.1.54-.18.82-.22l-.8.11c.22-.03.43-.04.65-.03,1.57.07,3.07-1.43,3-3-.08-1.68-1.32-2.93-3-3-2.6-.11-5.17,1.6-6.3,3.92-.56,1.16-.97,2.48-.86,3.79.14,1.61.7,2.95,1.74,4.18,1.49,1.76,4.08,2.76,6.37,2.58,2.7-.2,5.12-1.62,6.42-4.04,1.44-2.67,1.44-5.83.07-8.53-.71-1.4-2.8-1.92-4.1-1.08-1.43.92-1.84,2.61-1.08,4.1h0Z"/><path class="cls-1" d="m207.11,138.65c-.48-6.43-7.8-9.82-13.41-7.23-6.19,2.85-7.61,10.42-6.68,16.49.57,3.68,1.94,7.16,2.82,10.77.73,3.03,1.16,6.4-.17,9.32s-3.7,4.9-6.05,6.76-4.83,3.55-7.75,4.11c-.44.08-1.21.12-1.98.03.48.05-.6-.12-.55-.11-.43-.1-.88-.22-1.29-.4-.76-.34-1.65-1.03-2.08-2.05.22.52-.06-.38-.07-.41.11.54.01-.53.02-.68-.01.16-.13.47.03-.09.04-.12.42-1.11.2-.68.13-.26.28-.52.45-.76-.41.54.7-.57.12-.14.06-.05.84-.44.27-.22.18-.06.36-.11.54-.15-.33.04-.3.05.07.03,3.86-.04,3.87-6.04,0-6-3.4.04-6.05,2.36-7.18,5.47s-.31,6.51,1.95,8.88,5.69,3.48,8.87,3.33c3.68-.17,7.08-1.84,10.03-3.95s5.73-4.42,7.92-7.3,3.43-6.65,3.34-10.45-1.31-7.72-2.41-11.49c-.52-1.78-1.06-3.59-1.29-5.44-.19-1.48-.18-3.12.07-4.31.3-1.4.82-2.74,1.55-3.65.51-.64.86-.95,1.43-1.3.01,0,.99-.49.43-.26.36-.14.76-.25,1.14-.3-.62.08.34.02.38.02.2,0,.4.01.59.03-.31-.04-.28-.03.08.03.29.08.57.14.86.24.34.12.37.14.1.04.17.09.35.18.51.28.05.03.75.59.32.21.11.1.76.89.46.44.04.06.44.84.21.27.06.15.22,1.16.17.6.12,1.62,1.29,3,3,3,1.53,0,3.12-1.38,3-3h0Z"/><path class="cls-1" d="m508.11,140.65c-.48-6.43-7.8-9.82-13.41-7.23-6.19,2.85-7.61,10.42-6.68,16.49.57,3.68,1.94,7.16,2.82,10.77.73,3.03,1.16,6.4-.17,9.32s-3.7,4.9-6.05,6.76-4.83,3.55-7.75,4.11c-.44.08-1.21.12-1.98.03.48.05-.6-.12-.55-.11-.43-.1-.88-.22-1.29-.4-.76-.34-1.65-1.03-2.08-2.05.22.52-.06-.38-.07-.41.11.54.01-.53.02-.68-.01.16-.13.47.03-.09.04-.12.42-1.11.2-.68.13-.26.28-.52.45-.76-.41.54.7-.57.12-.14.06-.05.84-.44.27-.22.18-.06.36-.11.54-.15-.33.04-.3.05.07.03,3.86-.04,3.87-6.04,0-6-3.4.04-6.05,2.36-7.18,5.47s-.31,6.51,1.95,8.88,5.69,3.48,8.87,3.33c3.68-.17,7.08-1.84,10.03-3.95s5.73-4.42,7.92-7.3,3.43-6.65,3.34-10.45-1.31-7.72-2.41-11.49c-.52-1.78-1.06-3.59-1.29-5.44-.19-1.48-.18-3.12.07-4.31.3-1.4.82-2.74,1.55-3.65.51-.64.86-.95,1.43-1.3.01,0,.99-.49.43-.26.36-.14.76-.25,1.14-.3-.62.08.34.02.38.02.2,0,.4.01.59.03-.31-.04-.28-.03.08.03.29.08.57.14.86.24.34.12.37.14.1.04.17.09.35.18.51.28.05.03.75.59.32.21.11.1.76.89.46.44.04.06.44.84.21.27.06.15.22,1.16.17.6.12,1.62,1.29,3,3,3,1.53,0,3.12-1.38,3-3h0Z"/><path class="cls-1" d="m210.24,167.55c9.61-1.16,18.55-4.92,26.14-10.92,3.76-2.97,7.03-6.48,9.79-10.39,1.55-2.18,3.11-4.59,3.2-7.35s-1.5-5.18-3.88-6.43c-4.45-2.34-10.01-1.15-14.28,1.01s-7.92,5.72-11.05,9.36c-6.66,7.76-12.86,16.76-15.15,26.89-.63,2.79-.98,5.68-.92,8.54.06,3.06.32,6.7,3.34,8.34,2.63,1.43,6.14.97,9.02.93,3.44-.05,6.87-.19,10.3-.41,1.62-.1,3-1.31,3-3,0-1.55-1.37-3.1-3-3-5.06.32-10.18.59-15.25.41-.45-.02-.44-.08-.8-.07-.2,0-.45-.17-.21.09-.44-.48-.34-1.84-.37-2.46-.1-2.06,0-4.14.35-6.16,1.49-8.42,6.1-16.04,11.33-22.67,4.52-5.74,10.71-13.24,18.56-13.04.83.02,1.17.04,2.05.4.39.16.81.48.94.78-.14-.34.06.3.06.31-.03.42-.2.86-.37,1.24-.44.99-1.11,1.91-1.73,2.8-2.16,3.13-4.81,5.95-7.71,8.43-6.53,5.58-14.96,9.36-23.37,10.37-1.61.19-3,1.24-3,3,0,1.47,1.38,3.2,3,3h0Z"/><path class="cls-1" d="m398.96,165.79c9.01-2.45,17.29-7.47,23.69-14.26,3.21-3.41,6.01-7.27,8.14-11.44,1.2-2.34,2.51-4.92,2.42-7.62-.1-2.98-1.98-5.31-4.69-6.37-4.33-1.7-9.59-.02-13.29,2.44-3.99,2.65-7.06,6.39-9.7,10.34-5.86,8.79-10.74,18.96-11.76,29.58-.29,3.06-.15,6.11.35,9.14s1.35,6.34,4.52,7.52c2.87,1.07,6.44,0,9.36-.47,3.39-.55,6.77-1.18,10.13-1.9,1.59-.34,2.51-2.2,2.1-3.69-.45-1.64-2.1-2.43-3.69-2.1-2.56.54-5.13,1.04-7.71,1.49-2.29.4-4.63.89-6.96,1.07-.41.03-.84.06-1.11,0-.41-.1-.06-.06,0,0-.37-.41-.59-2.11-.73-2.86-.38-2.06-.47-4.17-.38-6.26.38-9.02,4.45-17.58,9.01-25.2,2-3.34,4.14-6.57,6.95-9.28,2.41-2.33,5.56-4.35,8.82-4.47.88-.03,1.17-.06,2.04.27.32.12.71.32.74.75.11,1.62-.94,3.36-1.67,4.77-1.77,3.41-3.93,6.54-6.48,9.37-5.84,6.44-13.33,11.13-21.68,13.4-3.72,1.01-2.14,6.8,1.6,5.79h0Z"/><path class="cls-1" d="m366.75,75.36c8.69-8.62,14.82-19.82,17.4-31.79.65-3.02,1.09-6.11,1.31-9.2.2-2.84.51-6.1-.41-8.85-1.12-3.35-4.3-5.36-7.79-4.08-2.75,1.01-5.28,3-7.71,4.62-19.13,12.72-35.85,28.78-49.6,47.16s-24.25,38.83-31.11,60.58c-1.71,5.42-3.18,10.91-4.4,16.46s-2.51,11.2-2.61,16.85,1.37,11.5,6.09,15.04c5.12,3.83,12.1,3.2,17.95,1.72,21.17-5.37,37.25-24.99,39.64-46.48.29-2.59.35-5.19.2-7.79-.1-1.77-1.3-2.79-3-3-6.75-.82-13.7.78-19.5,4.31-2.48,1.51-1.53,5.66,1.51,5.59,2.81-.06,5.62-.13,8.44-.19,2.28-.05,4.77-.41,7.03-.05-.17-.03.63.17.85.26-.16-.07.16.35-.03-.03.29.58-.06,1.53-.33,2.28-.74,2.12-1.66,4.19-2.53,6.26-3.61,8.56-7.69,16.94-12.15,25.09-8.86,16.18-19.32,31.51-31.22,45.61-6.81,8.06-14.07,15.73-21.75,22.97l5.12,2.12c-.6-7.19,3.79-14.56,10.67-16.97,1.53-.54,2.55-2.05,2.1-3.69-.41-1.48-2.15-2.64-3.69-2.1-9.3,3.27-15.9,12.82-15.07,22.76.21,2.56,3.14,3.99,5.12,2.12,14.41-13.6,27.35-28.73,38.62-45.03,11.2-16.2,20.62-33.55,28.22-51.71,1.05-2.5,2.43-5.13,2.86-7.82.53-3.35-.94-6.38-4.19-7.59-2.55-.94-5.48-.58-8.14-.52-3.31.08-6.62.15-9.92.23l1.51,5.59c4.98-3.04,10.68-4.19,16.47-3.49l-3-3c1.13,19.28-10.86,38.06-28.48,46.08-4.14,1.88-9.4,3.48-14.2,3.33-2.26-.07-4.61-.68-6.25-2.26-.82-.79-1.16-1.29-1.7-2.34-.42-.83-.75-1.96-.97-3.13-.87-4.54.18-9.65,1.08-14.36.98-5.14,2.18-10.25,3.59-15.29,5.7-20.45,14.79-39.83,26.69-57.43,11.82-17.48,26.49-33.2,43.29-45.97,4.22-3.21,8.57-6.24,13.04-9.09,1.12-.71,2.23-1.41,3.39-2.05.78-.43.33.21.08-.1-.18-.23-.3.1.07.04-.46.07-.12-.69-.14-.03l.14.26c-.11-.25-.1-.2.02.15.07.26.13.51.18.77.1.57-.03-.68.03.31.04.61.04,1.22.04,1.83,0,1.48-.06,2.97-.18,4.44-.86,10.96-5.06,21.65-11.68,30.41-1.59,2.11-3.37,4.08-5.25,5.94-2.75,2.72,1.5,6.97,4.24,4.24h0Z"/><path class="cls-1" d="m344.95,181.4c11.72-4.81,23.18-10.72,32.38-19.59,8.5-8.19,14.97-19.04,16.33-30.91.36-3.15-.72-6.6-4.1-7.55-3.16-.89-6.32.83-8.87,2.52-5.16,3.4-9.36,7.94-13.33,12.63-7.61,9-16.21,19.03-16.61,31.42-.11,3.48.51,7.08,2.24,10.14s4.36,5.07,7.44,6.36c7.08,2.97,14.64,1.01,21.64-1.14,3.68-1.13,2.11-6.92-1.6-5.79-5.19,1.59-10.88,3.39-16.15,1.95-2.04-.56-3.86-1.54-5.28-3.13s-2.11-4.01-2.27-6.16c-.73-10.24,6.22-19.1,12.39-26.53,3.4-4.09,6.81-8.24,10.83-11.75,1.9-1.66,4.03-3.32,6.33-4.38.29-.13.76-.3,1.18-.38-.3.05.25-.01.25-.01.74-.07.25.09.13,0-.33-.24-.13-.23-.15.11.02-.37,0,.36,0,.44,0,.36-.03.72-.07,1.07-1.17,9.77-6.65,18.81-13.45,25.72-8.58,8.72-19.66,14.57-30.88,19.18-1.5.62-2.56,1.99-2.1,3.69.39,1.42,2.18,2.71,3.69,2.1h0Z"/><path class="cls-1" d="m447.9,128.88c-4.75,18.86-9.49,37.72-14.24,56.58-.94,3.75,4.83,5.34,5.79,1.6,2.69-10.59,6.18-21,10.57-31.01,2.21-5.05,4.62-10.03,7.25-14.88.48-.88.92-1.79,1.62-2.45.1-.09.72-.5.41-.36.16-.07.33-.09.49-.16.52-.2-.31-.13.19-.03.13.03.35.01.49.01-.64-.01-.14-.03.06.03.37.11.74.21,1.11.36-.54-.22.34.19.51.28.42.23.82.47,1.23.72,3.52,2.21,7.33,5.25,11.76,3.76,1.54-.52,2.54-2.07,2.1-3.69-.41-1.5-2.15-2.61-3.69-2.1-.21.07-.42.13-.63.18-.43.11.66.06-.09,0-.16-.01-.34,0-.5-.01.58.01.22.05.05,0-.42-.12-.84-.22-1.25-.39.54.22-.6-.32-.77-.42-1.61-.9-3.08-2.03-4.68-2.96-3.97-2.31-8.64-2.54-11.75,1.35-1.75,2.18-2.92,4.84-4.18,7.32s-2.58,5.23-3.78,7.88c-2.42,5.33-4.63,10.76-6.6,16.27-2.2,6.14-4.09,12.38-5.69,18.69l5.79,1.6c4.75-18.86,9.49-37.72,14.24-56.58.94-3.75-4.84-5.34-5.79-1.6h0Z"/></svg>