<?xml version="1.0" encoding="UTF-8"?><svg id="Layer_2" xmlns="http://www.w3.org/2000/svg" width="396.5" height="253.28" viewBox="0 0 396.5 253.28"><defs><style>.cls-1{fill:#1b542e;stroke-width:0px;}</style></defs><path class="cls-1" d="m79.06,3.87c-12.56-1.57-22.19,9.82-29.62,18.23-8.91,10.08-17.74,20.27-25.49,31.28-7.61,10.83-14.04,22.5-18.36,35.04C1.35,100.76-.93,114.21.36,127.26c.62,6.31,2.39,12.47,7.04,17.02,3.83,3.75,8.99,6.05,14.23,6.97,10.8,1.88,22.02-1.05,31.42-6.42,21.26-12.14,33.22-35.15,38.55-58.29,2.95-12.79,4.17-25.96,4.53-39.06.19-7.07.11-14.16-1.14-21.14-1.11-6.25-3.35-12.35-6.56-17.84-1.58-2.7-3.44-5.25-5.47-7.63-1.05-1.23-3.16-1.08-4.24,0-1.22,1.22-1.05,3.01,0,4.24,7.87,9.25,11.05,20.93,11.43,32.87.4,12.44-.46,25.16-2.47,37.44-3.67,22.4-12.3,45.03-30.61,59.49-7.63,6.03-17.09,10.29-26.65,10.85s-19.51-2.48-22.72-12.01c-1.92-5.7-1.87-12.11-1.55-18.04.32-6.1,1.35-12.13,2.9-18.04,3.15-11.97,8.45-23.21,15.03-33.67,6.71-10.68,14.66-20.49,22.9-30.02,4.01-4.63,7.99-9.33,12.23-13.76,3.58-3.74,7.78-7.74,12.65-9.51,2.46-.9,4.59-1.16,7.2-.84,1.61.2,3-1.52,3-3,0-1.79-1.38-2.8-3-3h0Z"/><path class="cls-1" d="m313.13,135.05c8.38-7.11,16.06-15.03,22.88-23.65,3.43-4.34,6.68-8.83,9.67-13.48,1.5-2.33,3.82-5.18,2.02-8-1.58-2.48-4.92-2.47-7.5-2.16-10.68,1.29-19.14,10.22-25.11,18.51-5.99,8.31-10.11,18.17-11.65,28.3-.5,3.27-.65,6.67,1.41,9.47,1.76,2.4,4.45,3.85,7.29,4.63,6.4,1.76,13.3.82,19.26-1.94,1.47-.68,1.84-2.8,1.08-4.1-.88-1.51-2.63-1.76-4.1-1.08-4.09,1.9-8.93,2.52-13.36,1.63-1.73-.35-3.57-.9-4.74-2-1.31-1.24-1.32-3.06-1.06-4.97,1.21-8.68,4.57-17.09,9.34-24.41,2.4-3.69,5.2-7.08,8.35-10.15s6.43-5.72,10.42-7.11c1.8-.63,4.04-1.24,5.96-.88-.53-.1.07.05.09.07l-.19-.06-.76-1.82c-.11,0-.52.83-.65,1.03-.69,1.1-1.39,2.2-2.11,3.29-2.56,3.89-5.28,7.68-8.18,11.33-6.75,8.49-14.33,16.3-22.61,23.31-1.24,1.05-1.08,3.16,0,4.24,1.23,1.23,3,1.05,4.24,0h0Z"/><path class="cls-1" d="m106.28,82.29c-6.02,18.34-12.81,36.45-20.4,54.2-2.17,5.07-4.4,10.11-6.69,15.12l5.59,1.51c-.28-3.83,1.96-7.08,4.05-10.1,2.48-3.58,5.04-7.1,7.68-10.57,5.21-6.86,10.73-13.47,16.52-19.85,2.57-2.84,5.11-6.02,8.31-8.18,1.39-.93,2.78-1.74,4.42-1.98.9-.14,2.04.09,2.82.79.74.67,1.13,1.7,1.19,2.58.12,1.68-.06,2.67-.47,4.25-.99,3.76-2.69,7-4.31,10.68-4.17,9.52-8.33,19.03-12.5,28.55l5.48,2.31c6.3-19.22,15.05-39.17,31.75-51.61,3.68-2.74,7.69-5.16,11.95-6.89,1.1-.45,2.21-.85,3.34-1.22.51-.17,1.04-.36,1.57-.48-.96.21.56-.18.53-.09-.1.3-.64-.39-.7-.42-.14-.06-.07-.31.03.07.22.88.01-.3.05.26.02.26,0,.53,0,.79,0,.07-.05.6,0,.14-.15,1.2-.47,2.4-.76,3.57-2.42,9.85-7.19,18.87-11.25,28.1-2.35,5.34-4.54,10.78-5.95,16.45-.67,2.73-1.73,6.09-.76,8.84,1.12,3.19,5.74,5.02,8.19,2.07,1.03-1.25,1.22-3.02,0-4.24-1.06-1.06-3.2-1.25-4.24,0,.18-.21.77-.32,1.01-.28.14.02.99.49.71.49-.08,0-.03-.74-.03-.79.08-1.16.41-2.35.67-3.49.57-2.51,1.31-4.98,2.15-7.41,1.66-4.79,3.75-9.41,5.86-14.01s4.4-9.52,6.29-14.41,3.67-9.73,4.08-14.73c.2-2.46-.58-5.11-2.86-6.37-2.62-1.46-5.87-.05-8.43.92-4.68,1.77-9.11,4.11-13.2,7-8.28,5.85-15.11,13.46-20.57,21.99-6.74,10.54-11.34,22.3-15.22,34.14-.46,1.4.42,3.01,1.74,3.54s3.14.16,3.75-1.23c4.07-9.29,8.14-18.58,12.2-27.87,1.78-4.07,3.93-8.15,5.12-12.45,1-3.59,1.39-7.91-.71-11.21-2.37-3.73-6.81-5.11-10.98-3.94-4.16,1.17-7.65,4.13-10.56,7.22-6.56,6.96-12.79,14.23-18.67,21.78-3.31,4.25-6.53,8.57-9.62,12.99s-6.07,8.88-5.67,14.28c.1,1.33.86,2.53,2.2,2.89,1.19.33,2.84-.19,3.39-1.38,8.2-17.96,15.65-36.28,22.27-54.88,1.87-5.27,3.68-10.56,5.43-15.87.51-1.54-.59-3.28-2.1-3.69-1.63-.45-3.18.55-3.69,2.1h0Z"/><path class="cls-1" d="m226.24,149.71c7.02-18.35,14.03-36.7,21.05-55.05,7.05-18.43,14.09-36.85,21.14-55.28,3.95-10.34,7.91-20.68,11.86-31.02l-5.79-1.6c-8.25,24.64-16.65,50.77-11.95,77.03.49,2.73,1.03,5.58,2.89,7.76,2.2,2.59,5.79,2.89,8.66,1.28,2.64-1.48,4.46-4.16,6.29-6.47,2.02-2.54,3.99-5.11,5.93-7.71,7.51-10.08,14.4-20.6,20.94-31.33,7.43-12.19,14.41-24.65,21.39-37.1l-5.48-2.31c-7.55,19.95-14.96,39.95-22.24,59.99-6.9,19.01-13.64,38.16-17.86,57.97-2.39,11.21-3.95,22.61-4.29,34.07-.06,2.07,1.96,3.26,3.8,2.89,6.42-1.28,11.98-5.09,15.8-10.35.95-1.31.22-3.34-1.08-4.1-1.52-.89-3.15-.24-4.1,1.08-2.92,4.02-7.39,6.63-12.21,7.59l3.8,2.89c.59-20.02,5.12-39.62,11.03-58.68s13.47-38.96,20.62-58.28c4.13-11.18,8.31-22.34,12.53-33.49.52-1.38-.47-3.03-1.74-3.54-1.35-.54-3-.1-3.75,1.23-11.69,20.87-23.42,41.78-37.21,61.36-3.38,4.8-6.88,9.52-10.54,14.11-.87,1.1-1.73,2.22-2.67,3.26-.66.73-1.68,1.89-2.65,1.98.42-.04-.45-.16-.12-.02-.36-.15-.3-.16-.53-.5-.5-.76-.75-1.77-.98-2.85-2.55-11.69-1.9-24.01.19-35.72,2.47-13.8,6.86-27.17,11.3-40.44.51-1.54-.59-3.28-2.1-3.69-1.69-.46-3.11.58-3.69,2.1-7.02,18.35-14.03,36.7-21.05,55.05-7.05,18.43-14.09,36.85-21.14,55.28-3.95,10.34-7.91,20.68-11.86,31.02-.58,1.51.64,3.29,2.1,3.69,1.69.46,3.11-.58,3.69-2.1h0Z"/><path class="cls-1" d="m390.71,108.51c.77-5.43,1.24-11.31-1.29-16.38-2.82-5.68-9.46-7.67-15.26-5.67s-10.63,6.76-14.47,11.67-7.09,10.62-9.42,16.61-3.63,12.05-4.1,18.31c-.23,3.06-.23,6.15.03,9.2.28,3.26.93,6.66,3.49,8.96,4.95,4.44,11.54,1.37,15.81-2.4,2.34-2.07,4.09-4.6,5.8-7.18,1.91-2.89,3.76-5.83,5.53-8.81,8.06-13.57,14.61-28.04,19.55-43.03l-5.79-1.6c-8.69,29.67-17.39,59.37-27.95,88.44-5.26,14.48-10.98,28.8-17.39,42.81-2.86,6.25-5.62,12.75-9.35,18.54-1.56,2.42-3.24,4.56-5.5,6.45-1.64,1.37-4.1,2.57-6.05,2.84-5.82.79-11.29-3.75-13.25-9.16-2.62-7.25.01-15.17,3.7-21.53,1.94-3.35-3.24-6.37-5.18-3.03-3.93,6.77-6.4,14.54-5.23,22.41.96,6.47,5.19,12.74,11.15,15.62,6.4,3.09,13.26,1.76,18.7-2.58,4.98-3.97,8.2-9.86,10.95-15.48,7.22-14.72,13.62-29.84,19.46-45.16,5.78-15.17,11-30.55,15.9-46.03,4.91-15.49,9.52-31.08,14.1-46.68.57-1.96,1.15-3.91,1.72-5.87.46-1.55-.55-3.27-2.1-3.69-1.63-.45-3.18.55-3.69,2.1-3.89,11.79-8.8,23.2-14.71,34.12-2.94,5.44-6.12,10.74-9.52,15.9-2.54,3.85-5.79,8.34-10.35,9.2.44-.08-.77.03-.98.01.65.04-.76-.23-.53-.14.36.14-.48-.27-.44-.25-.79-.49.16.17-.26-.2s-.7-.77-.93-1.29c-.93-2.09-.84-4.93-.87-7.31-.07-5.37.62-10.66,2.03-15.83s3.63-10.36,6.49-15.06,6.07-8.91,10.18-12.19c2.08-1.66,4.53-3.09,7.18-3.48,2.04-.3,4.11.47,5.47,2.04.44.5,1,1.61,1.27,2.44.36,1.13.54,2.22.61,3.05.21,2.5-.03,5.66-.32,7.68-.23,1.6.39,3.22,2.1,3.69,1.41.39,3.46-.48,3.69-2.1h0Z"/></svg>