<?xml version="1.0" encoding="UTF-8"?><svg id="Layer_2" xmlns="http://www.w3.org/2000/svg" width="370.94" height="173.19" viewBox="0 0 370.94 173.19"><defs><style>.cls-1{fill:#1b542e;stroke-width:0px;}</style></defs><path class="cls-1" d="m40.36,2.06c-6.6-.74-11.62,4.87-15.56,9.33-4.45,5.04-8.86,10.13-12.74,15.63C4.46,37.81-1.37,51.39.28,64.87c.41,3.3,1.47,6.5,3.94,8.84,2.01,1.9,4.65,3.16,7.37,3.66,5.66,1.05,11.5-.35,16.48-3.11,10.87-6.04,17.11-17.71,19.86-29.45,1.71-7.31,2.37-14.93,2.38-22.43,0-3.95-.31-7.99-1.55-11.76-1.17-3.55-2.99-6.74-5.4-9.59-1.05-1.24-3.17-1.08-4.24,0-1.23,1.23-1.05,3,0,4.24,3.67,4.35,5.04,9.85,5.17,15.44.15,5.91-.23,11.94-1.2,17.78-1.76,10.54-5.71,21.12-14.22,28.04-3.46,2.81-7.94,4.89-12.19,5.17-2.22.15-4.29-.05-6.02-.83-1.92-.86-3.31-2.08-3.94-4.2-.81-2.73-.78-5.7-.6-8.52s.69-5.67,1.43-8.43c1.53-5.66,4.05-10.95,7.17-15.9,3.6-5.73,7.94-10.92,12.39-16,2.1-2.39,4.15-4.89,6.53-7.01,2.04-1.82,4.12-3.04,6.73-2.75,1.61.18,3-1.51,3-3,0-1.77-1.38-2.82-3-3h0Z"/><path class="cls-1" d="m287.58,54.97c8.38-7.11,16.06-15.03,22.88-23.65,3.43-4.34,6.68-8.83,9.67-13.48,1.5-2.33,3.82-5.18,2.02-8-1.58-2.48-4.92-2.47-7.5-2.16-10.68,1.29-19.14,10.22-25.11,18.51-5.99,8.31-10.11,18.17-11.65,28.3-.5,3.27-.65,6.67,1.41,9.47,1.76,2.4,4.45,3.85,7.29,4.63,6.4,1.76,13.3.82,19.26-1.94,1.47-.68,1.84-2.8,1.08-4.1-.88-1.51-2.63-1.76-4.1-1.08-4.09,1.9-8.93,2.52-13.36,1.63-1.73-.35-3.57-.9-4.74-2-1.31-1.24-1.32-3.06-1.06-4.97,1.21-8.68,4.57-17.09,9.34-24.41,2.4-3.69,5.2-7.08,8.35-10.15s6.43-5.72,10.42-7.11c1.8-.63,4.04-1.24,5.96-.88-.53-.1.07.05.09.07l-.19-.06-.76-1.82c-.11,0-.52.83-.65,1.03-.69,1.1-1.39,2.2-2.11,3.29-2.56,3.89-5.28,7.68-8.18,11.33-6.75,8.49-14.33,16.3-22.61,23.31-1.24,1.05-1.08,3.16,0,4.24,1.23,1.23,3,1.05,4.24,0h0Z"/><path class="cls-1" d="m80.72,2.2c-6.02,18.34-12.81,36.45-20.4,54.2-2.17,5.07-4.4,10.11-6.69,15.12l5.59,1.51c-.28-3.83,1.96-7.08,4.05-10.1,2.48-3.58,5.04-7.1,7.68-10.57,5.21-6.86,10.73-13.47,16.52-19.85,2.57-2.84,5.11-6.02,8.31-8.18,1.39-.93,2.78-1.74,4.42-1.98.9-.14,2.04.09,2.82.79.74.67,1.13,1.7,1.19,2.58.12,1.68-.06,2.67-.47,4.25-.99,3.76-2.69,7-4.31,10.68-4.17,9.52-8.33,19.03-12.5,28.55l5.48,2.31c6.3-19.22,15.05-39.17,31.75-51.61,3.68-2.74,7.69-5.16,11.95-6.89,1.1-.45,2.21-.85,3.34-1.22.51-.17,1.04-.36,1.57-.48-.96.21.56-.18.53-.09-.1.3-.64-.39-.7-.42-.14-.06-.07-.31.03.07.22.88.01-.3.05.26.02.26,0,.53,0,.79,0,.07-.05.6,0,.14-.15,1.2-.47,2.4-.76,3.57-2.42,9.85-7.19,18.87-11.25,28.1-2.35,5.34-4.54,10.78-5.95,16.45-.67,2.73-1.73,6.09-.76,8.84,1.12,3.19,5.74,5.02,8.19,2.07,1.03-1.25,1.22-3.02,0-4.24-1.06-1.06-3.2-1.25-4.24,0,.18-.21.77-.32,1.01-.28.14.02.99.49.71.49-.08,0-.03-.74-.03-.79.08-1.16.41-2.35.67-3.49.57-2.51,1.31-4.98,2.15-7.41,1.66-4.79,3.75-9.41,5.86-14.01s4.4-9.52,6.29-14.41,3.67-9.73,4.08-14.73c.2-2.46-.58-5.11-2.86-6.37-2.62-1.46-5.87-.05-8.43.92-4.68,1.77-9.11,4.11-13.2,7-8.28,5.85-15.11,13.46-20.57,21.99-6.74,10.54-11.34,22.3-15.22,34.14-.46,1.4.42,3.01,1.74,3.54s3.14.16,3.75-1.23c4.07-9.29,8.14-18.58,12.2-27.87,1.78-4.07,3.93-8.15,5.12-12.45,1-3.59,1.39-7.91-.71-11.21-2.37-3.73-6.81-5.11-10.98-3.94-4.16,1.17-7.65,4.13-10.56,7.22-6.56,6.96-12.79,14.23-18.67,21.78-3.31,4.25-6.53,8.57-9.62,12.99s-6.07,8.88-5.67,14.28c.1,1.33.86,2.53,2.2,2.89,1.19.33,2.84-.19,3.39-1.38,8.2-17.96,15.65-36.28,22.27-54.88,1.87-5.27,3.68-10.56,5.43-15.87.51-1.54-.59-3.28-2.1-3.69-1.63-.45-3.18.55-3.69,2.1h0Z"/><path class="cls-1" d="m209.72,2.2c-6.02,18.34-12.81,36.45-20.4,54.2-2.17,5.07-4.4,10.11-6.69,15.12l5.59,1.51c-.28-3.83,1.96-7.08,4.05-10.1,2.48-3.58,5.04-7.1,7.68-10.57,5.21-6.86,10.73-13.47,16.52-19.85,2.57-2.84,5.11-6.02,8.31-8.18,1.39-.93,2.78-1.74,4.42-1.98.9-.14,2.04.09,2.82.79.74.67,1.13,1.7,1.19,2.58.12,1.68-.06,2.67-.47,4.25-.99,3.76-2.69,7-4.31,10.68-4.17,9.52-8.33,19.03-12.5,28.55l5.48,2.31c6.3-19.22,15.05-39.17,31.75-51.61,3.68-2.74,7.69-5.16,11.95-6.89,1.1-.45,2.21-.85,3.34-1.22.51-.17,1.04-.36,1.57-.48-.96.21.56-.18.53-.09-.1.3-.64-.39-.7-.42-.14-.06-.07-.31.03.07.22.88.01-.3.05.26.02.26,0,.53,0,.79,0,.07-.05.6,0,.14-.15,1.2-.47,2.4-.76,3.57-2.42,9.85-7.19,18.87-11.25,28.1-2.35,5.34-4.54,10.78-5.95,16.45-.67,2.73-1.73,6.09-.76,8.84,1.12,3.19,5.74,5.02,8.19,2.07,1.03-1.25,1.22-3.02,0-4.24-1.06-1.06-3.2-1.25-4.24,0,.18-.21.77-.32,1.01-.28.14.02.99.49.71.49-.08,0-.03-.74-.03-.79.08-1.16.41-2.35.67-3.49.57-2.51,1.31-4.98,2.15-7.41,1.66-4.79,3.75-9.41,5.86-14.01s4.4-9.52,6.29-14.41,3.67-9.73,4.08-14.73c.2-2.46-.58-5.11-2.86-6.37-2.62-1.46-5.87-.05-8.43.92-4.68,1.77-9.11,4.11-13.2,7-8.28,5.85-15.11,13.46-20.57,21.99-6.74,10.54-11.34,22.3-15.22,34.14-.46,1.4.42,3.01,1.74,3.54s3.14.16,3.75-1.23c4.07-9.29,8.14-18.58,12.2-27.87,1.78-4.07,3.93-8.15,5.12-12.45,1-3.59,1.39-7.91-.71-11.21-2.37-3.73-6.81-5.11-10.98-3.94-4.16,1.17-7.65,4.13-10.56,7.22-6.56,6.96-12.79,14.23-18.67,21.78-3.31,4.25-6.53,8.57-9.62,12.99s-6.07,8.88-5.67,14.28c.1,1.33.86,2.53,2.2,2.89,1.19.33,2.84-.19,3.39-1.38,8.2-17.96,15.65-36.28,22.27-54.88,1.87-5.27,3.68-10.56,5.43-15.87.51-1.54-.59-3.28-2.1-3.69-1.63-.45-3.18.55-3.69,2.1h0Z"/><path class="cls-1" d="m365.15,28.43c.77-5.43,1.24-11.31-1.29-16.38-2.82-5.68-9.46-7.67-15.26-5.67s-10.63,6.76-14.47,11.67-7.09,10.62-9.42,16.61-3.63,12.05-4.1,18.31c-.23,3.06-.23,6.15.03,9.2.28,3.26.93,6.66,3.49,8.96,4.95,4.44,11.54,1.37,15.81-2.4,2.34-2.07,4.09-4.6,5.8-7.18,1.91-2.89,3.76-5.83,5.53-8.81,8.06-13.57,14.61-28.04,19.55-43.03l-5.79-1.6c-8.69,29.67-17.39,59.37-27.95,88.44-5.26,14.48-10.98,28.8-17.39,42.81-2.86,6.25-5.62,12.75-9.35,18.54-1.56,2.42-3.24,4.56-5.5,6.45-1.64,1.37-4.1,2.57-6.05,2.84-5.82.79-11.29-3.75-13.25-9.16-2.62-7.25.01-15.17,3.7-21.53,1.94-3.35-3.24-6.37-5.18-3.03-3.93,6.77-6.4,14.54-5.23,22.41.96,6.47,5.19,12.74,11.15,15.62,6.4,3.09,13.26,1.76,18.7-2.58,4.98-3.97,8.2-9.86,10.95-15.48,7.22-14.72,13.62-29.84,19.46-45.16,5.78-15.17,11-30.55,15.9-46.03,4.91-15.49,9.52-31.08,14.1-46.68.57-1.96,1.15-3.91,1.72-5.87.46-1.55-.55-3.27-2.1-3.69-1.63-.45-3.18.55-3.69,2.1-3.89,11.79-8.8,23.2-14.71,34.12-2.94,5.44-6.12,10.74-9.52,15.9-2.54,3.85-5.79,8.34-10.35,9.2.44-.08-.77.03-.98.01.65.04-.76-.23-.53-.14.36.14-.48-.27-.44-.25-.79-.49.16.17-.26-.2s-.7-.77-.93-1.29c-.93-2.09-.84-4.93-.87-7.31-.07-5.37.62-10.66,2.03-15.83s3.63-10.36,6.49-15.06,6.07-8.91,10.18-12.19c2.08-1.66,4.53-3.09,7.18-3.48,2.04-.3,4.11.47,5.47,2.04.44.5,1,1.61,1.27,2.44.36,1.13.54,2.22.61,3.05.21,2.5-.03,5.66-.32,7.68-.23,1.6.39,3.22,2.1,3.69,1.41.39,3.46-.48,3.69-2.1h0Z"/><path class="cls-1" d="m9.11,96.06c20.07-1.7,40.14-3.41,60.21-5.11,19.88-1.69,39.89-3.86,59.86-2.57s38.57,5.62,58.05,6.76c19.85,1.16,39.88-.07,59.66-1.88,22.32-2.05,44.53-5.19,66.72-8.32,1.61-.23,2.49-2.27,2.1-3.69-.47-1.73-2.08-2.32-3.69-2.1-19.69,2.78-39.38,5.55-59.17,7.53-19.59,1.96-39.36,3.32-59.06,2.74-19.56-.58-38.7-4.65-58.14-6.52s-39.43-.23-59.1,1.44c-22.48,1.91-44.96,3.82-67.44,5.73-1.61.14-3,1.28-3,3,0,1.52,1.38,3.14,3,3h0Z"/></svg>