<?xml version="1.0" encoding="UTF-8"?><svg id="Layer_2" xmlns="http://www.w3.org/2000/svg" width="406" height="238.14" viewBox="0 0 406 238.14"><defs><style>.cls-1{fill:#1f0318;stroke-width:0px;}</style></defs><path class="cls-1" d="m34.78,16.65c-4.5,17.04-9.01,34.09-13.51,51.13l-13.51,51.13c-2.55,9.65-5.1,19.3-7.65,28.94-.99,3.74,4.8,5.33,5.79,1.6,4.5-17.04,9.01-34.09,13.51-51.13s9.01-34.09,13.51-51.13c2.55-9.65,5.1-19.3,7.65-28.94.99-3.74-4.8-5.33-5.79-1.6h0Z"/><path class="cls-1" d="m20.6,18.3c9.66-3.89,19.6-7.07,29.73-9.49,4.71-1.12,9.53-2.3,14.37-2.76,4.18-.4,8.54-.22,12.12,2.21,5.87,3.97,6.93,12.55,5.04,19.1-1.25,4.37-3.59,8.34-6.21,12.02s-5.5,7.19-8.7,10.35c-6.47,6.39-16.65,11.91-25.64,7.16-1.43-.76-3.26-.36-4.1,1.08-.79,1.35-.36,3.35,1.08,4.1,9.77,5.15,21.02,1.72,29.19-4.78,3.87-3.08,7.16-6.83,10.21-10.7s6.18-8.25,8.24-12.98c3.83-8.78,4.1-19.18-2.14-26.96C76.81-2.04,65.07-.4,55.43,1.55c-12.45,2.53-24.65,6.21-36.43,10.96-1.5.61-2.56,2-2.1,3.69.39,1.43,2.18,2.7,3.69,2.1h0Z"/><path class="cls-1" d="m71.96,76.69c-8.7-.39-15.68,6.16-19.29,13.52-3.9,7.94-6.03,16.98-7.29,25.69-.97,6.67-1.54,14.54,2.44,20.43,2.15,3.18,5.39,5.35,9.22,5.88,4.31.6,8.63-.67,12.27-2.98s6.67-5.39,9.64-8.44,5.69-6.18,7.98-9.68c4.49-6.87,6.6-15.25,5.77-23.44-.43-4.26-1.51-8.38-3.38-12.25s-4.81-6.88-9.1-7.52c-3.61-.54-7.5-.34-11.07.4-3.16.65-6.47,2.04-8.62,4.54-2.8,3.26-4.03,8.44,0,11.28,3.03,2.13,7.21,1.6,10.65,1.17,8.38-1.05,16.49-3.73,23.76-8.05,1.71-1.02,3.37-2.13,4.97-3.32,1.3-.96,1.96-2.6,1.08-4.1-.75-1.28-2.8-2.05-4.1-1.08-5.64,4.19-11.96,7.31-18.75,9.13-3.32.89-6.7,1.49-10.13,1.72-.71.05-1.41.09-2.12.06s-.63,0-1.43-.24c-.36-.1-.47-.21-.7-.39l.13.16c-.17-.3-.19-.33-.04-.09.12-.3.15-.65.28-.95-.19.46.26-.45.24-.42.15-.26.32-.53.5-.77-.33.42.32-.31.32-.31.21-.21.43-.42.67-.61-.42.34.38-.25.38-.25.26-.17.53-.32.8-.47.77-.41.8-.41,1.64-.68,2.67-.86,4.93-1.02,7.82-.99,1.42.02,2.99-.04,4.29.61,1.21.61,2.06,1.81,2.74,3.01,1.61,2.84,2.56,6.13,3.05,9.35.98,6.49-.21,13.35-3.38,19.09-3.31,5.99-8.36,11.13-13.43,15.66-2.47,2.21-5.27,4.18-8.58,4.84-2.75.55-5.6-.2-7.29-1.86s-2.38-3.63-2.88-6.23c-.43-2.24-.43-5.31-.18-7.97.78-8.32,2.89-16.89,6-24.64,2.54-6.35,7.6-13.14,15.13-12.81,1.62.07,3-1.43,3-3,0-1.68-1.37-2.93-3-3h0Z"/><path class="cls-1" d="m112.62,81.88c-.87,19.74-4.86,39.24-11.71,57.78l5.79,1.6c2.45-11.98,5.63-23.8,9.57-35.38,1.75-5.13,3.44-10.71,5.87-15.28.99-1.87,2.13-3.62,3.63-4.75.62-.46,1.19-.71,1.88-.9.12-.03.76-.11.28-.07.21-.02.43-.02.64-.02.42,0,1.01.12,1.59.35,2.54,1.03,4.45,3.27,6.88,4.54,3.02,1.57,6.47,2.16,9.56.41,3.36-1.9.34-7.09-3.03-5.18-1.59.9-3.89-.51-5.5-1.68-2.26-1.64-4.45-3.53-7.25-4.16-5.36-1.21-9.74,2.06-12.59,6.31-1.41,2.09-2.41,4.42-3.33,6.76-1.16,2.96-2.26,5.93-3.32,8.93-2.06,5.84-3.94,11.74-5.62,17.7-1.94,6.88-3.62,13.83-5.05,20.83-.78,3.81,4.45,5.21,5.79,1.6,7.03-19.02,11.03-39.11,11.92-59.37.07-1.62-1.43-3-3-3-1.68,0-2.93,1.37-3,3h0Z"/><path class="cls-1" d="m177.52,44.68c.64,16.52-4.7,32.34-10.03,47.74-2.72,7.88-5.5,15.76-7.63,23.83-1.05,3.96-1.94,7.96-2.58,12-.34,2.18-.63,4.37-.84,6.57-.19,2-.63,4.35.08,6.28,1.12,3.06,4.43,3.49,7.06,2.19,2.1-1.04,3.92-3.08,5.61-4.67,3.74-3.54,7.21-7.37,10.38-11.42,1-1.27,1.24-3,0-4.24-1.04-1.04-3.24-1.28-4.24,0-2.62,3.34-5.42,6.52-8.43,9.52-1.5,1.5-3.05,2.95-4.64,4.35-.31.27-.78.71-.99.87.06-.04-.67.44-.47.32-.21.13-.26,0-.22.07-.05-.1,1.63,1.08,1.6,1.1-.05.03,0-.76.02-1.05.39-7.64,2-15.16,4.05-22.52,4.22-15.1,10.48-29.57,14.23-44.81,2.1-8.54,3.38-17.34,3.04-26.15-.06-1.62-1.33-3-3-3-1.58,0-3.06,1.37-3,3h0Z"/><path class="cls-1" d="m162.47,91.72c13.5-4.7,27.08-9.17,40.74-13.41,3.68-1.14,2.11-6.93-1.6-5.79-13.65,4.24-27.23,8.71-40.74,13.41-1.53.53-2.55,2.05-2.1,3.69.41,1.49,2.15,2.63,3.69,2.1h0Z"/><path class="cls-1" d="m248.42,76.6c1.9-12.36,3.8-24.73,5.7-37.09.22-1.44-.18-2.54-1.38-3.39-5.71-4.03-11.9,1.56-14.88,6.23-1.86,2.9-3.19,6.22-4.67,9.32-1.58,3.31-3.13,6.62-4.66,9.95-6.16,13.4-11.95,26.97-17.45,40.65-11,27.34-20.82,55.14-30.04,83.13-5.36,16.27-10.48,32.62-15.38,49.04-1.11,3.71,4.68,5.29,5.79,1.6,8.36-28.01,17.36-55.84,27.09-83.41,9.46-26.79,19.68-53.32,31.24-79.27,3.24-7.27,6.58-14.5,10.04-21.67,1.44-2.99,2.76-6.22,5.01-8.61.39-.41,1.13-1.11,1.38-1.29.18-.13.37-.26.56-.37.11-.07,1.08-.55.71-.41.28-.11.57-.19.87-.25-.55.11.27,0,.36.01-.59-.01.23.06.35.1-.4-.13.54.34.67.43l-1.38-3.39c-1.9,12.36-3.8,24.73-5.7,37.09-.25,1.6.41,3.23,2.1,3.69,1.42.39,3.44-.48,3.69-2.1h0Z"/><path class="cls-1" d="m193.53,109.33c11.35-1.34,22.69-2.67,34.04-4.01,1.61-.19,3-1.24,3-3,0-1.47-1.38-3.19-3-3-11.35,1.34-22.69,2.67-34.04,4.01-1.61.19-3,1.24-3,3,0,1.47,1.38,3.19,3,3h0Z"/><path class="cls-1" d="m273.81,68.83c-5.59-.55-10.1,3.54-13.73,7.24-3.96,4.04-7.92,8.11-11.42,12.56-6.95,8.85-12.67,20.02-11.26,31.62.35,2.84,1.28,5.61,3.46,7.59,1.82,1.66,4.15,2.75,6.56,3.23,5.05,1,10.22-.05,14.83-2.2,9.56-4.47,15.7-13.87,18.44-23.78,1.67-6.03,2.3-12.4,2.36-18.65.03-3.3-.2-6.71-1.27-9.86s-2.8-5.99-5.07-8.43c-2.64-2.83-6.87,1.42-4.24,4.24,3.27,3.52,4.5,7.91,4.58,12.63s-.28,9.74-1.21,14.48c-1.67,8.54-5.51,17.01-12.87,22.03-3.27,2.23-7.03,3.74-10.86,3.9-1.96.08-3.58-.03-5.45-.85-.3-.13-1.29-.75-1.56-1-.66-.61-1.04-1.11-1.37-2.07-.73-2.16-.61-4.67-.43-6.91s.72-4.66,1.43-6.9c1.47-4.68,3.92-8.98,6.76-12.96,3.19-4.45,6.98-8.45,10.79-12.37,3.07-3.16,6.81-8.03,11.52-7.57,1.61.16,3-1.49,3-3,0-1.75-1.38-2.84-3-3h0Z"/><path class="cls-1" d="m302.06,65.76c13.51-12.42,25.38-26.59,35.31-42.02,1.22-1.9-.37-4.58-2.59-4.51-7.52.21-11.48,7.27-14,13.43-3.29,8.07-6.38,16.22-9.36,24.4-5.96,16.34-11.38,32.87-16.24,49.57-2.76,9.46-5.34,18.98-7.74,28.54-.71,2.84,2.88,5.12,5.01,2.92,4.19-4.33,8.38-8.67,12.58-13,2.69-2.78-1.55-7.02-4.24-4.24-4.19,4.33-8.38,8.67-12.58,13l5.01,2.92c4.1-16.32,8.72-32.52,13.86-48.54,5.14-16.03,10.78-31.89,16.94-47.56,1.47-3.74,2.63-7.24,4.64-10.61.86-1.44,1.62-2.53,2.97-3.63.85-.7,2.08-1.17,3.16-1.2l-2.59-4.51c-9.66,15.02-21.23,28.72-34.37,40.81-1.19,1.1-1.11,3.13,0,4.24,1.19,1.19,3.05,1.1,4.24,0h0Z"/><path class="cls-1" d="m335.05,75.94c-1.08,9.65-2.62,19.24-4.6,28.75-.99,4.77-2.09,9.51-3.3,14.23-.6,2.32-1.22,4.63-1.86,6.94-.35,1.23-.7,2.46-1.06,3.68-.18.61-.36,1.22-.55,1.84-.09.31-.18.61-.28.92.2-.45.56-.76,1.08-.93h1.6l-.17-.05,1.32.77-.11-.13.77,1.32-.23,1.65-1.79,1.38.12-.04-2.31-.3.15.07c1.46.69,3.24.41,4.1-1.08.76-1.3.4-3.41-1.08-4.1-2.78-1.31-5.59,1.03-4.74,4.02.94,3.32,5.29,2.79,6.63.14,1.05-2.08,1.51-4.63,2.14-6.86.67-2.38,1.32-4.77,1.94-7.16,2.41-9.35,4.4-18.81,5.95-28.35.9-5.54,1.66-11.11,2.28-16.69.18-1.61-1.51-3-3-3-1.77,0-2.82,1.38-3,3h0Z"/><path class="cls-1" d="m339.67,53.13c.19.18.38.35.56.54.12.12.23.25.35.38.03.03.31.36.09.1-.18-.22.23.33.29.43.17.25.32.51.47.77s.27.54.4.81c.15.31-.04-.08-.05-.12.04.12.09.24.13.36.2.57.35,1.16.46,1.75.02.13.04.25.06.38,0-.05-.04-.5-.03-.16,0,.26.04.52.05.77,0,.3,0,.6-.01.9,0,.13-.02.26-.03.39,0,.07-.09.61-.02.24.06-.34-.08.37-.11.49-.06.25-.13.5-.2.75-.06.2-.35.88-.1.37-.13.27-.32.53-.43.8s.03-.01.09-.08c-.08.1-.17.19-.26.29-.08.08-.48.36-.17.17s-.07-.01-.1.03c0,0,.49-.23.16-.09-.31.12.13-.04.19-.04.01,0,.59.13.27.03-.37-.12.48.28.16.08s.44.37.13.12c-.08-.06-.14-.16-.22-.22.05.04.26.46.15.19-.04-.09-.12-.19-.17-.28-.16-.28-.19-.57-.07-.11-.08-.3-.2-.59-.27-.9-.06-.23-.08-.46-.14-.69.12.49.03.22,0-.11-.07-.82-.11-1.64-.14-2.46-.06-1.53-.06-3.05,0-4.58.02-.47.06-.94.06-1.41,0-.07.03-.46,0-.05s.02-.08.04-.17c.07-.27.14-.53.22-.8.02-.05.14-.45.02-.09-.13.4.1-.2.14-.29.06-.12.46-.79.25-.46-.26.41.24-.36.33-.31.02.01-.49.36-.22.19.32-.19-.64.19-.14.07-.24.06-.44.03-.67.04-.25-.05-.29-.05-.13,0,.21.06.12.03-.25-.1,1.39.73,3.33.4,4.1-1.08.73-1.39.41-3.32-1.08-4.1-3.99-2.1-7.39,1.38-8.31,5.1-.47,1.9-.41,3.97-.41,5.91,0,2.05.05,4.14.38,6.16.59,3.59,3.59,7.51,7.7,6.01,3.77-1.37,5.24-5.84,5.26-9.53.02-3.96-1.62-7.96-4.54-10.65-1.15-1.06-3.12-1.23-4.24,0-1.06,1.16-1.23,3.11,0,4.24h0Z"/><path class="cls-1" d="m374.78,72.41c-1.8-.77-3.63-1.08-5.52-.38-1.67.62-3.11,1.7-4.28,3.04-2.61,3.02-3.93,6.77-5.44,10.41-3.28,7.89-6.24,15.91-8.89,24.03-1.23,3.79-2.74,7.7-3.44,11.64-.74,4.14.36,8.2,4.47,10.05,7.31,3.28,15.62.76,21.52-4.18s9.6-12.33,12.55-19.36c3.18-7.59,5.24-15.55,6.27-23.71.47-3.73.79-7.7-1.06-11.14-1.72-3.18-5.1-4.84-8.6-5.02-7.75-.42-12.75,6.02-15.79,12.3-1.47,3.03-3.49,7.27-.54,10.14,1.91,1.86,4.5,1.42,6.69.43,1.82-.82,3.61-1.72,5.4-2.62,7.38-3.72,14.54-7.87,21.44-12.42,1.68-1.11,3.33-2.24,4.98-3.39,1.33-.93,1.94-2.63,1.08-4.1-.77-1.31-2.77-2.01-4.1-1.08-5.82,4.07-11.84,7.87-18.03,11.34-2.96,1.66-5.97,3.25-9.01,4.77-1.51.76-3.02,1.57-4.59,2.22-.15.06-.39.05-.47.18.25-.38,1.03.79,1.1.84.17.12-.05.35,0-.06.02-.36.02-.41,0-.14.04-.21.09-.42.16-.63.25-.88.92-2.16,1.52-3.34.71-1.41,1.48-2.82,2.41-4.11.75-1.04,1.65-2.07,2.69-2.83.94-.69,1.64-.98,2.59-1.24.79-.21.82-.23,1.5-.26.27-.01.55,0,.82,0,.11,0,.79.06.33,0,.31.04.63.12.94.21-.01,0,.93.35.46.14.57.26.98.57,1.19.78,1.68,1.71,1.38,4.8,1.13,7.22-.69,6.7-2.31,13.34-4.6,19.67-2.1,5.82-4.78,11.79-8.58,16.71-3.53,4.57-8.7,8.32-14.67,8.18-1.85-.04-5.16-.47-5.46-2.54-.13-.88.23-2.22.53-3.3.5-1.81,1.06-3.61,1.62-5.41,2.41-7.78,5.11-15.47,8.1-23.04,1.38-3.48,2.68-7.09,4.38-10.43.69-1.36,1.46-2.56,2.56-3.57.78-.71-.14.06.33-.28.1-.07.93-.51.57-.37.04-.02.98-.21.4-.14.37.02.41,0,.13-.04.33.12.4.13.22.01,1.49.63,3.21.45,4.1-1.08.74-1.26.42-3.47-1.08-4.1h0Z"/></svg>