<?xml version="1.0" encoding="UTF-8"?><svg id="Layer_3" xmlns="http://www.w3.org/2000/svg" width="711.97" height="658.36" viewBox="0 0 711.97 658.36"><defs><style>.cls-1{fill:#1b542e;stroke-width:0px;}</style></defs><path class="cls-1" d="m354.24,657.28c-18.61-24.92-24.95-56.15-23.26-86.78,1.79-32.34,11.92-63.33,25.7-92.42,15.12-31.94,33.84-62,49.57-93.63,7.75-15.59,14.77-31.58,20.18-48.15s9.28-33.9,11.53-51.31c4.56-35.34,2.5-71.56-6.22-106.11-1.09-4.31-2.29-8.59-3.58-12.85-.28-.92-1.73-.53-1.45.4,10.47,34.58,14.16,71.08,10.99,107.07-3.21,36.4-13.91,71.07-29.68,103.92-15.29,31.85-34.02,61.9-49.59,93.61-14.12,28.75-25.09,58.99-28.29,91.05-2.96,29.64.94,60.71,16.49,86.59,1.94,3.24,4.06,6.36,6.32,9.38.57.76,1.87.02,1.3-.76h0Z"/><path class="cls-1" d="m332.1,544.54c7.75-22.28,9.85-46.33,6.49-69.65-3.29-22.88-12.03-44.32-25.02-63.39-11.85-17.39-26.2-32.85-39.5-49.1-13.14-16.05-25.59-33.29-32.13-53.2-8.31-25.29-5.06-52.1.98-77.51.76-3.19,1.56-6.36,2.39-9.53.24-.93-1.2-1.33-1.45-.4-6.66,25.47-11.84,52.51-5.91,78.66,4.58,20.19,15.57,38.03,28.07,54.26,12.89,16.72,27.44,32.08,40.1,48.98,6.44,8.6,12.4,17.6,17.22,27.22,5.36,10.69,9.32,22.06,11.87,33.74,5.13,23.44,4.56,48.14-1.95,71.25-.78,2.78-1.66,5.54-2.61,8.27-.32.91,1.13,1.31,1.45.4h0Z"/><path class="cls-1" d="m427.34,335.57c13.16-20.88,29.9-39.18,47.4-56.48,8.43-8.34,16.97-16.61,25.74-24.59,8.32-7.57,17.04-14.81,26.72-20.58,10.66-6.36,22.54-10.72,35.07-10.86.96-.01.97-1.51,0-1.5-22.81.26-42.35,13.83-58.86,28.32-9.02,7.92-17.63,16.32-26.22,24.7-8.96,8.75-17.74,17.69-26.02,27.09-9.17,10.41-17.72,21.4-25.13,33.15-.52.82.78,1.57,1.3.76h0Z"/><path class="cls-1" d="m252.78,334.12c-9.9-8.99-21.13-16.47-33.26-22.1-13.05-6.05-27.03-9.84-41.27-11.72-8.48-1.12-17.04-1.52-25.59-1.24-.96.03-.97,1.53,0,1.5,28.36-.94,57.07,5.71,81.15,20.97,6.35,4.02,12.34,8.6,17.9,13.65.71.65,1.78-.41,1.06-1.06h0Z"/><path class="cls-1" d="m319,420.9c-4.4-4.81-6.4-11.18-8.06-17.35-1.76-6.54-3.02-13.21-3.77-19.94-1.49-13.45-.99-27.13,1.52-40.44,1.39-7.39,3.41-14.65,6.01-21.7.33-.91-1.12-1.3-1.45-.4-9.56,25.96-11.02,54.78-4.11,81.57,1.77,6.86,3.91,13.99,8.79,19.32.65.71,1.71-.35,1.06-1.06h0Z"/><path class="cls-1" d="m373.01,447.7c14.63-17.84,33.29-31.99,53.72-42.58,22.39-11.61,46.8-18.83,71.57-23.24,14.79-2.63,29.73-4.27,44.71-5.33.96-.07.96-1.57,0-1.5-26.66,1.87-53.33,5.62-78.95,13.42-22.78,6.93-44.69,17.14-63.83,31.39-10.45,7.77-20.01,16.71-28.27,26.78-.61.74.45,1.81,1.06,1.06h0Z"/><path class="cls-1" d="m427.66,165.2c-17.61-10.16-34-25.24-41.44-44.57-3.97-10.33-4.77-21.29-2.64-32.13,2.48-12.61,7.77-24.65,12.64-36.48,5.62-13.63,11.64-27.1,18.04-40.39.42-.87-.88-1.63-1.3-.76-5.83,12.1-11.34,24.35-16.52,36.73-2.57,6.14-5.07,12.32-7.48,18.53s-4.56,12.21-6.08,18.54c-2.68,11.12-2.73,22.5.85,33.42,3.18,9.7,8.73,18.48,15.46,26.1,7.88,8.93,17.42,16.36,27.71,22.3.84.48,1.59-.81.76-1.3h0Z"/><path class="cls-1" d="m427.58,165.69c22.11-3.92,39.71-24.75,39.77-47.22.04-13.7-5.68-26.58-12.46-38.2-3.66-6.28-7.68-12.33-11.65-18.42-4.24-6.51-8.48-13.01-12.72-19.52s-9.29-13.35-12.74-20.63c-3.05-6.44-5.04-14.3-.63-20.61.55-.79-.75-1.54-1.3-.76-7.67,10.95,1.63,24.75,7.68,34.03,8.33,12.79,16.78,25.51,24.98,38.38,7.32,11.49,14.41,23.75,16.65,37.38,1.95,11.84-.63,23.69-7.33,33.64-7.06,10.49-18.14,18.25-30.66,20.47-.95.17-.55,1.61.4,1.45h0Z"/><path class="cls-1" d="m564.4,222.5c-.04-21.34,10.59-41.8,26.84-55.37,8.08-6.75,17.63-11.79,27.88-14.32,12.78-3.15,26.13-2.29,39.14-1.45,14.79.95,29.95,2,44.34-2.35.92-.28.53-1.73-.4-1.45-26.53,8.02-54.39-2.31-81.23,3.29-20.86,4.35-38.88,18.9-49.06,37.42-5.75,10.46-9.02,22.26-9,34.22,0,.97,1.5.97,1.5,0h0Z"/><path class="cls-1" d="m562.21,222.89c5.62,10.74,15.31,20.03,27.89,21.11,13.6,1.16,26.29-6.67,36.61-14.64,20.39-15.76,35.99-36.54,53.08-55.6,9.71-10.83,20.02-21.23,31.85-29.75.78-.56.03-1.86-.76-1.3-20.51,14.76-36.2,34.77-52.7,53.63-8.23,9.41-16.74,18.63-26.23,26.8s-21.35,17.11-34.54,19.1c-7.31,1.1-14.59-.46-20.71-4.62-5.69-3.86-10.04-9.44-13.21-15.49-.45-.86-1.74-.1-1.3.76h0Z"/><path class="cls-1" d="m545.04,376.17c9.16-16.67,24.61-29.62,42.5-36.02,9.7-3.47,19.83-4.69,30.1-4.49,11.27.22,22.44,1.84,33.67,2.7,12.22.94,24.69.89,36.44-3,.91-.3.52-1.75-.4-1.45-21.91,7.26-45.1,1.09-67.47.31-10.37-.36-20.7.54-30.6,3.76-8.95,2.91-17.35,7.41-24.77,13.19-8.46,6.59-15.59,14.84-20.76,24.24-.46.85.83,1.6,1.3.76h0Z"/><path class="cls-1" d="m545.31,374.61c3.88,11.5,8.2,23.62,16.77,32.55,4.29,4.47,9.63,7.84,15.59,9.56,6.27,1.81,12.94,1.85,19.32.69,13.82-2.51,25.48-10.65,35.47-20.17,5.18-4.94,9.99-10.25,14.82-15.52,5.21-5.7,10.52-11.32,15.94-16.82,11.02-11.17,22.51-21.89,34.42-32.11,1.49-1.28,2.98-2.55,4.49-3.81.74-.62-.33-1.68-1.06-1.06-11.65,9.8-22.91,20.06-33.75,30.75-5.47,5.4-10.83,10.92-16.08,16.54-4.76,5.1-9.39,10.33-14.23,15.37-9.47,9.85-20.13,19.24-33.33,23.58-12.4,4.08-26.6,3.62-37.09-4.87s-15.59-22.45-19.84-35.07c-.31-.91-1.76-.52-1.45.4h0Z"/><path class="cls-1" d="m314.66,319.43c-5.25-5.69-10.61-11.51-13.87-18.62-3.52-7.67-3.76-16.3-2.48-24.52s3.66-16.21,6.7-23.82,8.06-14.68,13.24-21.42c6.21-8.08,12.42-16.16,18.64-24.24.59-.76-.71-1.51-1.3-.76-5.71,7.42-11.41,14.85-17.12,22.27-5.33,6.93-10.66,13.76-14.12,21.85s-5.8,16.07-7.25,24.36-1.57,16.69,1.36,24.51c3.12,8.33,9.21,15.01,15.15,21.44.66.71,1.71-.35,1.06-1.06h0Z"/><path class="cls-1" d="m313.82,321.14c7.8.49,15.66-1.93,21.97-6.52,6.66-4.83,11.16-11.8,13.08-19.78,2.1-8.72,1.3-17.84-.08-26.6-1.6-10.13-3.73-20.19-5.64-30.26-2.25-11.83-4.5-23.67-6.75-35.5-.18-.95-1.63-.55-1.45.4,3.8,20.01,7.72,39.99,11.4,60.02,3.02,16.4,5.03,35.85-8.62,48.23-6.46,5.86-15.2,9.06-23.92,8.51-.96-.06-.96,1.44,0,1.5h0Z"/><path class="cls-1" d="m245.02,220.23c-11-17.89-19.46-39.13-17.03-60.49,1.19-10.48,5.43-20.06,11.14-28.83,5.63-8.65,12.37-16.51,18.42-24.87,7.41-10.24,13.49-21.36,18.13-33.11.35-.9-1.1-1.29-1.45-.4-4.28,10.84-9.83,21.17-16.52,30.72-6.01,8.56-12.87,16.5-18.72,25.18-5.84,8.64-10.45,18.05-12.1,28.43s-.61,20.93,2.08,31c3.13,11.73,8.41,22.82,14.75,33.13.5.82,1.8.07,1.3-.76h0Z"/><path class="cls-1" d="m152.74,298.11c-6.52-9.62-15.04-17.82-24.96-23.89s-21.65-10.07-33.59-9.3c-20.33,1.31-37.9,13.32-56.4,20.54-10.32,4.03-21.38,6.7-32.48,4.76-.94-.17-1.35,1.28-.4,1.45,19.84,3.47,38.31-6.8,55.69-14.84,8.95-4.14,18.16-8.07,27.94-9.74,5.12-.87,10.38-1.05,15.53-.31,6.3.91,12.37,3.07,18.01,5.97,11.79,6.06,21.93,15.16,29.36,26.13.54.79,1.84.05,1.3-.76h0Z"/><path class="cls-1" d="m154.26,299.15c-6.33,11.34-14.26,21.75-23.57,30.81-8.87,8.64-19.63,17.29-32.39,18.6-11.78,1.21-22.65-4.18-31.92-10.95-10.02-7.32-18.72-16.28-28.28-24.16-11.45-9.44-23.72-17.91-36.97-24.64-.86-.44-1.62.86-.76,1.3,12.33,6.26,23.83,14.03,34.58,22.71,9.83,7.93,18.71,16.99,28.74,24.66,9.18,7.02,19.97,13.03,31.86,12.76,12.61-.28,23.52-7.63,32.57-15.81,10.96-9.9,20.23-21.62,27.43-34.52.47-.84-.82-1.6-1.3-.76h0Z"/><path class="cls-1" d="m245.46,220.62c10.54-.21,21.14-3.47,29.6-9.85s13.98-15.52,16.53-25.72c5.84-23.37-3.25-46.41-11.56-67.93-2.48-6.41-5.13-12.86-6.82-19.54-1.59-6.32-2.16-13.23,1-19.17.45-.85-.84-1.61-1.3-.76-5.49,10.29-.89,22.41,2.84,32.47,4.31,11.62,9.24,23.04,12.56,35.01,5.62,20.28,6.1,45.32-10.18,61.05-8.67,8.38-20.73,12.69-32.68,12.93-.96.02-.97,1.52,0,1.5h0Z"/><path class="cls-1" d="m429.08,166.83c-7.51-19.25-12.96-39.29-16.25-59.69s-4.42-41.16-3.38-61.8c.59-11.69,1.9-23.34,3.9-34.88.16-.94-1.28-1.35-1.45-.4-3.56,20.5-4.93,41.36-4.09,62.15s3.86,41.33,9,61.41c2.92,11.41,6.54,22.63,10.82,33.6.35.89,1.8.5,1.45-.4h0Z"/><path class="cls-1" d="m419.37,140.88c-10.86-10.47-21.91-21.16-29.72-34.2-2.24-3.74-4.18-7.66-5.73-11.74-.34-.89-1.79-.51-1.45.4,5.52,14.47,15.62,26.44,26.39,37.33,3.1,3.14,6.27,6.21,9.45,9.27.7.67,1.76-.39,1.06-1.06h0Z"/><path class="cls-1" d="m413.27,111.44c-10.95-12.2-23.07-26.09-23.81-43.33-.04-.96-1.54-.97-1.5,0,.58,13.6,8.16,25.34,16.57,35.55,2.48,3.01,5.07,5.94,7.68,8.84.65.72,1.7-.34,1.06-1.06h0Z"/><path class="cls-1" d="m410.57,74.79c-6.48-7.8-11.06-17.03-13.39-26.9-.22-.94-1.67-.54-1.45.4,2.4,10.12,7.14,19.56,13.78,27.56.62.74,1.67-.32,1.06-1.06h0Z"/><path class="cls-1" d="m410.36,73.99c10.93-8.69,17.47-22.35,17.44-36.3,0-.97-1.5-.97-1.5,0,.03,13.6-6.37,26.79-17,35.24-.76.6.31,1.66,1.06,1.06h0Z"/><path class="cls-1" d="m414.86,112.8c12.8-8.46,22.07-21.87,25.68-36.76,1.03-4.26,1.59-8.63,1.66-13.01.02-.97-1.48-.97-1.5,0-.25,14.96-6.46,29.57-16.82,40.34-2.95,3.07-6.23,5.8-9.78,8.14-.8.53-.05,1.83.76,1.3h0Z"/><path class="cls-1" d="m419.43,140.47c16.09-10.07,28.19-26.15,33.4-44.41,1.56-5.46,2.96-11.57.96-17.09-.33-.9-1.78-.51-1.45.4,1.82,5,.65,10.4-.7,15.37-1.19,4.4-2.79,8.69-4.76,12.79-3.96,8.22-9.37,15.73-15.93,22.06-3.75,3.62-7.86,6.82-12.27,9.59-.82.51-.06,1.81.76,1.3h0Z"/><path class="cls-1" d="m313.5,319.32c-2.04-7.25-2.87-14.79-2.4-22.31s2.28-14.56,4.28-21.65c4.17-14.83,8.46-29.63,12.69-44.44,2.42-8.47,4.84-16.94,7.26-25.41.27-.93-1.18-1.33-1.45-.4-4.34,15.18-8.68,30.37-13.01,45.55-2.14,7.49-4.29,14.98-6.42,22.47s-4.03,14.5-4.7,21.99c-.75,8.26.07,16.62,2.31,24.6.26.93,1.71.53,1.45-.4h0Z"/><path class="cls-1" d="m310.31,299.37c-7.35-6.6-11.56-16.22-11.41-26.09.01-.97-1.49-.97-1.5,0-.16,10.25,4.22,20.3,11.85,27.15.72.64,1.78-.41,1.06-1.06h0Z"/><path class="cls-1" d="m315.04,279.53c-9.08-8.17-9.68-21.52-9.94-32.89-.02-.96-1.52-.97-1.5,0,.27,11.77,1,25.5,10.38,33.95.72.64,1.78-.41,1.06-1.06h0Z"/><path class="cls-1" d="m318.09,258.52c-3.82-7.82-4.02-17.04-.65-25.05.37-.89-1.08-1.28-1.45-.4-3.52,8.39-3.18,18.05.81,26.21.42.87,1.72.11,1.3-.76h0Z"/><path class="cls-1" d="m320.89,259.5c9.54-5.75,17.23-14.32,21.89-24.44.4-.87-.89-1.63-1.3-.76-4.56,9.9-12.02,18.27-21.35,23.9-.83.5-.07,1.8.76,1.3h0Z"/><path class="cls-1" d="m313.48,277.79c11.95-4.44,23.1-10.78,33.04-18.75.75-.6-.31-1.66-1.06-1.06-9.73,7.81-20.69,14.02-32.38,18.37-.9.33-.51,1.78.4,1.45h0Z"/><path class="cls-1" d="m309.91,297.45c14.44-.16,28.7-4.45,40.81-12.32.81-.52.06-1.82-.76-1.3-11.9,7.73-25.86,11.96-40.06,12.11-.96.01-.97,1.51,0,1.5h0Z"/><path class="cls-1" d="m245.5,218.39c-.01-17.53,1.53-35.05,4.63-52.31s7.69-34.05,13.75-50.4c3.35-9.02,7.57-17.92,8.34-27.64.08-.96-1.42-.96-1.5,0-.7,8.78-4.37,16.91-7.46,25.04-3.08,8.11-5.81,16.36-8.16,24.72-4.7,16.7-7.93,33.81-9.65,51.07-.98,9.81-1.45,19.66-1.45,29.51,0,.97,1.5.97,1.5,0h0Z"/><path class="cls-1" d="m245.43,197.81c-8.79-11.51-11.89-25.98-13.53-40.08-.47-4.01-.82-8.04-1.16-12.06-.08-.95-1.58-.96-1.5,0,1.22,14.34,2.57,29.14,8.62,42.39,1.7,3.72,3.79,7.25,6.27,10.51.58.76,1.88.01,1.3-.76h0Z"/><path class="cls-1" d="m250,165.8c-10.37-9.63-14.36-25.17-9.93-38.6.3-.92-1.14-1.31-1.45-.4-4.6,13.91-.43,30.09,10.31,40.06.71.66,1.77-.4,1.06-1.06h0Z"/><path class="cls-1" d="m254.3,138.13c-3.6-8.47-3.28-18.36.83-26.59.43-.86-.86-1.62-1.3-.76-4.37,8.76-4.66,19.1-.83,28.11.38.89,1.67.12,1.3-.76h0Z"/><path class="cls-1" d="m255.42,137.45c9.51-3.74,18.05-9.64,24.86-17.27.64-.72-.42-1.78-1.06-1.06-6.63,7.42-14.93,13.24-24.2,16.89-.89.35-.5,1.8.4,1.45h0Z"/><path class="cls-1" d="m250.34,164.74c12.55-5.74,28.18-8.35,36.56-20.43.55-.79-.75-1.55-1.3-.76-8.16,11.75-23.81,14.3-36.02,19.89-.88.4-.12,1.69.76,1.3h0Z"/><path class="cls-1" d="m245.57,198.95c13.92-1.05,27.32-6.53,38.05-15.44,3.08-2.56,5.92-5.4,8.48-8.47.61-.74-.44-1.8-1.06-1.06-8.72,10.46-20.68,18.04-33.85,21.52-3.81,1.01-7.7,1.66-11.62,1.96-.96.07-.96,1.57,0,1.5h0Z"/><path class="cls-1" d="m152.62,301.58c-5.42-5.86-13.31-8.27-20.97-9.52-9.57-1.56-19.38-2.08-29.07-1.9s-19.56,1.33-29.26,2.96c-9.49,1.59-18.96,3.48-28.56,4.3-10.53.9-21.2.39-31.17-3.36-.9-.34-1.3,1.11-.4,1.45,17.52,6.6,36.49,3.24,54.36.12,9.67-1.68,19.33-3.23,29.14-3.75,9.95-.52,19.94-.2,29.83.98,8.91,1.06,18.65,2.9,25.02,9.79.66.71,1.72-.35,1.06-1.06h0Z"/><path class="cls-1" d="m128.73,292.99c-6.89-11.13-15.42-23.99-29.25-26.6-.94-.18-1.35,1.27-.4,1.45,13.44,2.54,21.66,15.11,28.35,25.91.51.82,1.81.07,1.3-.76h0Z"/><path class="cls-1" d="m94.18,293.31c-5.9-11.39-17.65-19.21-30.41-20.35-.96-.09-.96,1.41,0,1.5,12.24,1.1,23.47,8.71,29.11,19.61.44.86,1.74.1,1.3-.76h0Z"/><path class="cls-1" d="m65.09,293.99c-6.13-6.79-14.81-10.95-23.93-11.52-.96-.06-.96,1.44,0,1.5,8.74.55,17.02,4.59,22.87,11.08.65.72,1.71-.35,1.06-1.06h0Z"/><path class="cls-1" d="m63.02,295.23c-7.12,8.61-16.99,14.65-27.91,17.05-.94.21-.54,1.65.4,1.45,11.14-2.45,21.3-8.64,28.57-17.43.61-.74-.44-1.81-1.06-1.06h0Z"/><path class="cls-1" d="m91.36,291.05c-8.18,11.83-17.15,23.95-29.54,31.68-3.48,2.17-7.2,3.93-11.11,5.18-.92.29-.52,1.74.4,1.45,14.23-4.57,25.01-15.44,33.92-27.02,2.64-3.44,5.16-6.97,7.62-10.53.55-.8-.75-1.55-1.3-.76h0Z"/><path class="cls-1" d="m125.57,293.26c-5.95,8.25-11.81,16.56-17.9,24.71-2.97,3.98-6.04,7.89-9.32,11.61-3.05,3.45-6.26,6.87-9.97,9.62-4.01,2.98-8.65,5.15-13.74,5-.97-.03-.96,1.47,0,1.5,9.14.28,16.56-6.21,22.43-12.48,7-7.48,12.95-15.85,18.94-24.15,3.62-5.02,7.24-10.03,10.86-15.05.57-.78-.73-1.53-1.3-.76h0Z"/><path class="cls-1" d="m564.89,221.52c14.22-13.61,29.91-25.65,46.73-35.88,16.81-10.23,34.71-18.66,53.32-25.06,10.39-3.58,20.99-6.52,31.73-8.81.94-.2.54-1.65-.4-1.45-19.31,4.12-38.14,10.36-56.11,18.53-18.04,8.2-35.19,18.34-51.06,30.2-8.85,6.62-17.29,13.77-25.27,21.41-.7.67.36,1.73,1.06,1.06h0Z"/><path class="cls-1" d="m581.37,204.37c1.84-16.6,8.99-32.46,20.18-44.85.65-.71-.41-1.78-1.06-1.06-11.48,12.71-18.73,28.89-20.62,45.91-.11.96,1.39.95,1.5,0h0Z"/><path class="cls-1" d="m610.37,186.93c1.95-13.49,8.85-25.97,19.26-34.78.74-.62-.33-1.68-1.06-1.06-10.57,8.95-17.66,21.73-19.64,35.44-.14.94,1.31,1.35,1.45.4h0Z"/><path class="cls-1" d="m636.91,172.89c5.5-9.68,13.52-17.76,23.16-23.33.84-.48.08-1.78-.76-1.3-9.85,5.7-18.07,13.98-23.69,23.87-.48.84.82,1.6,1.3.76h0Z"/><path class="cls-1" d="m580.11,206.28c5.84,12.92,17.99,22.58,31.72,25.9,3.87.93,7.85,1.35,11.82,1.23.96-.03.97-1.53,0-1.5-13.75.43-27.26-5.97-36.06-16.49-2.51-3-4.58-6.34-6.19-9.9-.4-.88-1.69-.12-1.3.76h0Z"/><path class="cls-1" d="m608.94,186.47c4.73,6.74,10.46,13.49,18.83,15.48,9.22,2.19,18.65-1.06,27.95,0,.96.11.95-1.39,0-1.5-8.89-1.02-17.88,2-26.7.24s-14.09-8.28-18.78-14.97c-.55-.78-1.85-.04-1.3.76h0Z"/><path class="cls-1" d="m636.14,171.36c1.44,6.24,7.61,9.66,13.53,10.52,3.72.54,7.48.35,11.21.22,4.21-.15,8.42-.31,12.63-.46.96-.03.97-1.54,0-1.5-3.8.14-7.6.28-11.39.41-3.48.13-6.98.35-10.45.06-5.91-.49-12.62-3.28-14.09-9.65-.22-.94-1.66-.54-1.45.4h0Z"/><path class="cls-1" d="m544.02,378.04c8.68-5.17,18.86-6.45,28.74-7.38,9.88-.93,19.73-1.96,29.54-3.54,19.82-3.19,39.43-8.2,57.96-16.02,10.3-4.35,20.22-9.57,29.55-15.75.8-.53.05-1.83-.76-1.3-16.78,11.11-35.44,19.05-54.77,24.54-19.47,5.53-39.48,8.55-59.6,10.39-10.77.98-21.93,2.11-31.41,7.76-.83.49-.08,1.79.76,1.3h0Z"/><path class="cls-1" d="m563.44,372.08c10.96,12.34,12.96,31.34,28.06,40.21,3.6,2.12,7.69,3.26,11.88,2.95.96-.07.96-1.57,0-1.5-7.83.57-14.56-4.19-19.37-9.96-5.24-6.28-8.18-14.04-11.89-21.23-2.12-4.11-4.53-8.06-7.61-11.53-.64-.72-1.7.34-1.06,1.06h0Z"/><path class="cls-1" d="m592.65,367.16c5.53,7.92,11.34,15.64,17.44,23.14,2.98,3.66,5.91,7.57,9.26,10.9,2.22,2.21,5.77,4.43,8.64,2.07.75-.61-.32-1.67-1.06-1.06-3.18,2.61-7.37-2.97-9.12-5-2.77-3.22-5.48-6.49-8.14-9.8-5.48-6.82-10.72-13.83-15.72-21-.55-.79-1.85-.04-1.3.76h0Z"/><path class="cls-1" d="m627.71,364.6c3.97,8.85,14.25,14,23.72,12.05.94-.19.54-1.64-.4-1.45-8.85,1.83-18.34-3.14-22.02-11.36-.39-.88-1.69-.12-1.3.76h0Z"/><path class="cls-1" d="m563.9,370.68c4.3-6.47,8.61-12.93,12.91-19.4,1.92-2.89,3.74-5.9,5.89-8.63,1.92-2.44,4.24-4.59,7.37-5.23.95-.19.55-1.64-.4-1.45-6.48,1.33-9.99,8.3-13.33,13.32-4.58,6.88-9.16,13.76-13.73,20.64-.54.81.76,1.56,1.3.76h0Z"/><path class="cls-1" d="m594.43,366.21c5.72-13.4,16.46-24.32,29.76-30.26.88-.39.12-1.69-.76-1.3-13.5,6.03-24.49,17.21-30.29,30.8-.38.88.92,1.64,1.3.76h0Z"/><path class="cls-1" d="m626.85,360.47c3.62-9.43,10.97-17.19,20.13-21.42.88-.4.11-1.7-.76-1.3-9.53,4.4-17.06,12.53-20.82,22.31-.35.9,1.1,1.29,1.45.4h0Z"/><path class="cls-1" d="m439.68,221.89c4.54-9.98,14.25-17.28,25.15-18.68.94-.12.96-1.62,0-1.5-11.41,1.47-21.67,8.92-26.45,19.43-.4.87.9,1.64,1.3.76h0Z"/><path class="cls-1" d="m466.03,202.45c3.85-7.78,8.09-16.16,16.05-20.46,4.13-2.23,8.63-2.63,13.21-1.86s8.74,2.25,13.23,2.83,9.1.28,12.92-2.26c.8-.53.05-1.83-.76-1.3-8,5.33-17.9.19-26.34-.92-4.33-.57-8.56-.04-12.48,1.94-3.69,1.86-6.81,4.73-9.33,7.97-3.18,4.07-5.5,8.7-7.78,13.31-.43.86.87,1.62,1.3.76h0Z"/><path class="cls-1" d="m463.19,203.73c2.46,4.07,5.21,8.37,9.82,10.22s9.96.63,14.45-1.34c4.79-2.1,9.27-5.09,13.5-8.14s7.88-6.12,11.25-9.78c3.74-4.06,6.83-8.64,8.97-13.74.37-.89-1.08-1.28-1.45-.4-3.65,8.7-10.33,15.69-17.76,21.32-3.69,2.79-7.58,5.4-11.63,7.63-4.29,2.37-9.43,4.59-14.45,3.72-5.58-.97-8.7-5.76-11.42-10.25-.5-.82-1.8-.07-1.3.76h0Z"/><path class="cls-1" d="m465.68,203.59c5.84-5.04,13.51-6.92,20.9-8.38s14.16-2.51,20.67-5.65c3.53-1.71,6.74-4.05,9.22-7.11.6-.74-.45-1.81-1.06-1.06-9.62,11.91-26.95,10.51-40.16,15.18-3.87,1.37-7.5,3.27-10.62,5.96-.73.63.33,1.69,1.06,1.06h0Z"/><path class="cls-1" d="m476.31,195.63c1.97,6.69,5.73,12.77,10.85,17.51.71.65,1.77-.4,1.06-1.06-4.94-4.57-8.56-10.39-10.46-16.84-.27-.92-1.72-.53-1.45.4h0Z"/><path class="cls-1" d="m490.74,193.98c1.42,4.28,4.86,7.71,9.15,9.11.92.3,1.31-1.15.4-1.45-3.77-1.23-6.85-4.3-8.1-8.07-.3-.91-1.75-.52-1.45.4h0Z"/><path class="cls-1" d="m476.92,196.59c2.78-6.17,6.54-11.84,11.14-16.8.66-.71-.4-1.77-1.06-1.06-4.69,5.05-8.54,10.83-11.37,17.11-.39.87.9,1.64,1.3.76h0Z"/><path class="cls-1" d="m493.44,193.75c1.51-4.92,4.71-9.26,8.98-12.14.8-.54.05-1.84-.76-1.3-4.6,3.11-8.04,7.73-9.67,13.04-.28.92,1.16,1.32,1.45.4h0Z"/><path class="cls-1" d="m438.18,222.46c-4.84-5.73-9.79-11.58-16.15-15.69-5.96-3.85-13.19-6-20.25-4.53-.94.2-.54,1.64.4,1.45,14.92-3.11,26.35,9.65,34.94,19.83.62.74,1.68-.33,1.06-1.06h0Z"/><path class="cls-1" d="m401.51,201.28c-5.93-5.27-14.36-7.13-21.94-4.7-7.07,2.26-12.71,7.31-18.96,11.1-3.61,2.19-7.5,3.97-11.75,4.32-.96.08-.96,1.58,0,1.5,14.67-1.2,23.68-17.42,38.88-16.46,4.68.3,9.21,2.18,12.71,5.3.72.64,1.78-.42,1.06-1.06h0Z"/><path class="cls-1" d="m403.01,203.22c-2.64,2.87-5.42,5.6-8.36,8.16s-5.94,5.37-9.39,7.04c-3.66,1.78-8.36.81-12.19.16-4.02-.69-7.93-1.78-11.79-3.07-4.17-1.39-8.42-2.76-12.87-2.5-.96.06-.97,1.56,0,1.5,4.25-.25,8.28,1.05,12.26,2.37,4.02,1.34,8.06,2.48,12.25,3.18,3.74.63,8.06,1.46,11.75.22,3.49-1.18,6.56-4.06,9.35-6.38,3.57-2.98,6.93-6.2,10.07-9.62.65-.71-.41-1.77-1.06-1.06h0Z"/><path class="cls-1" d="m401.83,203.13c-8,3.01-16.78,1.85-25.01,3.8s-15.79,5.95-24.27,5.95c-.97,0-.97,1.5,0,1.5,8.49,0,16.16-3.91,24.25-5.9s17.29-.84,25.44-3.9c.9-.34.51-1.79-.4-1.45h0Z"/><path class="cls-1" d="m391.96,205.82c-2.26-5.38-7.3-9.21-13.09-9.94-.96-.12-.95,1.38,0,1.5,5.05.64,9.67,4.15,11.64,8.84.16.38.49.64.92.52.35-.09.68-.55.52-.92h0Z"/><path class="cls-1" d="m378.97,205.78c-4.53-2.04-9.77-2.18-14.37-.25-.88.37-.49,1.82.4,1.45,4.2-1.77,9.04-1.79,13.21.09.87.39,1.64-.9.76-1.3h0Z"/><path class="cls-1" d="m376.99,207.43c-3.77,3.57-7.54,7.14-11.32,10.71-.7.66.36,1.72,1.06,1.06,3.77-3.57,7.54-7.14,11.32-10.71.7-.66-.36-1.72-1.06-1.06h0Z"/><path class="cls-1" d="m390.13,205.5c-5.49,5.22-10.98,10.44-16.47,15.66-.7.67.36,1.73,1.06,1.06,5.49-5.22,10.98-10.44,16.47-15.66.7-.67-.36-1.73-1.06-1.06h0Z"/><path class="cls-1" d="m236.13,265.12c-3-6.02-5.25-12.58-9.65-17.78-3.82-4.52-9.53-7.99-15.63-7.29-.95.11-.96,1.61,0,1.5,6.04-.7,11.52,2.93,15.11,7.52,3.92,5.02,6.05,11.16,8.87,16.81.43.86,1.72.11,1.3-.76h0Z"/><path class="cls-1" d="m210.65,239.77c-3.57,1.8-6.36,4.66-9.35,7.25-3.2,2.78-7.18,5.46-11.63,4.92-4.09-.5-7.47-3.36-10.44-5.99s-5.87-5.21-9.18-7.33c-3.55-2.27-7.51-3.83-11.76-3.83-.97,0-.97,1.5,0,1.5,8.54,0,14.91,6.48,20.95,11.65,2.92,2.5,6.22,4.93,10.13,5.46s7.76-1.26,10.89-3.61c3.78-2.85,6.87-6.58,11.15-8.73.86-.43.1-1.73-.76-1.3h0Z"/><path class="cls-1" d="m210.23,240.06c-5.27-5.71-8.48-14.04-15.78-17.61-4.26-2.08-9.05-1.85-13.55-.74-4.96,1.22-9.77,3.27-14.47,5.27-5.61,2.38-11.1,5.05-16.46,7.96-.85.46-.09,1.76.76,1.3,8.9-4.84,18.28-9.3,27.96-12.34,4.56-1.43,9.66-2.37,14.25-.49,3.6,1.48,6.29,4.44,8.57,7.5,2.55,3.41,4.77,7.07,7.67,10.21.66.71,1.72-.35,1.06-1.06h0Z"/><path class="cls-1" d="m152.9,234.45c9.23-2.59,18.88-1.76,28.16.07,4.57.9,9.1,2,13.61,3.15,4.25,1.08,8.47,2.35,12.11,4.87.8.55,1.55-.75.76-1.3-3.74-2.59-8.11-3.92-12.47-5.03-4.66-1.18-9.35-2.33-14.08-3.24-9.41-1.81-19.16-2.59-28.5.02-.93.26-.53,1.71.4,1.45h0Z"/><path class="cls-1" d="m172.14,224.08c3.11,3.59,5.85,7.47,8.2,11.6.48.84,1.77.08,1.3-.76-2.41-4.23-5.24-8.22-8.43-11.9-.63-.73-1.69.33-1.06,1.06h0Z"/><path class="cls-1" d="m185.24,221.69c4.2,4.07,6.94,9.55,7.6,15.38.11.95,1.61.96,1.5,0-.7-6.23-3.53-12.07-8.04-16.44-.69-.67-1.76.39-1.06,1.06h0Z"/><path class="cls-1" d="m178.83,234.23c-1.6,2.46-4.45,3.98-7.39,3.98-.97,0-.97,1.5,0,1.5,3.47,0,6.79-1.82,8.68-4.73.53-.81-.77-1.56-1.3-.76h0Z"/><path class="cls-1" d="m193.35,237.76l-7.82,5.91c-1.18.89-2.33,1.87-3.59,2.64-.95.58-2.44,1.35-3.47.52-.74-.6-1.81.45-1.06,1.06,2.56,2.06,5.56-.42,7.63-1.99,3.02-2.28,6.04-4.57,9.06-6.85.76-.58.01-1.88-.76-1.3h0Z"/><path class="cls-1" d="m307.52,353.92c5.82-6.04,13.83-9.69,22.21-10.06.96-.04.97-1.54,0-1.5-8.77.39-17.18,4.17-23.27,10.5-.67.7.39,1.76,1.06,1.06h0Z"/><path class="cls-1" d="m329.99,343.18c4.64-5.56,10.02-11.18,17.2-13.2,7.54-2.12,15.41-.04,22.89,1.28,4.26.75,8.56,1.32,12.89,1,.96-.07.96-1.57,0-1.5-8.08.6-15.89-1.93-23.83-2.86-3.83-.45-7.75-.5-11.53.42-3.58.86-6.85,2.62-9.75,4.85-3.36,2.58-6.23,5.71-8.93,8.95-.61.74.44,1.8,1.06,1.06h0Z"/><path class="cls-1" d="m328.38,344.76c3.09,2.83,4.58,6.86,7.16,10.09,1.2,1.51,2.67,2.79,4.48,3.5,2.42.95,5.08.63,7.57.15,10.04-1.91,18.94-7.47,26.42-14.26,4.34-3.94,8.25-8.33,11.88-12.92.59-.75-.46-1.82-1.06-1.06-6.11,7.72-13.06,15-21.45,20.25-4.08,2.55-8.47,4.59-13.12,5.84-2.47.66-5.19,1.34-7.76,1.06-2.13-.23-3.9-1.36-5.3-2.93-2.97-3.32-4.41-7.74-7.75-10.79-.71-.65-1.77.41-1.06,1.06h0Z"/><path class="cls-1" d="m330.17,344.17c17.07-4.72,37.71,1.37,52.3-11.05.74-.63-.33-1.68-1.06-1.06-6.49,5.52-15.17,7.3-23.45,7.93-9.42.72-19,.19-28.2,2.74-.93.26-.53,1.7.4,1.45h0Z"/><path class="cls-1" d="m338.91,342.03c1.93,3.48,3.92,7.08,6.93,9.77,2.74,2.45,6.35,4.13,10.1,3.74.95-.1.96-1.6,0-1.5-7.86.81-12.47-6.88-15.73-12.77-.47-.84-1.76-.09-1.3.76h0Z"/><path class="cls-1" d="m353.52,342.43c1.71,2.69,3.7,5.21,5.95,7.48,1.83,1.84,4.8,3.71,7.29,1.85.77-.57.02-1.87-.76-1.3-2.21,1.64-4.61-.7-6.07-2.23-1.92-2.02-3.62-4.21-5.12-6.56-.52-.81-1.82-.06-1.3.76h0Z"/><path class="cls-1" d="m340.73,342.32c.33-5.49,3.58-10.6,8.37-13.27.84-.47.09-1.77-.76-1.3-5.27,2.94-8.75,8.55-9.11,14.57-.06.96,1.44.96,1.5,0h0Z"/><path class="cls-1" d="m353.5,341.63c2.24-5.03,5.81-9.4,10.35-12.53.79-.54.04-1.85-.76-1.3-4.74,3.27-8.54,7.8-10.89,13.07-.39.87.9,1.64,1.3.76h0Z"/><path class="cls-1" d="m306.89,353.28c-3.2-6.53-8.29-12.04-14.53-15.79-.83-.5-1.58.8-.76,1.3,6.03,3.62,10.89,8.94,13.99,15.25.43.87,1.72.11,1.3-.76h0Z"/><path class="cls-1" d="m290.6,337.76c-2.58,3.02-6.94,3.85-10.72,4.13-4.09.3-7.79-.72-10.68-3.7-5.25-5.39-6.34-13.4-11.2-19.09-.63-.74-1.68.33-1.06,1.06,5.31,6.21,6.16,15.4,12.86,20.57,3.31,2.55,7.39,3.02,11.45,2.53,3.77-.46,7.84-1.42,10.42-4.43.62-.73-.43-1.8-1.06-1.06h0Z"/><path class="cls-1" d="m292.31,337.65c-2.02-5.89-4.3-12.31-9.23-16.43-2.69-2.25-5.94-3.45-9.34-4.15-3.97-.82-8.09-1.31-12.15-1.32-3.75-.01-8.46,1.06-11.62-1.54-.74-.61-1.81.45-1.06,1.06,2.43,2,5.48,2.2,8.5,2.1,3.89-.13,7.68-.1,11.54.42s7.77,1.13,11.11,3.11c2.76,1.64,4.84,4.14,6.44,6.88,1.88,3.22,3.14,6.75,4.34,10.26.31.91,1.76.52,1.45-.4h0Z"/><path class="cls-1" d="m291.7,338.04c-11.23-8.35-23.23-15.63-35.82-21.74-.86-.42-1.63.87-.76,1.3,12.59,6.11,24.59,13.39,35.82,21.74.78.58,1.52-.73.76-1.3h0Z"/><path class="cls-1" d="m285.73,334.63c-6.43,3.05-14.15,2.85-20.42-.5-.85-.45-1.61.84-.76,1.3,6.78,3.62,15,3.8,21.94.5.87-.41.11-1.71-.76-1.3h0Z"/><path class="cls-1" d="m273.65,326.15c-2.9,2.42-6.87,3.5-10.6,2.88-.94-.16-1.35,1.29-.4,1.45,4.3.71,8.71-.48,12.06-3.27.74-.62-.32-1.67-1.06-1.06h0Z"/><path class="cls-1" d="m274.5,326.33c-.39-3.04-1.02-6.04-1.92-8.97-.28-.92-1.73-.53-1.45.4.86,2.8,1.5,5.67,1.87,8.57.05.4.31.75.75.75.37,0,.8-.35.75-.75h0Z"/><path class="cls-1" d="m285.31,332.51c-2.39-4.36-4.77-8.72-7.16-13.07-.46-.85-1.76-.09-1.3.76,2.39,4.36,4.77,8.72,7.16,13.07.46.85,1.76.09,1.3-.76h0Z"/><path class="cls-1" d="m419.24,410.9c3.25-1.24,6.77.08,9.9,1.12s6.43,2.38,9.51,3.88c6.03,2.94,11.68,6.65,16.78,11.01.73.62,1.8-.43,1.06-1.06-5.42-4.63-11.41-8.56-17.85-11.62-3.15-1.49-6.4-2.79-9.71-3.86s-6.77-2.18-10.09-.92c-.89.34-.51,1.79.4,1.45h0Z"/><path class="cls-1" d="m456.5,427.05c-2.83.88-4.69,3.39-5.31,6.22-.73,3.36.39,6.69,2.06,9.59,1.87,3.24,4.26,6.69,7.3,8.92s6.87,3.49,10.13,5.53c3.65,2.29,6.85,5.24,8.97,9.02.47.84,1.77.09,1.3-.76-3.26-5.84-8.81-9.51-14.69-12.33-1.58-.76-3.16-1.52-4.6-2.52-1.7-1.18-3.04-2.76-4.26-4.41-2.12-2.85-4.32-5.96-4.85-9.55-.48-3.28.97-7.21,4.36-8.27.92-.29.53-1.73-.4-1.45h0Z"/><path class="cls-1" d="m456.78,426.07c7.88-2.13,17.26-1.4,23.41,4.48s7.63,15.7,6.4,24.07c-.82,5.59-2.58,10.99-4.33,16.35l1.25-.33c-.47-.46-.94-.92-1.4-1.37-.69-.68-1.75.38-1.06,1.06.47.46.94.92,1.4,1.37.42.41,1.08.2,1.25-.33,3.13-9.58,6.33-19.75,4.02-29.88-.95-4.18-2.85-8.2-5.81-11.33s-6.79-5.09-10.9-6.02c-4.82-1.09-9.88-.81-14.63.48-.93.25-.54,1.7.4,1.45h0Z"/><path class="cls-1" d="m454.6,427.59c12.42,12.36,25.71,25.84,28.69,43.88.16.95,1.6.55,1.45-.4-3.02-18.28-16.48-32.01-29.08-44.54-.69-.68-1.75.38-1.06,1.06h0Z"/><path class="cls-1" d="m461.21,433.78c-2.17,1.96-2.62,4.94-2.47,7.73.19,3.58,1,7.16,1.58,10.69.15.95,1.6.55,1.45-.4-.52-3.24-1.23-6.5-1.49-9.78-.2-2.55-.03-5.36,1.99-7.18.72-.65-.35-1.71-1.06-1.06h0Z"/><path class="cls-1" d="m473.11,457.1c-1.16-.5-.74-2.22-.45-3.15.61-2.02,1.29-4.02,1.94-6.03.3-.92-1.15-1.32-1.45-.4-.38,1.18-.76,2.35-1.13,3.53-.33,1.03-.73,2.06-.96,3.12-.32,1.47-.33,3.53,1.3,4.23.38.16.8.11,1.03-.27.19-.31.1-.87-.27-1.03h0Z"/><path class="cls-1" d="m463.09,434.43c4.11-4.81,10.7-7.21,16.93-6.06.94.17,1.35-1.27.4-1.45-6.75-1.25-13.92,1.22-18.39,6.44-.62.73.43,1.8,1.06,1.06h0Z"/><path class="cls-1" d="m474.02,448.5c3.98-2.19,8.77-2.47,13-.82.9.35,1.29-1.1.4-1.45-4.58-1.79-9.85-1.4-14.15.97-.85.47-.09,1.76.76,1.3h0Z"/><path class="cls-1" d="m480.09,275.61c1.8-1.74,4.15-2.57,6.53-3.17,2.54-.64,5.14-1.03,7.76-1.15,5.17-.24,10.32.54,15.21,2.24.91.32,1.31-1.13.4-1.45-5.28-1.85-10.92-2.63-16.5-2.24-4.85.33-10.82,1.17-14.46,4.71-.69.67.37,1.73,1.06,1.06h0Z"/><path class="cls-1" d="m512.22,273.58c2.77-2.52,5.72-5.19,9.47-6.06,4.23-.98,8.69.62,12.47,2.43,7.07,3.38,13.01,8.6,18.84,13.74.72.64,1.79-.42,1.06-1.06-6.34-5.59-12.85-11.3-20.7-14.68-3.88-1.67-8.25-2.9-12.46-1.78-3.83,1.02-6.88,3.75-9.74,6.35-.72.65.35,1.71,1.06,1.06h0Z"/><path class="cls-1" d="m509.42,272.76c-2.58,2.96-2.35,7-1.03,10.47s3.18,7.78,6.29,10.12c3.27,2.45,7.61,2.5,11.43,1.62,4.63-1.07,9.12-3.02,13.58-4.62,5.46-1.96,10.92-3.91,16.37-5.87.9-.32.51-1.77-.4-1.45-8.32,2.98-16.64,5.98-24.97,8.95-3.67,1.31-7.64,2.63-11.57,1.75s-6.03-4.01-7.74-7.48c-1.83-3.7-4.1-8.77-.91-12.43.63-.72-.42-1.79-1.06-1.06h0Z"/><path class="cls-1" d="m510.42,274.91c7.03.25,14.13.51,21.01,2.1,6.92,1.6,13.06,4.91,19.18,8.4.84.48,1.6-.82.76-1.3-6.23-3.55-12.5-6.92-19.54-8.55s-14.24-1.89-21.41-2.15c-.97-.03-.96,1.47,0,1.5h0Z"/><path class="cls-1" d="m516.24,275.55c-.51,4.43.22,8.91,2.02,12.98.88,2.01,2.04,3.88,3.43,5.57.46.57,1.26,1.3,1.98.61.52-.5.33-1.48-.42-1.62-.94-.17-1.35,1.27-.4,1.45l.13.02-.52-.52.1-.34.53-.22c-.08,0-.62-.81-.68-.88-.25-.32-.48-.65-.71-.98-.46-.67-.88-1.36-1.26-2.07-.77-1.41-1.38-2.9-1.84-4.44-.93-3.1-1.21-6.34-.84-9.56.11-.96-1.39-.95-1.5,0h0Z"/><path class="cls-1" d="m528.73,276.22c-.76,5.81.59,11.79,3.74,16.74.52.81,1.82.06,1.3-.76-3.02-4.75-4.26-10.4-3.53-15.98.12-.95-1.38-.95-1.5,0h0Z"/><path class="cls-1" d="m517.87,276.24c4.72-5.33,12.24-5.69,18.86-5.91.96-.03.97-1.53,0-1.5-7.01.23-14.92.72-19.92,6.35-.64.72.42,1.78,1.06,1.06h0Z"/><path class="cls-1" d="m530.36,276.28c.71-.86,1.8-.88,2.83-.8,1.28.1,2.56.34,3.83.52,2.83.4,5.66.8,8.49,1.2.94.13,1.35-1.31.4-1.45-3.25-.46-6.5-.92-9.74-1.37-2.16-.3-5.23-1.14-6.87.84-.61.74.45,1.81,1.06,1.06h0Z"/><path class="cls-1" d="m339.05,480.59c-3.92-6.01-10.49-9.64-17.4-11.1-8.68-1.83-17.62-.33-26.2,1.28-.95.18-.55,1.62.4,1.45,8.18-1.54,16.74-3.01,25.03-1.36,6.66,1.33,13.1,4.69,16.88,10.49.53.81,1.82.05,1.3-.76h0Z"/><path class="cls-1" d="m295.53,471.83c-.82-3.9-4.46-6-8.04-7-4.72-1.32-10.1-1.46-14.9-.64-9.15,1.56-16.81,7.3-24.44,12.18-4.47,2.85-9.08,5.54-14.17,7.14-.92.29-.53,1.74.4,1.45,8.38-2.64,15.4-8.04,22.78-12.6,3.7-2.29,7.56-4.41,11.73-5.72,4.83-1.52,9.88-1.66,14.88-1.02,4.04.52,9.35,2.06,10.31,6.62.2.94,1.64.54,1.45-.4h0Z"/><path class="cls-1" d="m294.6,471.5c-.07,4.54-.27,9.41-1.66,13.77-.61,1.91-1.61,3.78-3.32,4.93-1.8,1.21-4.02,1.39-6.13,1.26-2.3-.15-4.57-.67-6.83-1.1-2.51-.48-5.03-.96-7.54-1.44-5.03-.96-10.05-1.91-15.08-2.87-5.67-1.08-11.35-2.16-17.02-3.24-.94-.18-1.35,1.27-.4,1.45,10.94,2.08,21.89,4.17,32.83,6.25,2.67.51,5.35,1.02,8.02,1.53,2.25.43,4.52.91,6.81.96,4.25.08,7.78-1.81,9.52-5.77.93-2.12,1.31-4.41,1.62-6.69.41-3,.63-6.01.67-9.04.02-.97-1.48-.97-1.5,0h0Z"/><path class="cls-1" d="m294.71,473.57c-3.81,1.76-8.12,2.13-12.22,2.74-4.53.67-9.05,1.35-13.58,2.02-8.97,1.34-17.94,2.67-26.91,4.01-.95.14-.55,1.59.4,1.45,9.13-1.36,18.27-2.72,27.4-4.08,4.53-.67,9.05-1.35,13.58-2.02,4.1-.61,8.28-1.07,12.09-2.82.88-.4.11-1.7-.76-1.3h0Z"/><path class="cls-1" d="m255.46,473c3.1,2.48,6.74,4.21,10.64,4.97.94.18,1.35-1.26.4-1.45-3.64-.7-7.08-2.26-9.98-4.58-.32-.26-.75-.31-1.06,0-.27.26-.32.81,0,1.06h0Z"/><path class="cls-1" d="m270.02,466.75c2.74,3.79,5.97,7.18,9.65,10.07.32.25.75.31,1.06,0,.26-.26.32-.81,0-1.06-3.57-2.8-6.76-6.08-9.41-9.76-.24-.33-.65-.48-1.03-.27-.33.19-.51.7-.27,1.03h0Z"/><path class="cls-1" d="m262.32,488.16c1.82-.99,3.36-2.44,4.49-4.16.55-.84,1-1.76,1.33-2.71.17-.49.31-.99.42-1.5.05-.23.08-.46.12-.69,0-.03.1-.37.09-.38-.19-.3-.34.57-.47-.14v-.4l-.02.09c-.18.94,1.26,1.35,1.45.4.13-.66-.24-1.22-.91-1.35-.71-.15-1.28.36-1.49,1-.19.56-.22,1.18-.37,1.76s-.34,1.09-.58,1.61c-1.01,2.2-2.68,4.02-4.81,5.17-.85.46-.09,1.76.76,1.3h0Z"/><path class="cls-1" d="m276.63,491.87c3.93-3.86,4.07-9.77,3.99-14.92-.01-.96-1.51-.97-1.5,0,.07,4.73.07,10.31-3.55,13.86-.69.68.37,1.74,1.06,1.06h0Z"/><path class="cls-1" d="m274.61,365.12c-1.79-2.63-4.99-3.15-7.94-3.5-3.71-.44-7.47-.51-11.2-.24-7.19.52-14.26,2.3-20.84,5.22-3.87,1.72-7.53,3.84-10.95,6.33-.77.56-.03,1.86.76,1.3,7.08-5.15,15.23-8.69,23.83-10.38,4.28-.84,8.66-1.22,13.02-1.11,2.2.05,4.4.21,6.58.54,2.01.3,4.25.82,5.46,2.6.54.79,1.84.04,1.3-.76h0Z"/><path class="cls-1" d="m223.68,373.08c-4.48-1.23-9.06-.08-13.34,1.38-3.59,1.22-7.16,2.73-10.22,5.01-2.85,2.12-5.17,4.89-6.24,8.32-1.17,3.76-.78,7.78-.38,11.63.47,4.53,1.11,9.37-.98,13.61-.43.86.87,1.62,1.3.76,3.39-6.88.4-14.47.83-21.72.23-3.79,1.71-7.17,4.46-9.81s6.11-4.28,9.55-5.6c4.57-1.75,9.73-3.46,14.61-2.13.93.26,1.33-1.19.4-1.45h0Z"/><path class="cls-1" d="m191.52,414.81c4.45-1.33,8.91-2.66,13.3-4.18,3.88-1.34,8.01-2.67,11.41-5.04,6.24-4.35,9.24-12.93,9.56-20.28.19-4.35-.63-8.67-2.46-12.62-.4-.88-1.7-.11-1.3.76,3.08,6.67,2.9,14.45.26,21.24-1.39,3.59-3.46,7.21-6.65,9.49s-7.24,3.63-11,4.93c-4.47,1.55-9,2.91-13.53,4.26-.92.28-.53,1.72.4,1.45h0Z"/><path class="cls-1" d="m222.39,373.86c-6.47,4.32-12.99,8.85-16.93,15.76-2.04,3.56-3.46,7.43-5.37,11.06-2.01,3.84-4.52,7.39-7.43,10.6-.65.71.41,1.78,1.06,1.06,2.7-2.98,5.08-6.24,7.04-9.75s3.44-7.44,5.36-11.07c3.85-7.27,10.34-11.9,17.03-16.37.8-.53.05-1.83-.76-1.3h0Z"/><path class="cls-1" d="m211.87,381.56c-5.72-.16-11.37.99-16.59,3.33-.88.39-.12,1.69.76,1.3,4.97-2.22,10.39-3.27,15.83-3.12.97.03.96-1.47,0-1.5h0Z"/><path class="cls-1" d="m201.86,395.2c-3.16.8-6.32,1.61-9.48,2.41-.93.24-.54,1.68.4,1.45,3.16-.8,6.32-1.61,9.48-2.41.93-.24.54-1.68-.4-1.45h0Z"/><path class="cls-1" d="m202.36,397.95c3.29,1.88,5.22,5.85,4.57,9.6-.16.94,1.28,1.35,1.45.4.77-4.41-1.35-9.06-5.26-11.29-.84-.48-1.6.82-.76,1.3h0Z"/><path class="cls-1" d="m212.42,384.23c2.25,2.02,4.07,4.45,5.37,7.18.63,1.33,1.13,2.72,1.49,4.15.18.72.33,1.46.44,2.19.06.41.13.83.12,1.24,0,.14-.16,1.15-.51.81-.7-.67-1.76.39-1.06,1.06.58.55,1.37.62,2.07.22.78-.45,1.03-1.37,1.01-2.22-.05-1.96-.61-4.01-1.27-5.84-1.35-3.77-3.62-7.17-6.59-9.85-.72-.64-1.78.41-1.06,1.06h0Z"/><path class="cls-1" d="m499.02,355.75c-2.32-1.49-4.45-3.23-6.35-5.24-.89-.94-1.86-1.94-2.45-3.1-.54-1.05-.92-3.3,1.06-2.86,1.23.28,2.16,1.47,2.92,2.39.91,1.09,1.74,2.24,2.5,3.43,1.48,2.33,2.67,4.82,3.58,7.43l1.1-.85c-1.22-.56-.11-3.53.14-4.46.45-1.67,1.05-3.29,1.79-4.85.68-1.43,1.48-2.8,2.38-4.11.51-.74,1.06-1.45,1.65-2.14.49-.58,1.37-1.9,2.15-1.4.97.62-.34,3.34-.64,4.25-.5,1.49-1.04,2.97-1.71,4.4-1.3,2.77-3.06,5.31-5.67,6.99l.91,1.18c5.02-5.33,12.89-2.84,18.4.21.41.22,1.11.41.67,1.12-.13.22-.66.31-.87.36-.79.21-1.68.22-2.49.26-1.79.1-3.58.05-5.36-.13-3.58-.36-7.09-1.32-10.38-2.78-.56-.25-1.3.17-1.1.85.94,3.26,1.89,6.51,2.83,9.77.47,1.61,1.15,3.34.91,5.04-.2,1.44-1.87,3.37-3.34,2-1.68-1.57-.7-5.21-.45-7.12.45-3.46.91-6.91,1.36-10.37.09-.7-.85-.91-1.28-.53-2.78,2.48-5.56,4.96-8.34,7.44-1.28,1.14-2.54,2.52-4.03,3.37-1.31.75-3.84,1.01-4.04-1.06-.28-2.89,3.99-4.94,6.1-5.86,3.08-1.34,6.43-1.89,9.77-1.7.96.05.96-1.45,0-1.5-4.03-.22-8.06.61-11.66,2.44-2.53,1.29-6.59,3.98-5.59,7.42.43,1.47,1.87,2.31,3.34,2.36,1.77.06,3.26-.97,4.55-2.07,3.72-3.17,7.31-6.51,10.96-9.77l-1.28-.53c-.57,4.37-1.27,8.75-1.72,13.14-.23,2.25.07,5.64,2.78,6.23,1.35.3,2.65-.42,3.46-1.47,1.07-1.39,1.08-3.16.76-4.82-.4-2.07-1.13-4.1-1.72-6.12-.64-2.22-1.29-4.45-1.93-6.67l-1.1.85c4.22,1.88,8.74,2.97,13.36,3.14,1.53.06,9.88.41,8.14-3.26-.36-.77-1.25-1.14-1.95-1.52-1.05-.56-2.12-1.09-3.21-1.56-1.89-.81-3.86-1.42-5.91-1.67-3.88-.47-7.98.57-10.71,3.47-.57.6.17,1.65.91,1.18,2.67-1.71,4.58-4.2,5.97-7.02.7-1.41,1.28-2.88,1.8-4.36s1.15-2.95,1.33-4.46c.13-1.12-.17-2.37-1.37-2.75-1.46-.46-2.68.86-3.53,1.85-2.25,2.61-4.03,5.58-5.3,8.78-.75,1.91-1.36,3.93-1.66,5.96-.18,1.23-.12,2.74,1.17,3.33.54.25,1.34-.17,1.1-.85-1.17-3.4-2.8-6.63-4.92-9.54-1.41-1.94-4.13-6-7.07-4.64-2.73,1.26-1.16,4.71.17,6.39,2.34,2.93,5.2,5.42,8.35,7.44.82.52,1.57-.78.76-1.3h0Z"/><path class="cls-1" d="m403.13,271.22c-2.32-1.49-4.45-3.23-6.35-5.24-.89-.94-1.86-1.94-2.45-3.1-.54-1.05-.92-3.3,1.06-2.86,1.23.28,2.16,1.47,2.92,2.39.91,1.09,1.74,2.24,2.5,3.43,1.48,2.33,2.67,4.82,3.58,7.43l1.1-.85c-1.22-.56-.11-3.53.14-4.46.45-1.67,1.05-3.29,1.79-4.85.68-1.43,1.48-2.8,2.38-4.11.51-.74,1.06-1.45,1.65-2.14.49-.58,1.37-1.9,2.15-1.4.97.62-.34,3.34-.64,4.25-.5,1.49-1.04,2.97-1.71,4.4-1.3,2.77-3.06,5.31-5.67,6.99l.91,1.18c5.02-5.33,12.89-2.84,18.4.21.41.22,1.11.41.67,1.12-.13.22-.66.31-.87.36-.79.21-1.68.22-2.49.26-1.79.1-3.58.05-5.36-.13-3.58-.36-7.09-1.32-10.38-2.78-.56-.25-1.3.17-1.1.85.94,3.26,1.89,6.51,2.83,9.77.47,1.61,1.15,3.34.91,5.04-.2,1.44-1.87,3.37-3.34,2-1.68-1.57-.7-5.21-.45-7.12.45-3.46.91-6.91,1.36-10.37.09-.7-.85-.91-1.28-.53-2.78,2.48-5.56,4.96-8.34,7.44-1.28,1.14-2.54,2.52-4.03,3.37-1.31.75-3.84,1.01-4.04-1.06-.28-2.89,3.99-4.94,6.1-5.86,3.08-1.34,6.43-1.89,9.77-1.7.96.05.96-1.45,0-1.5-4.03-.22-8.06.61-11.66,2.44-2.53,1.29-6.59,3.98-5.59,7.42.43,1.47,1.87,2.31,3.34,2.36,1.77.06,3.26-.97,4.55-2.07,3.72-3.17,7.31-6.51,10.96-9.77l-1.28-.53c-.57,4.37-1.27,8.75-1.72,13.14-.23,2.25.07,5.64,2.78,6.23,1.35.3,2.65-.42,3.46-1.47,1.07-1.39,1.08-3.16.76-4.82-.4-2.07-1.13-4.1-1.72-6.12-.64-2.22-1.29-4.45-1.93-6.67l-1.1.85c4.22,1.88,8.74,2.97,13.36,3.14,1.53.06,9.88.41,8.14-3.26-.36-.77-1.25-1.14-1.95-1.52-1.05-.56-2.12-1.09-3.21-1.56-1.89-.81-3.86-1.42-5.91-1.67-3.88-.47-7.98.57-10.71,3.47-.57.6.17,1.65.91,1.18,2.67-1.71,4.58-4.2,5.97-7.02.7-1.41,1.28-2.88,1.8-4.36s1.15-2.95,1.33-4.46c.13-1.12-.17-2.37-1.37-2.75-1.46-.46-2.68.86-3.53,1.85-2.25,2.61-4.03,5.58-5.3,8.78-.75,1.91-1.36,3.93-1.66,5.96-.18,1.23-.12,2.74,1.17,3.33.54.25,1.34-.17,1.1-.85-1.17-3.4-2.8-6.63-4.92-9.54-1.41-1.94-4.13-6-7.07-4.64-2.73,1.26-1.16,4.71.17,6.39,2.34,2.93,5.2,5.42,8.35,7.44.82.52,1.57-.78.76-1.3h0Z"/><path class="cls-1" d="m534.97,199.07c-2.32-1.49-4.45-3.23-6.35-5.24-.89-.94-1.86-1.94-2.45-3.1-.54-1.05-.92-3.3,1.06-2.86,1.23.28,2.16,1.47,2.92,2.39.91,1.09,1.74,2.24,2.5,3.43,1.48,2.33,2.67,4.82,3.58,7.43l1.1-.85c-1.22-.56-.11-3.53.14-4.46.45-1.67,1.05-3.29,1.79-4.85.68-1.43,1.48-2.8,2.38-4.11.51-.74,1.06-1.45,1.65-2.14.49-.58,1.37-1.9,2.15-1.4.97.62-.34,3.34-.64,4.25-.5,1.49-1.04,2.97-1.71,4.4-1.3,2.77-3.06,5.31-5.67,6.99l.91,1.18c5.02-5.33,12.89-2.84,18.4.21.41.22,1.11.41.67,1.12-.13.22-.66.31-.87.36-.79.21-1.68.22-2.49.26-1.79.1-3.58.05-5.36-.13-3.58-.36-7.09-1.32-10.38-2.78-.56-.25-1.3.17-1.1.85.94,3.26,1.89,6.51,2.83,9.77.47,1.61,1.15,3.34.91,5.04-.2,1.44-1.87,3.37-3.34,2-1.68-1.57-.7-5.21-.45-7.12.45-3.46.91-6.91,1.36-10.37.09-.7-.85-.91-1.28-.53-2.78,2.48-5.56,4.96-8.34,7.44-1.28,1.14-2.54,2.52-4.03,3.37-1.31.75-3.84,1.01-4.04-1.06-.28-2.89,3.99-4.94,6.1-5.86,3.08-1.34,6.43-1.89,9.77-1.7.96.05.96-1.45,0-1.5-4.03-.22-8.06.61-11.66,2.44-2.53,1.29-6.59,3.98-5.59,7.42.43,1.47,1.87,2.31,3.34,2.36,1.77.06,3.26-.97,4.55-2.07,3.72-3.17,7.31-6.51,10.96-9.77l-1.28-.53c-.57,4.37-1.27,8.75-1.72,13.14-.23,2.25.07,5.64,2.78,6.23,1.35.3,2.65-.42,3.46-1.47,1.07-1.39,1.08-3.16.76-4.82-.4-2.07-1.13-4.1-1.72-6.12-.64-2.22-1.29-4.45-1.93-6.67l-1.1.85c4.22,1.88,8.74,2.97,13.36,3.14,1.53.06,9.88.41,8.14-3.26-.36-.77-1.25-1.14-1.95-1.52-1.05-.56-2.12-1.09-3.21-1.56-1.89-.81-3.86-1.42-5.91-1.67-3.88-.47-7.98.57-10.71,3.47-.57.6.17,1.65.91,1.18,2.67-1.71,4.58-4.2,5.97-7.02.7-1.41,1.28-2.88,1.8-4.36s1.15-2.95,1.33-4.46c.13-1.12-.17-2.37-1.37-2.75-1.46-.46-2.68.86-3.53,1.85-2.25,2.61-4.03,5.58-5.3,8.78-.75,1.91-1.36,3.93-1.66,5.96-.18,1.23-.12,2.74,1.17,3.33.54.25,1.34-.17,1.1-.85-1.17-3.4-2.8-6.63-4.92-9.54-1.41-1.94-4.13-6-7.07-4.64-2.73,1.26-1.16,4.71.17,6.39,2.34,2.93,5.2,5.42,8.35,7.44.82.52,1.57-.78.76-1.3h0Z"/><path class="cls-1" d="m357.42,399.03c-2.32-1.49-4.45-3.23-6.35-5.24-.89-.94-1.86-1.94-2.45-3.1-.54-1.05-.92-3.3,1.06-2.86,1.23.28,2.16,1.47,2.92,2.39.91,1.09,1.74,2.24,2.5,3.43,1.48,2.33,2.67,4.82,3.58,7.43l1.1-.85c-1.22-.56-.11-3.53.14-4.46.45-1.67,1.05-3.29,1.79-4.85.68-1.43,1.48-2.8,2.38-4.11.51-.74,1.06-1.45,1.65-2.14.49-.58,1.37-1.9,2.15-1.4.97.62-.34,3.34-.64,4.25-.5,1.49-1.04,2.97-1.71,4.4-1.3,2.77-3.06,5.31-5.67,6.99l.91,1.18c5.02-5.33,12.89-2.84,18.4.21.41.22,1.11.41.67,1.12-.13.22-.66.31-.87.36-.79.21-1.68.22-2.49.26-1.79.1-3.58.05-5.36-.13-3.58-.36-7.09-1.32-10.38-2.78-.56-.25-1.3.17-1.1.85.94,3.26,1.89,6.51,2.83,9.77.47,1.61,1.15,3.34.91,5.04-.2,1.44-1.87,3.37-3.34,2-1.68-1.57-.7-5.21-.45-7.12.45-3.46.91-6.91,1.36-10.37.09-.7-.85-.91-1.28-.53-2.78,2.48-5.56,4.96-8.34,7.44-1.28,1.14-2.54,2.52-4.03,3.37-1.31.75-3.84,1.01-4.04-1.06-.28-2.89,3.99-4.94,6.1-5.86,3.08-1.34,6.43-1.89,9.77-1.7.96.05.96-1.45,0-1.5-4.03-.22-8.06.61-11.66,2.44-2.53,1.29-6.59,3.98-5.59,7.42.43,1.47,1.87,2.31,3.34,2.36,1.77.06,3.26-.97,4.55-2.07,3.72-3.17,7.31-6.51,10.96-9.77l-1.28-.53c-.57,4.37-1.27,8.75-1.72,13.14-.23,2.25.07,5.64,2.78,6.23,1.35.3,2.65-.42,3.46-1.47,1.07-1.39,1.08-3.16.76-4.82-.4-2.07-1.13-4.1-1.72-6.12-.64-2.22-1.29-4.45-1.93-6.67l-1.1.85c4.22,1.88,8.74,2.97,13.36,3.14,1.53.06,9.88.41,8.14-3.26-.36-.77-1.25-1.14-1.95-1.52-1.05-.56-2.12-1.09-3.21-1.56-1.89-.81-3.86-1.42-5.91-1.67-3.88-.47-7.98.57-10.71,3.47-.57.6.17,1.65.91,1.18,2.67-1.71,4.58-4.2,5.97-7.02.7-1.41,1.28-2.88,1.8-4.36s1.15-2.95,1.33-4.46c.13-1.12-.17-2.37-1.37-2.75-1.46-.46-2.68.86-3.53,1.85-2.25,2.61-4.03,5.58-5.3,8.78-.75,1.91-1.36,3.93-1.66,5.96-.18,1.23-.12,2.74,1.17,3.33.54.25,1.34-.17,1.1-.85-1.17-3.4-2.8-6.63-4.92-9.54-1.41-1.94-4.13-6-7.07-4.64-2.73,1.26-1.16,4.71.17,6.39,2.34,2.93,5.2,5.42,8.35,7.44.82.52,1.57-.78.76-1.3h0Z"/><path class="cls-1" d="m279.75,424.14c-2.32-1.49-4.45-3.23-6.35-5.24-.89-.94-1.86-1.94-2.45-3.1-.54-1.05-.92-3.3,1.06-2.86,1.23.28,2.16,1.47,2.92,2.39.91,1.09,1.74,2.24,2.5,3.43,1.48,2.33,2.67,4.82,3.58,7.43l1.1-.85c-1.22-.56-.11-3.53.14-4.46.45-1.67,1.05-3.29,1.79-4.85.68-1.43,1.48-2.8,2.38-4.11.51-.74,1.06-1.45,1.65-2.14.49-.58,1.37-1.9,2.15-1.4.97.62-.34,3.34-.64,4.25-.5,1.49-1.04,2.97-1.71,4.4-1.3,2.77-3.06,5.31-5.67,6.99l.91,1.18c5.02-5.33,12.89-2.84,18.4.21.41.22,1.11.41.67,1.12-.13.22-.66.31-.87.36-.79.21-1.68.22-2.49.26-1.79.1-3.58.05-5.36-.13-3.58-.36-7.09-1.32-10.38-2.78-.56-.25-1.3.17-1.1.85.94,3.26,1.89,6.51,2.83,9.77.47,1.61,1.15,3.34.91,5.04-.2,1.44-1.87,3.37-3.34,2-1.68-1.57-.7-5.21-.45-7.12.45-3.46.91-6.91,1.36-10.37.09-.7-.85-.91-1.28-.53-2.78,2.48-5.56,4.96-8.34,7.44-1.28,1.14-2.54,2.52-4.03,3.37-1.31.75-3.84,1.01-4.04-1.06-.28-2.89,3.99-4.94,6.1-5.86,3.08-1.34,6.43-1.89,9.77-1.7.96.05.96-1.45,0-1.5-4.03-.22-8.06.61-11.66,2.44-2.53,1.29-6.59,3.98-5.59,7.42.43,1.47,1.87,2.31,3.34,2.36,1.77.06,3.26-.97,4.55-2.07,3.72-3.17,7.31-6.51,10.96-9.77l-1.28-.53c-.57,4.37-1.27,8.75-1.72,13.14-.23,2.25.07,5.64,2.78,6.23,1.35.3,2.65-.42,3.46-1.47,1.07-1.39,1.08-3.16.76-4.82-.4-2.07-1.13-4.1-1.72-6.12-.64-2.22-1.29-4.45-1.93-6.67l-1.1.85c4.22,1.88,8.74,2.97,13.36,3.14,1.53.06,9.88.41,8.14-3.26-.36-.77-1.25-1.14-1.95-1.52-1.05-.56-2.12-1.09-3.21-1.56-1.89-.81-3.86-1.42-5.91-1.67-3.88-.47-7.98.57-10.71,3.47-.57.6.17,1.65.91,1.18,2.67-1.71,4.58-4.2,5.97-7.02.7-1.41,1.28-2.88,1.8-4.36s1.15-2.95,1.33-4.46c.13-1.12-.17-2.37-1.37-2.75-1.46-.46-2.68.86-3.53,1.85-2.25,2.61-4.03,5.58-5.3,8.78-.75,1.91-1.36,3.93-1.66,5.96-.18,1.23-.12,2.74,1.17,3.33.54.25,1.34-.17,1.1-.85-1.17-3.4-2.8-6.63-4.92-9.54-1.41-1.94-4.13-6-7.07-4.64-2.73,1.26-1.16,4.71.17,6.39,2.34,2.93,5.2,5.42,8.35,7.44.82.52,1.57-.78.76-1.3h0Z"/><path class="cls-1" d="m192.66,339.85c-2.32-1.49-4.45-3.23-6.35-5.24-.89-.94-1.86-1.94-2.45-3.1-.54-1.05-.92-3.3,1.06-2.86,1.23.28,2.16,1.47,2.92,2.39.91,1.09,1.74,2.24,2.5,3.43,1.48,2.33,2.67,4.82,3.58,7.43l1.1-.85c-1.22-.56-.11-3.53.14-4.46.45-1.67,1.05-3.29,1.79-4.85.68-1.43,1.48-2.8,2.38-4.11.51-.74,1.06-1.45,1.65-2.14.49-.58,1.37-1.9,2.15-1.4.97.62-.34,3.34-.64,4.25-.5,1.49-1.04,2.97-1.71,4.4-1.3,2.77-3.06,5.31-5.67,6.99l.91,1.18c5.02-5.33,12.89-2.84,18.4.21.41.22,1.11.41.67,1.12-.13.22-.66.31-.87.36-.79.21-1.68.22-2.49.26-1.79.1-3.58.05-5.36-.13-3.58-.36-7.09-1.32-10.38-2.78-.56-.25-1.3.17-1.1.85.94,3.26,1.89,6.51,2.83,9.77.47,1.61,1.15,3.34.91,5.04-.2,1.44-1.87,3.37-3.34,2-1.68-1.57-.7-5.21-.45-7.12.45-3.46.91-6.91,1.36-10.37.09-.7-.85-.91-1.28-.53-2.78,2.48-5.56,4.96-8.34,7.44-1.28,1.14-2.54,2.52-4.03,3.37-1.31.75-3.84,1.01-4.04-1.06-.28-2.89,3.99-4.94,6.1-5.86,3.08-1.34,6.43-1.89,9.77-1.7.96.05.96-1.45,0-1.5-4.03-.22-8.06.61-11.66,2.44-2.53,1.29-6.59,3.98-5.59,7.42.43,1.47,1.87,2.31,3.34,2.36,1.77.06,3.26-.97,4.55-2.07,3.72-3.17,7.31-6.51,10.96-9.77l-1.28-.53c-.57,4.37-1.27,8.75-1.72,13.14-.23,2.25.07,5.64,2.78,6.23,1.35.3,2.65-.42,3.46-1.47,1.07-1.39,1.08-3.16.76-4.82-.4-2.07-1.13-4.1-1.72-6.12-.64-2.22-1.29-4.45-1.93-6.67l-1.1.85c4.22,1.88,8.74,2.97,13.36,3.14,1.53.06,9.88.41,8.14-3.26-.36-.77-1.25-1.14-1.95-1.52-1.05-.56-2.12-1.09-3.21-1.56-1.89-.81-3.86-1.42-5.91-1.67-3.88-.47-7.98.57-10.71,3.47-.57.6.17,1.65.91,1.18,2.67-1.71,4.58-4.2,5.97-7.02.7-1.41,1.28-2.88,1.8-4.36s1.15-2.95,1.33-4.46c.13-1.12-.17-2.37-1.37-2.75-1.46-.46-2.68.86-3.53,1.85-2.25,2.61-4.03,5.58-5.3,8.78-.75,1.91-1.36,3.93-1.66,5.96-.18,1.23-.12,2.74,1.17,3.33.54.25,1.34-.17,1.1-.85-1.17-3.4-2.8-6.63-4.92-9.54-1.41-1.94-4.13-6-7.07-4.64-2.73,1.26-1.16,4.71.17,6.39,2.34,2.93,5.2,5.42,8.35,7.44.82.52,1.57-.78.76-1.3h0Z"/><path class="cls-1" d="m267.58,249.5c-2.32-1.49-4.45-3.23-6.35-5.24-.89-.94-1.86-1.94-2.45-3.1-.54-1.05-.92-3.3,1.06-2.86,1.23.28,2.16,1.47,2.92,2.39.91,1.09,1.74,2.24,2.5,3.43,1.48,2.33,2.67,4.82,3.58,7.43l1.1-.85c-1.22-.56-.11-3.53.14-4.46.45-1.67,1.05-3.29,1.79-4.85.68-1.43,1.48-2.8,2.38-4.11.51-.74,1.06-1.45,1.65-2.14.49-.58,1.37-1.9,2.15-1.4.97.62-.34,3.34-.64,4.25-.5,1.49-1.04,2.97-1.71,4.4-1.3,2.77-3.06,5.31-5.67,6.99l.91,1.18c5.02-5.33,12.89-2.84,18.4.21.41.22,1.11.41.67,1.12-.13.22-.66.31-.87.36-.79.21-1.68.22-2.49.26-1.79.1-3.58.05-5.36-.13-3.58-.36-7.09-1.32-10.38-2.78-.56-.25-1.3.17-1.1.85.94,3.26,1.89,6.51,2.83,9.77.47,1.61,1.15,3.34.91,5.04-.2,1.44-1.87,3.37-3.34,2-1.68-1.57-.7-5.21-.45-7.12.45-3.46.91-6.91,1.36-10.37.09-.7-.85-.91-1.28-.53-2.78,2.48-5.56,4.96-8.34,7.44-1.28,1.14-2.54,2.52-4.03,3.37-1.31.75-3.84,1.01-4.04-1.06-.28-2.89,3.99-4.94,6.1-5.86,3.08-1.34,6.43-1.89,9.77-1.7.96.05.96-1.45,0-1.5-4.03-.22-8.06.61-11.66,2.44-2.53,1.29-6.59,3.98-5.59,7.42.43,1.47,1.87,2.31,3.34,2.36,1.77.06,3.26-.97,4.55-2.07,3.72-3.17,7.31-6.51,10.96-9.77l-1.28-.53c-.57,4.37-1.27,8.75-1.72,13.14-.23,2.25.07,5.64,2.78,6.23,1.35.3,2.65-.42,3.46-1.47,1.07-1.39,1.08-3.16.76-4.82-.4-2.07-1.13-4.1-1.72-6.12-.64-2.22-1.29-4.45-1.93-6.67l-1.1.85c4.22,1.88,8.74,2.97,13.36,3.14,1.53.06,9.88.41,8.14-3.26-.36-.77-1.25-1.14-1.95-1.52-1.05-.56-2.12-1.09-3.21-1.56-1.89-.81-3.86-1.42-5.91-1.67-3.88-.47-7.98.57-10.71,3.47-.57.6.17,1.65.91,1.18,2.67-1.71,4.58-4.2,5.97-7.02.7-1.41,1.28-2.88,1.8-4.36s1.15-2.95,1.33-4.46c.13-1.12-.17-2.37-1.37-2.75-1.46-.46-2.68.86-3.53,1.85-2.25,2.61-4.03,5.58-5.3,8.78-.75,1.91-1.36,3.93-1.66,5.96-.18,1.23-.12,2.74,1.17,3.33.54.25,1.34-.17,1.1-.85-1.17-3.4-2.8-6.63-4.92-9.54-1.41-1.94-4.13-6-7.07-4.64-2.73,1.26-1.16,4.71.17,6.39,2.34,2.93,5.2,5.42,8.35,7.44.82.52,1.57-.78.76-1.3h0Z"/><path class="cls-1" d="m476.19,385.71c5.61-3.05,10.73-6.97,15.1-11.62,4.77-5.08,8.32-11,11.77-17.01.48-.84-.82-1.6-1.3-.76-3.38,5.9-6.85,11.73-11.53,16.71-4.29,4.57-9.29,8.39-14.8,11.38-.85.46-.09,1.76.76,1.3h0Z"/><path class="cls-1" d="m516.28,240.2c6.23-4.05,10.78-10.09,14.13-16.65,1.85-3.62,3.37-7.41,4.79-11.21,1.51-4.06,3.29-8.21,3.92-12.52.14-.94-1.31-1.35-1.45-.4-.59,4.02-2.2,7.86-3.6,11.65s-2.91,7.65-4.75,11.31c-3.26,6.48-7.65,12.52-13.8,16.52-.81.52-.06,1.82.76,1.3h0Z"/><path class="cls-1" d="m406.29,273.65c2.02,3.23,4.82,5.81,7.4,8.59s5.11,5.94,7.33,9.16c4.39,6.4,7.86,13.39,10.31,20.75.3.91,1.75.52,1.45-.4-2.44-7.35-5.87-14.35-10.22-20.76-2.11-3.11-4.43-6.08-6.94-8.87-2.72-3.03-5.85-5.75-8.02-9.23-.51-.82-1.81-.06-1.3.76h0Z"/><path class="cls-1" d="m360.71,401.97c8.87,8.97,14.92,20.45,17.36,32.83.19.95,1.63.55,1.45-.4-2.48-12.62-8.71-24.34-17.74-33.49-.68-.69-1.74.37-1.06,1.06h0Z"/><path class="cls-1" d="m282.69,425.94c2.55,2.76,5.54,5.03,8.47,7.36s5.88,5,8.49,7.89c5.69,6.29,11.01,12.95,16.48,19.44,3.15,3.74,6.29,7.47,9.44,11.21.62.74,1.68-.33,1.06-1.06-5.55-6.59-11.09-13.17-16.64-19.76-5.23-6.21-10.24-12.7-16.58-17.83-3.31-2.67-6.77-5.17-9.66-8.3-.66-.71-1.71.35-1.06,1.06h0Z"/><path class="cls-1" d="m268,251.17c-13.08,10.83-22.28,26.13-25.92,42.7-1.03,4.69-1.61,9.47-1.73,14.27-.03.97,1.47.97,1.5,0,.43-16.72,6.68-33.15,17.33-46.03,2.98-3.6,6.29-6.9,9.88-9.88.74-.62-.32-1.67-1.06-1.06h0Z"/><path class="cls-1" d="m195.96,342.92c15.05,5.38,29.21,13.07,41.93,22.74.77.58,1.52-.72.76-1.3-12.83-9.75-27.11-17.47-42.29-22.89-.91-.33-1.3,1.12-.4,1.45h0Z"/></svg>