<?xml version="1.0" encoding="UTF-8"?><svg id="Layer_2" xmlns="http://www.w3.org/2000/svg" width="405.02" height="212.65" viewBox="0 0 405.02 212.65"><defs><style>.cls-1{fill:#1f0318;stroke-width:0px;}</style></defs><path class="cls-1" d="m33.72,16.21c-4.37,16.54-8.74,33.08-13.11,49.62s-8.74,33.08-13.11,49.62c-2.46,9.31-4.92,18.63-7.38,27.94-.99,3.74,4.8,5.33,5.79,1.6,4.37-16.54,8.74-33.08,13.11-49.62s8.74-33.08,13.11-49.62c2.46-9.31,4.92-18.63,7.38-27.94.99-3.74-4.8-5.33-5.79-1.6h0Z"/><path class="cls-1" d="m20.08,17.92c9.33-3.76,18.93-6.84,28.72-9.17,4.5-1.07,9.09-2.2,13.7-2.66,4.07-.41,8.36-.31,11.88,2.02,5.64,3.73,6.76,11.95,5.04,18.2-1.18,4.28-3.43,8.15-5.98,11.76s-5.28,6.93-8.34,9.99c-6.27,6.25-16.15,11.74-24.93,7.11-1.43-.76-3.26-.36-4.1,1.08-.79,1.35-.36,3.35,1.08,4.1,9.54,5.03,20.47,1.65,28.45-4.69,3.8-3.02,7.01-6.72,10-10.52,3.15-4.01,6.06-8.19,8.07-12.9,3.6-8.47,3.64-18.49-2.4-25.88C74.5-1.93,63.21-.39,53.94,1.48c-12.12,2.45-23.99,6.03-35.45,10.65-1.5.61-2.56,2-2.1,3.69.39,1.43,2.18,2.7,3.69,2.1h0Z"/><path class="cls-1" d="m51.97,76.57c-.84,19.13-4.71,38.02-11.34,55.98l5.79,1.6c2.36-11.57,5.44-22.98,9.23-34.16.94-2.78,1.93-5.54,2.96-8.28.92-2.45,1.66-4.6,2.84-6.78.96-1.78,1.91-3.33,3.54-4.54.38-.28,1.02-.6,1.74-.78.91-.23-.26-.01.29-.05.27-.02.54-.02.81,0-.1,0-.61-.15.3.05.36.08.75.19,1.09.34,2.35,1.02,4.22,3.18,6.54,4.36,2.94,1.5,6.28,2.05,9.28.36,3.36-1.9.34-7.08-3.03-5.18-1.57.89-3.87-.62-5.4-1.74-2.09-1.54-4.13-3.22-6.71-3.88-5.32-1.36-9.74,1.97-12.54,6.19-1.34,2.02-2.3,4.25-3.18,6.5-1.1,2.8-2.15,5.62-3.15,8.46-2.03,5.75-3.88,11.57-5.54,17.44-1.87,6.63-3.49,13.34-4.86,20.09-.78,3.81,4.45,5.21,5.79,1.6,6.82-18.45,10.69-37.93,11.56-57.57.07-1.62-1.43-3-3-3-1.68,0-2.93,1.37-3,3h0Z"/><path class="cls-1" d="m370.49,74.39c-.84,19.13-4.71,38.02-11.34,55.98l5.79,1.6c2.36-11.57,5.44-22.98,9.23-34.16.94-2.78,1.93-5.54,2.96-8.28.92-2.45,1.66-4.6,2.84-6.78.96-1.78,1.91-3.33,3.54-4.54.38-.28,1.02-.6,1.74-.78.91-.23-.26-.01.29-.05.27-.02.54-.02.81,0-.1,0-.61-.15.3.05.36.08.75.19,1.09.34,2.35,1.02,4.22,3.18,6.54,4.36,2.94,1.5,6.28,2.05,9.28.36,3.36-1.9.34-7.08-3.03-5.18-1.57.89-3.87-.62-5.4-1.74-2.09-1.54-4.13-3.22-6.71-3.88-5.32-1.36-9.74,1.97-12.54,6.19-1.34,2.02-2.3,4.25-3.18,6.5-1.1,2.8-2.15,5.62-3.15,8.46-2.03,5.75-3.88,11.57-5.54,17.44-1.87,6.63-3.49,13.34-4.86,20.09-.78,3.81,4.45,5.21,5.79,1.6,6.82-18.45,10.69-37.93,11.56-57.57.07-1.62-1.43-3-3-3-1.68,0-2.93,1.37-3,3h0Z"/><path class="cls-1" d="m299.47,43.4c.62,16.02-4.57,31.36-9.73,46.3-2.63,7.61-5.31,15.23-7.37,23.02-1.03,3.89-1.9,7.82-2.53,11.8-.33,2.11-.61,4.23-.81,6.36-.18,1.92-.59,4.16.09,6.02,1.11,3.02,4.43,3.5,7.03,2.16,2.05-1.06,3.83-3.02,5.49-4.6,3.6-3.41,6.93-7.09,9.99-10.99,1-1.27,1.24-3,0-4.24-1.04-1.04-3.24-1.28-4.24,0-2.5,3.19-5.18,6.24-8.05,9.11-1.43,1.43-2.91,2.82-4.43,4.17-.39.34-.77.73-1.19,1.04.07-.05-.55.27-.59.34.23-.46,1.53,1.29,1.65,1.18.01-.01.01-.83.02-1.06.38-7.43,1.95-14.74,3.95-21.89,4.1-14.62,10.15-28.63,13.78-43.38,2.03-8.27,3.27-16.79,2.94-25.31-.06-1.62-1.33-3-3-3-1.58,0-3.06,1.37-3,3h0Z"/><path class="cls-1" d="m285,89.09c13.09-4.56,26.25-8.89,39.48-12.99,3.68-1.14,2.11-6.93-1.6-5.79-13.23,4.11-26.4,8.44-39.48,12.99-1.53.53-2.55,2.05-2.1,3.69.41,1.49,2.15,2.63,3.69,2.1h0Z"/><path class="cls-1" d="m111.3,75.41c-5.45-.53-9.84,3.45-13.38,7.06-3.88,3.96-7.76,7.95-11.18,12.32-6.79,8.68-12.27,19.61-10.76,30.95.35,2.66,1.34,5.24,3.38,7.07,1.8,1.61,4.06,2.67,6.43,3.12,4.87.93,9.82-.05,14.27-2.11,9.38-4.33,15.39-13.56,18.05-23.27,1.6-5.84,2.2-12,2.26-18.05.06-6.63-1.58-12.78-6.17-17.71-2.64-2.83-6.87,1.42-4.24,4.24,3.11,3.34,4.32,7.53,4.41,12.02s-.24,9.36-1.12,13.91c-1.58,8.27-5.23,16.54-12.32,21.44-3.19,2.21-6.87,3.71-10.62,3.88-1.88.08-3.33-.02-5.11-.76-1.18-.49-2.33-1.36-2.87-2.78-.77-2.03-.65-4.47-.5-6.58.16-2.29.66-4.54,1.34-6.74,1.39-4.5,3.71-8.65,6.43-12.48,3.15-4.44,6.91-8.41,10.7-12.3,2.95-3.04,6.53-7.67,11.03-7.23,1.61.16,3-1.49,3-3,0-1.75-1.38-2.84-3-3h0Z"/><path class="cls-1" d="m159.64,97.47c.92-3.93,1.64-7.97,1-12s-3.19-7.64-6.97-9.42c-3.67-1.73-8.34-2.49-12.28-1.28-4.49,1.38-6.9,5.18-7.37,9.7-.44,4.2.72,8.61,2.14,12.52s3.36,7.82,4.96,11.77c1.69,4.16,2.95,8.52,3.4,13.01.23,2.33.29,4.68.16,7.01-.08,1.45-.33,3.16-.87,4.39-.63,1.42-1.6,2.42-2.94,2.57-1.8.19-3.69-.71-5.31-1.75s-3.28-2.44-4.48-4.03c-.55-.72-1.06-1.56-1.32-2.38-.24-.75-.33-1.3-.03-1.93.7-1.46.4-3.24-1.08-4.1-1.31-.77-3.4-.39-4.1,1.08-2.12,4.42-.22,8.8,2.84,12.23,2.69,3.03,6.63,5.92,10.69,6.66,4.37.79,8.67-.95,10.76-5,1.94-3.76,2.05-8.25,1.86-12.39-.23-4.8-1.12-9.59-2.71-14.13-1.46-4.16-3.44-8.11-5.1-12.19-1.52-3.73-2.95-7.75-2.93-11.82,0-1.47.23-3.05,1.07-4.14s2.38-1.54,3.7-1.62c3.54-.2,8.03.93,9.57,4.5.19.43.49,1.6.58,2.33.07.54.07,1.87.02,2.7-.11,2.04-.54,4.04-1.02,6.11-.37,1.58.49,3.25,2.1,3.69,1.52.42,3.32-.51,3.69-2.1h0Z"/><path class="cls-1" d="m177.47,76.29c-4.81,20.21-9.62,40.41-14.43,60.62s-9.64,40.58-14.49,60.86c-.43,1.8-1.02,3.85-1.7,5.24-.22.44-.46.88-.72,1.29-.28.45-.37.58-.56.8-.68.79-.73.86-1.61,1.31-.44.22.36-.11-.11.05-.24.08-.49.15-.74.2.38-.07-.67.02-.88,0,.22.03-.79-.24-.81-.25-.24-.1-.81-.44-1.13-.7-1.23-.98-2.43-2.88-3.02-4.39s-2.01-2.56-3.69-2.1c-1.44.4-2.69,2.17-2.1,3.69,1.6,4.1,4.53,8.47,9.11,9.51s8.39-1.37,10.71-5.09,3.11-8.33,4.12-12.57l3.81-16c5.12-21.5,10.24-43,15.36-64.5,2.89-12.12,5.77-24.25,8.66-36.37.89-3.75-4.89-5.36-5.79-1.6h0Z"/><path class="cls-1" d="m183.71,58.16c.24.06.48.14.72.24l-.72-.3c.43.18.83.42,1.2.69l-.61-.47c.37.29.69.61.98.97l-.47-.61c.28.37.51.76.69,1.18l-.3-.72c.14.35.24.7.29,1.07l-.11-.8c.05.37.05.74,0,1.11l.11-.8c-.05.33-.14.64-.26.95l.3-.72c-.15.34-.33.66-.55.96l.47-.61c-.25.33-.54.61-.87.87l.61-.47c-.26.19-.54.36-.84.49l.72-.3c-.3.12-.6.21-.92.26l.8-.11c-.29.04-.56.04-.85,0l.8.11c-.28-.04-.55-.11-.82-.23l.72.3c-.26-.12-.5-.26-.72-.44l.61.47c-.22-.18-.42-.38-.6-.6l.47.61c-.22-.28-.4-.59-.54-.92l.3.72c-.12-.3-.2-.6-.25-.91l.11.8c-.03-.28-.03-.55,0-.82l-.11.8c.04-.24.1-.47.19-.69l-.3.72c.06-.13.12-.25.2-.37.82-1.34.33-3.36-1.08-4.1s-3.23-.35-4.1,1.08c-2.47,4.02.92,9.58,5.55,9.52,2.42-.03,4.58-1.44,5.85-3.44.64-1.02.95-2.17,1.04-3.36s-.27-2.41-.76-3.51c-.95-2.16-3.1-3.82-5.36-4.41-1.52-.4-3.33.5-3.69,2.1s.47,3.26,2.1,3.69h0Z"/><path class="cls-1" d="m251.58,59.12c11.78-10.35,21.73-22.91,28.58-37.04.65-1.34.48-2.93-.77-3.87-1.09-.81-2.99-.95-3.94.23-9.86,12.28-15.07,27.14-20.61,41.67-6.14,16.11-12.28,32.22-18.43,48.33-3.48,9.14-6.97,18.28-10.45,27.42-.58,1.51.64,3.29,2.1,3.69,1.69.46,3.11-.58,3.69-2.1,6.05-15.88,12.11-31.75,18.16-47.63,3.04-7.98,6.08-15.95,9.12-23.93,2.74-7.19,5.36-14.44,8.35-21.52,3.24-7.65,7.09-15.19,12.31-21.69l-4.71-3.64c-6.66,13.73-16.2,25.77-27.65,35.82-1.22,1.07-1.09,3.15,0,4.24,1.21,1.21,3.02,1.07,4.24,0h0Z"/><path class="cls-1" d="m244.6,103.67c13.29-1.74,21.73-12.78,28.79-23.13.91-1.34.25-3.33-1.08-4.1-1.48-.87-3.19-.27-4.1,1.08-3.16,4.62-6.42,9.17-10.48,13.06-3.67,3.51-8.24,6.47-13.13,7.11-1.61.21-3,1.23-3,3,0,1.46,1.38,3.21,3,3h0Z"/><path class="cls-1" d="m252.24,99.68c0,4.9,0,9.8,0,14.7,0,4.44-.32,9.02.3,13.42.56,3.97,2.5,7.59,6.37,9.09,3.4,1.32,7.63.43,9.5-2.91s-3.3-6.41-5.18-3.03c-.35.64.17-.25-.17.28-.26.23-.26.24-.01.02l-.23.13c.32-.11.31-.11-.02,0l-.26.07c-.35.07-.36.07-.02.02-.14.01-.28.02-.42.01-.55,0-1.5-.26-2.07-.74-.53-.45-1.18-1.83-1.45-3.02-.31-1.37-.33-2.79-.34-4.24-.06-7.94,0-15.87,0-23.81,0-3.86-6-3.87-6,0h0Z"/><path class="cls-1" d="m195.32,124.7c8.71-7.38,16.68-15.61,23.76-24.57,3.59-4.53,6.97-9.22,10.1-14.08,1.64-2.54,4.2-5.87,1.57-8.71-2.06-2.22-5.66-1.85-8.37-1.42-5.57.88-10.51,4.09-14.7,7.72s-7.62,7.68-10.71,12.09c-6.08,8.69-10.2,18.93-11.66,29.45-.48,3.5-.21,6.9,2.18,9.68,1.84,2.14,4.63,3.43,7.32,4.1,6.54,1.63,13.44.7,19.5-2.11,1.47-.68,1.84-2.8,1.08-4.1-.88-1.51-2.63-1.76-4.1-1.08-4.22,1.96-9.19,2.62-13.77,1.75-1.78-.34-3.65-.9-4.82-1.84-1.55-1.24-1.77-2.82-1.56-4.95.46-4.47,1.77-8.99,3.31-13.2s3.61-8.32,6.03-12.14,5.26-7.38,8.46-10.59,6.84-6.32,11.13-7.94c1.98-.75,4.23-1.31,6.36-1.1.63.06.25,0,.13.02.97-.13.07.19.13.03l-.74-1.76h0c-.21.13-.41.67-.54.89-.69,1.11-1.4,2.21-2.11,3.31-2.69,4.1-5.54,8.1-8.59,11.94-7.05,8.89-14.98,17.06-23.63,24.39-1.24,1.05-1.08,3.16,0,4.24,1.23,1.23,3,1.05,4.24,0h0Z"/><path class="cls-1" d="m321.28,119.63c8.71-7.38,16.68-15.61,23.76-24.57,3.59-4.53,6.97-9.22,10.1-14.08,1.64-2.54,4.2-5.87,1.57-8.71-2.06-2.22-5.66-1.85-8.37-1.42-5.57.88-10.51,4.09-14.7,7.72s-7.62,7.68-10.71,12.09c-6.08,8.69-10.2,18.93-11.66,29.45-.48,3.5-.21,6.9,2.18,9.68,1.84,2.14,4.63,3.43,7.32,4.1,6.54,1.63,13.44.7,19.5-2.11,1.47-.68,1.84-2.8,1.08-4.1-.88-1.51-2.63-1.76-4.1-1.08-4.22,1.96-9.19,2.62-13.77,1.75-1.78-.34-3.65-.9-4.82-1.84-1.55-1.24-1.77-2.82-1.56-4.95.46-4.47,1.77-8.99,3.31-13.2s3.61-8.32,6.03-12.14,5.26-7.38,8.46-10.59,6.84-6.32,11.13-7.94c1.98-.75,4.23-1.31,6.36-1.1.63.06.25,0,.13.02.97-.13.07.19.13.03l-.74-1.76h0c-.21.13-.41.67-.54.89-.69,1.11-1.4,2.21-2.11,3.31-2.69,4.1-5.54,8.1-8.59,11.94-7.05,8.89-14.98,17.06-23.63,24.39-1.24,1.05-1.08,3.16,0,4.24,1.23,1.23,3,1.05,4.24,0h0Z"/></svg>